<?xml version="1.0" encoding="UTF-8" standalone="no"?>
<svg
   xmlns:dc="http://purl.org/dc/elements/1.1/"
   xmlns:cc="http://creativecommons.org/ns#"
   xmlns:rdf="http://www.w3.org/1999/02/22-rdf-syntax-ns#"
   xmlns:svg="http://www.w3.org/2000/svg"
   xmlns="http://www.w3.org/2000/svg"
   xmlns:sodipodi="http://sodipodi.sourceforge.net/DTD/sodipodi-0.dtd"
   xmlns:inkscape="http://www.inkscape.org/namespaces/inkscape"
   id="svg2"
   viewBox="0 0 512 512"
   height="100%"
   width="100%"
   version="1.1"
   inkscape:version="0.91 r13725"
   sodipodi:docname="battery-missing.svg">
  <sodipodi:namedview
     pagecolor="#ffffff"
     bordercolor="#666666"
     borderopacity="1"
     objecttolerance="10"
     gridtolerance="10"
     guidetolerance="10"
     inkscape:pageopacity="0"
     inkscape:pageshadow="2"
     inkscape:window-width="1366"
     inkscape:window-height="710"
     id="namedview8"
     showgrid="false"
     inkscape:zoom="0.4609375"
     inkscape:cx="177.89831"
     inkscape:cy="194.16949"
     inkscape:window-x="-2"
     inkscape:window-y="-3"
     inkscape:window-maximized="1"
     inkscape:current-layer="svg2" />
  <metadata
     id="metadata106">
    <rdf:RDF>
      <cc:Work
         rdf:about="">
        <dc:format>image/svg+xml</dc:format>
        <dc:type
           rdf:resource="http://purl.org/dc/dcmitype/StillImage" />
        <dc:title />
      </cc:Work>
    </rdf:RDF>
  </metadata>
  <defs
     id="defs104" />
  <path
     id="path10"
     d="m 255.99999,41 c -22.44477,0 -44.79592,3.91583 -66.40625,10.9375 -43.22115,14.04339 -80.88159,41.39022 -107.59375,78.15625 -26.7119,36.76602 -41.1875,80.64847 -41.1875,126.09375 0,45.4453 14.4756,89.32773 41.1875,126.09375 26.71216,36.76602 64.3726,64.14414 107.59375,78.1875 43.2209,14.04339 89.59133,14.04339 132.8125,0 43.22089,-14.04336 80.88159,-41.42148 107.59375,-78.1875 26.71217,-36.76602 41.1875,-80.64845 41.1875,-126.09375 0,-45.44528 -14.47533,-89.32773 -41.1875,-126.09375 C 403.28783,93.32772 365.62714,65.98089 322.40624,51.9375 300.79565,44.91583 278.44451,41 255.99999,41 Z m 0,45.65625 c 18.23854,0 35.63045,3.51366 52.09375,8.84375 34.5432,11.18371 63.91858,33.02801 84.78125,61.8125 20.23899,27.92407 32.65625,61.75072 32.65625,98.875 0,37.12427 -12.41726,70.98218 -32.65625,98.90625 -20.86267,28.78448 -50.23805,50.62885 -84.78125,61.8125 -16.4633,5.33013 -33.85521,8.8125 -52.09375,8.8125 -18.23853,0 -35.63071,-3.48237 -52.09375,-8.8125 -34.54319,-11.18365 -63.91859,-33.02802 -84.78125,-61.8125 -20.239,-27.92407 -32.65625,-61.78198 -32.65625,-98.90625 0,-37.12428 12.41725,-70.95093 32.65625,-98.875 20.86266,-28.78449 50.23806,-50.62879 84.78125,-61.8125 16.46304,-5.33009 33.85522,-8.84375 52.09375,-8.84375 z m 45.9375,23.125 c -0.38181,-0.002 -1.07606,0.55709 -2.0625,1.6875 L 172.06249,275 c -2.25474,2.57161 -1.49101,5.40625 2.03125,5.40625 l 59.8125,0 c 3.52225,0 5.59314,3.18181 4.59375,6.375 l -28.53125,112.8125 c -1.02377,3.19318 -0.0825,3.66912 2.0625,1 l 128.125,-163.40625 c 2.15723,-2.66912 1.02226,-5.5 -2.5,-5.5 l -59.96875,0 c -3.52226,0 -5.36127,-1.86775 -4.09375,-5 l 28.0625,-114.21875 c 0.71299,-1.76189 0.77215,-2.68528 0.28125,-2.6875 z"
     style="fill:#cd1d31;fill-opacity:1;fill-rule:evenodd" />
</svg>
