<?xml version="1.0" encoding="UTF-8" standalone="no"?>
<!-- Created with Inkscape (http://www.inkscape.org/) -->

<svg
   xmlns:dc="http://purl.org/dc/elements/1.1/"
   xmlns:cc="http://creativecommons.org/ns#"
   xmlns:rdf="http://www.w3.org/1999/02/22-rdf-syntax-ns#"
   xmlns:svg="http://www.w3.org/2000/svg"
   xmlns="http://www.w3.org/2000/svg"
   xmlns:sodipodi="http://sodipodi.sourceforge.net/DTD/sodipodi-0.dtd"
   xmlns:inkscape="http://www.inkscape.org/namespaces/inkscape"
   version="1.1"
   width="100%"
   height="100%"
   viewBox="0 0 512 512"
   id="svg2"
   inkscape:version="0.91+devel r13804 custom"
   sodipodi:docname="applications-sports.svg">
  <sodipodi:namedview
     pagecolor="#ffffff"
     bordercolor="#666666"
     borderopacity="1"
     objecttolerance="10"
     gridtolerance="10"
     guidetolerance="10"
     inkscape:pageopacity="0"
     inkscape:pageshadow="2"
     inkscape:window-width="1366"
     inkscape:window-height="709"
     id="namedview97"
     showgrid="false"
     inkscape:zoom="0.4609375"
     inkscape:cx="-8.6779661"
     inkscape:cy="237.55932"
     inkscape:window-x="-2"
     inkscape:window-y="-3"
     inkscape:window-maximized="1"
     inkscape:current-layer="svg2" />
  <metadata
     id="metadata10">
    <rdf:RDF>
      <cc:Work
         rdf:about="">
        <dc:format>image/svg+xml</dc:format>
        <dc:type
           rdf:resource="http://purl.org/dc/dcmitype/StillImage" />
        <dc:title></dc:title>
      </cc:Work>
    </rdf:RDF>
  </metadata>
  <defs
     id="defs8" />
  <path
     d="M 26,0 C 11.602648,0 0,11.602648 0,26 l 0,460 c 0,14.39735 11.602648,26 26,26 l 460,0 c 14.39735,0 26,-11.60265 26,-26 L 512,26 C 512,11.602648 500.39735,0 486,0 L 26,0 Z"
     inkscape:connector-curvature="0"
     id="rect2986-2"
     style="fill:#666666;fill-opacity:1;stroke:none" />
  <path
     style="fill:#000000;stroke:#000000;stroke-width:2.14026213;stroke-opacity:1;opacity:0.25"
     d="M 254.14648 42.072266 C 216.8676 41.999399 179.65199 50.691988 147.56641 69.828125 C 67.680147 116.38535 26.750875 216.83017 47.357422 305.94141 C 57.146603 343.62619 77.836404 378.43601 105.57422 406.17383 L 211.40039 512 L 486 512 C 500.39735 512 512 500.39735 512 486 L 512 211.00977 L 403.12695 102.13672 C 379.96087 78.970647 351.77993 61.005456 320.22461 51.308594 C 298.90498 45.31541 276.51382 42.115986 254.14648 42.072266 z "
     id="path4462" />
  <path
     d="M 239.00139,469.15367 C 148.87222,463.02489 69.705365,391.977 47.356593,305.94238 26.750046,216.83114 67.680925,116.38564 147.56718,69.82842 198.90411,39.210601 263.37134,35.326481 320.22369,51.308303 c 70.19472,21.570643 123.69474,84.060747 142.42856,153.684517 16.89045,64.24048 4.7226,137.14315 -40.0875,187.76231 -40.58994,50.50822 -105.44705,79.6073 -170.35637,77.01354 -4.39635,-0.0457 -8.83674,-0.28058 -13.23472,-0.61989 z m 53.70557,-10.07815 c 16.20857,-1.39965 13.35217,-6.35064 -1.34745,-7.64752 -26.29651,-5.06844 -54.66803,-5.1859 -80.04775,3.71283 22.35203,10.75514 52.0188,7.94115 77.01354,4.72913 z m -79.61057,-14.23307 c 11.54633,-11.77307 -0.50407,-39.85585 -10.58385,-51.01067 -22.57552,-11.53327 -40.02714,-30.29319 -60.68426,-44.48547 -15.543,-5.6867 -30.68633,5.06844 -45.668172,8.73723 -0.0571,14.81218 -1.06523,31.57539 11.990042,41.87377 21.50865,21.1726 47.45444,39.81181 76.73622,48.25377 9.39954,0.39804 19.2591,-0.16313 28.20024,-3.37352 z m 123.57077,0.61989 c 37.45132,-16.10416 72.52748,-42.0059 93.63646,-77.24192 7.60837,-10.1222 13.18089,-27.92781 -6.6459,-22.01273 -24.92785,15.66209 -47.45444,35.02232 -72.96466,49.82961 -15.4696,12.27388 -26.61625,29.09908 -37.66666,45.20325 3.83355,8.89872 16.32929,6.76335 23.64076,4.22832 z m 25.40256,-64.74129 c 18.8007,-15.42718 45.98627,-25.3422 55.90456,-48.69586 4.45507,-18.41734 4.79601,-37.43827 6.6459,-56.19492 -18.74034,-16.60498 -41.71553,-27.86256 -64.22417,-38.50025 -22.24926,1.73896 -40.20495,21.49724 -57.82133,34.28987 -9.35549,5.11248 -6.92812,16.76647 -9.51862,25.66683 -3.37515,20.8333 -7.3131,41.54914 -9.62139,62.54394 17.49729,12.89214 37.03697,24.76798 58.32377,29.7777 7.71277,0.0571 14.0781,-5.11249 20.32433,-8.88405 z m -134.15788,3.19734 c 17.05358,-6.46809 39.57527,-11.36035 47.56862,-29.37966 5.98034,-25.22475 9.23641,-51.07592 12.38971,-76.78516 -16.94918,-16.10417 -35.02396,-33.04846 -57.19329,-41.37296 -19.14001,-0.33931 -35.35021,13.16456 -52.36464,20.53966 -22.91972,6.24787 -30.90819,27.02244 -31.87065,48.53435 -6.75031,21.27212 0.96083,43.12661 20.28029,54.83932 16.89045,12.37666 38.56223,32.19366 61.19648,23.63261 z M 85.352768,354.14069 c -13.79588,-25.5037 -23.3145,-53.42498 -27.133367,-82.18475 -13.678427,2.75526 -1.243048,36.24742 2.531774,49.87365 6.424048,18.46139 16.268927,35.4644 26.511843,52.02533 1.864572,-6.82209 2.990167,-13.56913 -1.91025,-19.70607 z m -5.906927,-113.5546 c 6.024381,-8.60509 15.587047,-15.36682 19.244417,-25.22475 6.365322,-29.71897 16.786052,-58.4347 31.707522,-85.05584 -0.62152,-17.16451 -19.88062,-27.6407 -29.46123,-8.66382 -27.237769,35.00764 -48.62897,77.73621 -49.589804,122.83668 -3.611692,15.48591 9.903605,26.68313 17.675106,8.38324 3.43388,-4.05214 6.928119,-8.15649 10.420726,-12.27388 z m 351.250929,21.33737 c 11.53327,-15.13192 27.53303,-33.0925 23.4189,-53.64684 -7.26906,-38.89829 -27.25245,-75.83901 -57.98446,-101.15675 -9.17768,-3.88901 -25.84627,-18.074768 -32.2116,-4.6704 -9.39953,18.05846 -32.8217,35.12509 -24.38137,57.58479 7.20871,22.18891 12.50879,45.32234 23.03392,66.21436 19.42223,15.08787 41.83299,26.85931 64.40851,36.76128 z M 172.78867,251.8453 c 17.91164,-9.06185 35.30617,-19.02092 52.75615,-28.82012 5.84657,-20.55435 13.27876,-40.59157 20.14652,-60.74951 0.96084,-21.83492 -18.57721,-37.48232 -31.57538,-52.80673 -12.83505,-20.495615 -34.50194,-4.78785 -50.33042,2.71122 -34.80209,18.57884 -42.78892,59.39227 -54.66803,93.50596 1.68839,12.78937 13.39621,23.42706 21.95236,32.9522 11.76818,11.87584 25.06162,27.6407 41.71554,13.21677 z M 301.15545,141.56961 c 9.28208,-1.29688 19.64082,-0.33931 28.20024,-2.97549 12.89377,-13.79098 24.20355,-29.95388 29.5591,-48.136315 -6.4844,-18.299892 -27.87887,-26.639084 -45.10537,-32.886952 -21.89364,-6.468094 -45.37127,-9.680118 -68.1246,-7.086356 -16.37822,8.32451 -45.82314,32.591688 -29.20675,51.451113 12.15317,14.46798 25.10567,28.21492 38.34038,41.771 15.46959,0.17618 30.90819,-1.06034 46.33374,-2.137 z"
     inkscape:connector-curvature="0"
     id="path4352"
     style="fill:#ffffff;stroke:#ffffff;stroke-width:2.14026213" />
</svg>
