<?xml version="1.0" encoding="UTF-8" standalone="no"?>
<!-- Created with Inkscape (http://www.inkscape.org/) -->

<svg
   xmlns:dc="http://purl.org/dc/elements/1.1/"
   xmlns:cc="http://creativecommons.org/ns#"
   xmlns:rdf="http://www.w3.org/1999/02/22-rdf-syntax-ns#"
   xmlns:svg="http://www.w3.org/2000/svg"
   xmlns="http://www.w3.org/2000/svg"
   xmlns:sodipodi="http://sodipodi.sourceforge.net/DTD/sodipodi-0.dtd"
   xmlns:inkscape="http://www.inkscape.org/namespaces/inkscape"
   version="1.1"
   width="100%"
   height="100%"
   viewBox="0 0 512 512"
   id="svg2"
   inkscape:version="0.91+devel r13804 custom"
   sodipodi:docname="applications-education-university.svg">
  <sodipodi:namedview
     pagecolor="#ffffff"
     bordercolor="#666666"
     borderopacity="1"
     objecttolerance="10"
     gridtolerance="10"
     guidetolerance="10"
     inkscape:pageopacity="0"
     inkscape:pageshadow="2"
     inkscape:window-width="1366"
     inkscape:window-height="709"
     id="namedview96"
     showgrid="false"
     inkscape:zoom="0.4609375"
     inkscape:cx="169.22034"
     inkscape:cy="235.38983"
     inkscape:window-x="-2"
     inkscape:window-y="-3"
     inkscape:window-maximized="1"
     inkscape:current-layer="svg2" />
  <metadata
     id="metadata10">
    <rdf:RDF>
      <cc:Work
         rdf:about="">
        <dc:format>image/svg+xml</dc:format>
        <dc:type
           rdf:resource="http://purl.org/dc/dcmitype/StillImage" />
        <dc:title></dc:title>
      </cc:Work>
    </rdf:RDF>
  </metadata>
  <defs
     id="defs8">
    <clipPath
       id="clipPath13986">
      <path
         style="fill:#666666;fill-opacity:1;stroke:none"
         id="path13988"
         inkscape:connector-curvature="0"
         d="M 26,0 C 11.602648,0 0,11.602648 0,26 l 0,460 c 0,14.39735 11.602648,26 26,26 l 460,0 c 14.39735,0 26,-11.60265 26,-26 L 512,26 C 512,11.602648 500.39735,0 486,0 L 26,0 z" />
    </clipPath>
  </defs>
  <path
     d="M 26,0 C 11.602648,0 0,11.602648 0,26 l 0,460 c 0,14.39735 11.602648,26 26,26 l 460,0 c 14.39735,0 26,-11.60265 26,-26 L 512,26 C 512,11.602648 500.39735,0 486,0 L 26,0 Z"
     inkscape:connector-curvature="0"
     id="rect2986"
     style="fill:#666666;fill-opacity:1;stroke:none" />
  <path
     style="fill:#000000;fill-rule:evenodd;opacity:0.25"
     d="M 255.71875 41.6875 L 41 139.9375 L 41 156.5625 L 107.125 222.6875 L 107.125 388.09375 L 94.25 388.09375 C 83.287143 388.09375 74.46875 393.97072 74.46875 401.28125 L 74.46875 404.40625 L 74.46875 406.34375 L 74.46875 421.625 L 89.59375 436.75 L 65.0625 436.75 C 52.129519 436.75 41.75 442.65822 41.75 449.96875 L 41.75 453.09375 L 41.75 455.03125 L 41.75 470.3125 L 83.4375 512 L 486 512 C 500.39735 512 512 500.39735 512 486 L 512 181.15625 L 470.8125 139.96875 L 255.71875 41.6875 z "
     id="path15956" />
  <path
     d="M 255.71875,41.6875 41,139.9375 l 0,16.625 33.5625,0 c -0.07219,0.53639 -0.125,1.10391 -0.125,1.65625 0,8.54952 8.88967,15.40625 19.90625,15.40625 l 323.1875,0 c 11.01322,0 19.875,-6.85673 19.875,-15.40625 0,-0.5515 -0.0215,-1.11902 -0.0937,-1.65625 l 33.5,0 0,-16.59375 L 255.71875,41.6875 Z M 107.125,188.34375 l 0,199.75 -12.875,0 c -10.962857,0 -19.78125,5.87697 -19.78125,13.1875 l 0,3.125 0,1.9375 0,15.28125 363.78125,0 0,-15.28125 0,-1.9375 0,-3.125 c 0,-7.30885 -8.82007,-13.1875 -19.78125,-13.1875 l -12.9375,0 0,-199.75 -49.9375,0 0,199.75 -33.5625,0 0,-199.75 -49.96875,0 0,199.75 -32.71875,0 0,-199.75 -49.9375,0 0,199.75 -32.34375,0 0,-199.75 -49.9375,0 z M 65.0625,436.75 c -12.932981,0 -23.3125,5.90822 -23.3125,13.21875 l 0,3.125 0,1.9375 0,15.28125 429.25,0 0,-15.28125 0,-1.9375 0,-3.125 C 471,442.6599 460.58923,436.75 447.65625,436.75 l -382.59375,0 z"
     inkscape:connector-curvature="0"
     id="path15808"
     style="fill:#ffffff;fill-rule:evenodd" />
</svg>
