<?xml version="1.0" encoding="UTF-8" standalone="no"?>
<!-- Created with Inkscape (http://www.inkscape.org/) -->

<svg
   xmlns:dc="http://purl.org/dc/elements/1.1/"
   xmlns:cc="http://creativecommons.org/ns#"
   xmlns:rdf="http://www.w3.org/1999/02/22-rdf-syntax-ns#"
   xmlns:svg="http://www.w3.org/2000/svg"
   xmlns="http://www.w3.org/2000/svg"
   xmlns:sodipodi="http://sodipodi.sourceforge.net/DTD/sodipodi-0.dtd"
   xmlns:inkscape="http://www.inkscape.org/namespaces/inkscape"
   version="1.1"
   width="100%"
   height="100%"
   viewBox="0 0 512 512"
   id="svg2"
   inkscape:version="0.91+devel r13804 custom"
   sodipodi:docname="applications-haskell.svg">
  <sodipodi:namedview
     pagecolor="#ffffff"
     bordercolor="#666666"
     borderopacity="1"
     objecttolerance="10"
     gridtolerance="10"
     guidetolerance="10"
     inkscape:pageopacity="0"
     inkscape:pageshadow="2"
     inkscape:window-width="1366"
     inkscape:window-height="709"
     id="namedview97"
     showgrid="false"
     inkscape:zoom="0.4609375"
     inkscape:cx="-8.6779661"
     inkscape:cy="237.55932"
     inkscape:window-x="-2"
     inkscape:window-y="-3"
     inkscape:window-maximized="1"
     inkscape:current-layer="svg2" />
  <metadata
     id="metadata10">
    <rdf:RDF>
      <cc:Work
         rdf:about="">
        <dc:format>image/svg+xml</dc:format>
        <dc:type
           rdf:resource="http://purl.org/dc/dcmitype/StillImage" />
        <dc:title></dc:title>
      </cc:Work>
    </rdf:RDF>
  </metadata>
  <defs
     id="defs8" />
  <path
     d="M 26,0 C 11.602648,0 0,11.602648 0,26 l 0,460 c 0,14.39735 11.602648,26 26,26 l 460,0 c 14.39735,0 26,-11.60265 26,-26 L 512,26 C 512,11.602648 500.39735,0 486,0 L 26,0 Z"
     inkscape:connector-curvature="0"
     id="rect2986"
     style="fill:#666666;fill-opacity:1;stroke:none" />
  <path
     style="fill:#000000;opacity:0.25"
     d="M 41 104.25 L 142.15625 256 L 41 407.75 L 145.25 512 L 486 512 C 500.39735 512 512 500.39735 512 486 L 512 233.8125 L 471 192.8125 L 306.59375 192.8125 L 218.03125 104.25 L 142.15625 104.25 L 192.70312 180.07812 L 116.875 104.25 L 41 104.25 z "
     id="path5890" />
  <path
     d="M 41,104.25 142.15625,256 41,407.75 l 75.875,0 L 218.03125,256 116.875,104.25 41,104.25 Z m 101.15625,0 L 243.3125,256 142.15625,407.75 l 75.875,0 63.25,-94.8125 63.25,94.8125 75.90625,0 -202.40625,-303.5 -75.875,0 z m 160.25,88.5625 33.71875,50.59375 134.875,0 0,-50.59375 -168.59375,0 z m 168.5625,75.8125 -118.03125,0.0625 33.71875,50.5625 84.3125,0 0,-50.625 z"
     inkscape:connector-curvature="0"
     id="path5725"
     style="fill:#ffffff" />
</svg>
