<?xml version="1.0" encoding="UTF-8" standalone="no"?>
<svg
   xmlns:dc="http://purl.org/dc/elements/1.1/"
   xmlns:cc="http://creativecommons.org/ns#"
   xmlns:rdf="http://www.w3.org/1999/02/22-rdf-syntax-ns#"
   xmlns:svg="http://www.w3.org/2000/svg"
   xmlns="http://www.w3.org/2000/svg"
   xmlns:xlink="http://www.w3.org/1999/xlink"
   xmlns:sodipodi="http://sodipodi.sourceforge.net/DTD/sodipodi-0.dtd"
   xmlns:inkscape="http://www.inkscape.org/namespaces/inkscape"
   version="1.1"
   id="svg2"
   viewBox="0 0 512 512"
   inkscape:version="0.91 r13725"
   sodipodi:docname="folder-ursa.svg">
  <sodipodi:namedview
     pagecolor="#ffffff"
     bordercolor="#666666"
     borderopacity="1"
     objecttolerance="10"
     gridtolerance="10"
     guidetolerance="10"
     inkscape:pageopacity="0"
     inkscape:pageshadow="2"
     inkscape:window-width="1366"
     inkscape:window-height="710"
     id="namedview19"
     showgrid="false"
     inkscape:zoom="0.4609375"
     inkscape:cx="119.59953"
     inkscape:cy="158.84817"
     inkscape:window-x="-2"
     inkscape:window-y="-3"
     inkscape:window-maximized="1"
     inkscape:current-layer="svg2" />
  <metadata
     id="metadata2614">
    <rdf:RDF>
      <cc:Work
         rdf:about="">
        <dc:format>image/svg+xml</dc:format>
        <dc:type
           rdf:resource="http://purl.org/dc/dcmitype/StillImage" />
      </cc:Work>
    </rdf:RDF>
  </metadata>
  <defs
     id="defs4">
    <linearGradient
       gradientTransform="scale(1.0058652,0.994169)"
       gradientUnits="userSpaceOnUse"
       id="ButtonShadow-1"
       y2="7.0165396"
       x2="45.447727"
       y1="92.539597"
       x1="45.447727">
      <stop
         offset="0"
         style="stop-color:#000000;stop-opacity:1"
         id="stop3750-3" />
      <stop
         offset="1"
         style="stop-color:#000000;stop-opacity:0.58823532"
         id="stop3752-7" />
    </linearGradient>
    <filter
       id="filter3174-0"
       color-interpolation-filters="sRGB">
      <feGaussianBlur
         stdDeviation="1.71"
         id="feGaussianBlur3176-9" />
    </filter>
    <linearGradient
       inkscape:collect="always"
       xlink:href="#ButtonShadow-1"
       id="linearGradient4544"
       gradientUnits="userSpaceOnUse"
       gradientTransform="scale(1.0058652,0.994169)"
       x1="45.447727"
       y1="92.539597"
       x2="45.447727"
       y2="7.0165396" />
    <filter
       id="filter3174"
       color-interpolation-filters="sRGB">
      <feGaussianBlur
         stdDeviation="1.71"
         id="feGaussianBlur3176" />
    </filter>
    <filter
       color-interpolation-filters="sRGB"
       id="filter3174-0-5">
      <feGaussianBlur
         id="feGaussianBlur3176-9-7"
         stdDeviation="1.71" />
    </filter>
    <filter
       color-interpolation-filters="sRGB"
       id="filter3174-5">
      <feGaussianBlur
         id="feGaussianBlur3176-6"
         stdDeviation="1.71" />
    </filter>
    <linearGradient
       inkscape:collect="always"
       xlink:href="#ButtonShadow-1"
       id="linearGradient4254"
       gradientUnits="userSpaceOnUse"
       gradientTransform="scale(1.0058652,0.994169)"
       x1="45.447727"
       y1="92.539597"
       x2="45.447727"
       y2="7.0165396" />
    <linearGradient
       inkscape:collect="always"
       xlink:href="#ButtonShadow-1"
       id="linearGradient4256"
       gradientUnits="userSpaceOnUse"
       gradientTransform="scale(1.0058652,0.994169)"
       x1="45.447727"
       y1="92.539597"
       x2="45.447727"
       y2="7.0165396" />
    <linearGradient
       inkscape:collect="always"
       xlink:href="#ButtonShadow-1"
       id="linearGradient4258"
       gradientUnits="userSpaceOnUse"
       gradientTransform="scale(1.0058652,0.994169)"
       x1="45.447727"
       y1="92.539597"
       x2="45.447727"
       y2="7.0165396" />
    <linearGradient
       id="1-2-9"
       gradientUnits="userSpaceOnUse"
       y1="121.74"
       x2="0"
       y2="453.23999"
       gradientTransform="translate(0.0012,0.0185)">
      <stop
         id="stop32-0-2"
         style="stop-color:#6a6a6a" />
      <stop
         id="stop34-8-9"
         offset=".47" />
      <stop
         id="stop36-7-7"
         style="stop-color:#fff"
         offset=".494" />
      <stop
         id="stop38-1-0"
         style="stop-color:#fff"
         offset=".901" />
      <stop
         id="stop40-9-4"
         offset=".955" />
      <stop
         id="stop42-4-9"
         offset="1" />
    </linearGradient>
    <linearGradient
       gradientUnits="userSpaceOnUse"
       id="0-7-2-0"
       y2="512.53998"
       x2="0"
       y1="0.107"
       gradientTransform="translate(-10e-4,-7e-7)">
      <stop
         offset="0"
         style="stop-color:#6a6a6a;stop-opacity:1"
         id="stop7-1-7-5" />
      <stop
         offset="0.47"
         style="stop-color:#000000;stop-opacity:1"
         id="stop9-1-8-1" />
      <stop
         offset="0.49399999"
         style="stop-color:#ffffff;stop-opacity:1"
         id="stop11-8-1-9" />
      <stop
         offset="0.90100002"
         style="stop-color:#ffffff;stop-opacity:1"
         id="stop13-1-8-0" />
      <stop
         offset="0.95499998"
         style="stop-color:#000000;stop-opacity:1"
         id="stop15-0-2-2" />
      <stop
         offset="1"
         style="stop-color:#000000;stop-opacity:1"
         id="stop17-9-3-1" />
    </linearGradient>
    <filter
       id="filter3174-0-3"
       color-interpolation-filters="sRGB">
      <feGaussianBlur
         stdDeviation="1.71"
         id="feGaussianBlur3176-9-3" />
    </filter>
    <linearGradient
       inkscape:collect="always"
       xlink:href="#ButtonShadow-1"
       id="linearGradient4233"
       gradientUnits="userSpaceOnUse"
       gradientTransform="scale(1.0058652,0.994169)"
       x1="45.447727"
       y1="92.539597"
       x2="45.447727"
       y2="7.0165396" />
    <filter
       id="filter3174-1"
       color-interpolation-filters="sRGB">
      <feGaussianBlur
         stdDeviation="1.71"
         id="feGaussianBlur3176-09" />
    </filter>
    <linearGradient
       id="linearGradient6021">
      <stop
         id="stop6023"
         offset="0"
         style="stop-color:#68af4c;stop-opacity:1;" />
      <stop
         id="stop6025"
         offset="1"
         style="stop-color:#8bd76d;stop-opacity:1;" />
    </linearGradient>
    <filter
       color-interpolation-filters="sRGB"
       id="filter3174-0-5-6">
      <feGaussianBlur
         id="feGaussianBlur3176-9-7-0"
         stdDeviation="1.71" />
    </filter>
    <filter
       color-interpolation-filters="sRGB"
       id="filter3174-5-3">
      <feGaussianBlur
         id="feGaussianBlur3176-6-6"
         stdDeviation="1.71" />
    </filter>
    <clipPath
       clipPathUnits="userSpaceOnUse"
       id="clipPath4145-0">
      <path
         inkscape:connector-curvature="0"
         style="fill:#cd1d31;fill-opacity:1;stroke:none"
         d="m -763.36054,-555.94587 c -14.39735,0 -26,-11.60265 -26,-26 l 0,-460.00003 c 0,-14.3973 11.60265,-26 26,-26 l 460,0 c 14.39735,0 26.00001,11.6027 26.00001,26 l 0,460.00003 c 0,14.39735 -11.60266,26 -26.00001,26 l -460,0 z"
         id="path4147-6" />
    </clipPath>
    <filter
       color-interpolation-filters="sRGB"
       id="filter3174-0-2">
      <feGaussianBlur
         id="feGaussianBlur3176-9-9"
         stdDeviation="1.71" />
    </filter>
    <filter
       color-interpolation-filters="sRGB"
       id="filter3174-7">
      <feGaussianBlur
         id="feGaussianBlur3176-0"
         stdDeviation="1.71" />
    </filter>
    <clipPath
       id="clipPath5189-0"
       clipPathUnits="userSpaceOnUse">
      <circle
         r="282.84271"
         cy="-486.0307"
         cx="1587.9598"
         transform="matrix(1.2904699,0,0,1.2904699,-73.355976,1513.9051)"
         id="path5191-1"
         style="color:#000000;display:inline;overflow:visible;visibility:visible;fill:#68af4c;fill-opacity:1;fill-rule:nonzero;stroke:none;stroke-width:1px;marker:none;enable-background:accumulate" />
    </clipPath>
    <linearGradient
       y2="7.0165396"
       x2="45.447727"
       y1="92.539597"
       x1="45.447727"
       gradientTransform="scale(1.0058652,0.994169)"
       gradientUnits="userSpaceOnUse"
       id="linearGradient4234"
       xlink:href="#ButtonShadow-1"
       inkscape:collect="always" />
    <linearGradient
       y2="7.0165396"
       x2="45.447727"
       y1="92.539597"
       x1="45.447727"
       gradientTransform="scale(1.0058652,0.994169)"
       gradientUnits="userSpaceOnUse"
       id="linearGradient4236"
       xlink:href="#ButtonShadow-1"
       inkscape:collect="always" />
    <linearGradient
       y2="7.0165396"
       x2="45.447727"
       y1="92.539597"
       x1="45.447727"
       gradientTransform="scale(1.0058652,0.994169)"
       gradientUnits="userSpaceOnUse"
       id="linearGradient4238"
       xlink:href="#ButtonShadow-1"
       inkscape:collect="always" />
    <linearGradient
       gradientTransform="translate(310.23679,104.13559)"
       gradientUnits="userSpaceOnUse"
       id="0-7-2-0-5"
       y2="512.53998"
       x2="0"
       y1="0.107">
      <stop
         offset="0"
         style="stop-color:#6a6a6a;stop-opacity:1"
         id="stop7-1-7-5-0" />
      <stop
         offset="0.47"
         style="stop-color:#000000;stop-opacity:1"
         id="stop9-1-8-1-1" />
      <stop
         offset="0.49399999"
         style="stop-color:#ffffff;stop-opacity:1"
         id="stop11-8-1-9-2" />
      <stop
         offset="0.90100002"
         style="stop-color:#ffffff;stop-opacity:1"
         id="stop13-1-8-0-7" />
      <stop
         offset="0.95499998"
         style="stop-color:#000000;stop-opacity:1"
         id="stop15-0-2-2-3" />
      <stop
         offset="1"
         style="stop-color:#000000;stop-opacity:1"
         id="stop17-9-3-1-0" />
    </linearGradient>
    <linearGradient
       inkscape:collect="always"
       xlink:href="#ButtonShadow-1"
       id="linearGradient4276"
       gradientUnits="userSpaceOnUse"
       gradientTransform="scale(1.0058652,0.994169)"
       x1="45.447727"
       y1="92.539597"
       x2="45.447727"
       y2="7.0165396" />
  </defs>
  <g
     transform="matrix(2.7684455,0,0,2.7684455,-212.34558,-544.74501)"
     style="display:none"
     id="layer2">
    <rect
       style="opacity:0.9;fill:url(#linearGradient4254);fill-opacity:1;fill-rule:nonzero;stroke:none;filter:url(#filter3174)"
       id="rect3745"
       y="7"
       x="5"
       ry="6"
       rx="6"
       height="85"
       width="86" />
  </g>
  <g
     transform="matrix(4.2320146,0,0,4.2320146,-290.11458,-529.87792)"
     style="display:none"
     id="layer2-0">
    <rect
       style="opacity:0.9;fill:url(#linearGradient4256);fill-opacity:1;fill-rule:nonzero;stroke:none;filter:url(#filter3174-0)"
       id="rect3745-1"
       y="7"
       x="5"
       ry="6"
       rx="6"
       height="85"
       width="86" />
  </g>
  <g
     transform="matrix(2.7684455,0,0,2.7684455,-777.45229,-662.50146)"
     style="display:none"
     id="layer2-6">
    <rect
       style="opacity:0.9;fill:url(#linearGradient4258);fill-opacity:1;fill-rule:nonzero;stroke:none;filter:url(#filter3174-5)"
       id="rect3745-9"
       y="7"
       x="5"
       ry="6"
       rx="6"
       height="85"
       width="86" />
  </g>
  <g
     transform="matrix(4.2320146,0,0,4.2320146,-855.22129,-647.63437)"
     style="display:none"
     id="layer2-0-5">
    <rect
       style="opacity:0.9;fill:url(#linearGradient4544);fill-opacity:1;fill-rule:nonzero;stroke:none;filter:url(#filter3174-0-5)"
       id="rect3745-1-2"
       y="7"
       x="5"
       ry="6"
       rx="6"
       height="85"
       width="86" />
  </g>
  <path
     inkscape:connector-curvature="0"
     d="m 108.6312,57.3885 c -7.963,0 -15.228,2.293 -20.693,6.22 -4.545,3.266 -7.751,7.872 -8.752,13.13 l -11.909,0 c -16.447,0 -29.883,13.03 -29.883,29.2 l 0,66.736 c 0,16.17 13.436,29.19 29.883,29.19 l 377.47,0 c 16.447,0 29.883,-13.03 29.883,-29.19 l 0,-66.736 c 0,-16.17 -13.436,-29.2 -29.883,-29.2 l -262.91,0 c -1,-5.256 -4.208,-9.862 -8.753,-13.13 -5.465,-3.927 -12.73,-6.22 -20.693,-6.22 l -43.761,0"
     style="fill:#cccccc;fill-rule:evenodd"
     id="path142" />
  <path
     inkscape:connector-curvature="0"
     d="m 37.3612,118.4785 c -19.928,0 -38.06,15.818 -36.23,35.853 l 24.26,265.41 c 1.733,18.966 16.271,34.947 36.2,34.947 l 383.41,0 c 19.933,0 34.1,-16.05 36.2,-34.853 l 29.632,-265.41 c 1.123,-10.05 -3.137,-19.263 -9.971,-25.663 -6.833,-6.399 -16.258,-10.284 -26.22,-10.284 l -437.27,0"
     style="fill:#b59a6e;fill-rule:evenodd"
     id="path144" />
  <path
     inkscape:connector-curvature="0"
     id="path146"
     style="opacity:0.05;fill:url(#1-2-9)"
     d="m 37.3612,118.4685 c -19.928,0 -38.08,15.84 -36.25,35.875 l 11.781,128.78 12.469,136.63 c 1.733,18.966 16.29,34.938 36.22,34.938 l 383.41,0 c 19.933,0 34.09,-16.04 36.19,-34.844 l 15.281,-136.72 14.375,-128.69 c 1.123,-10.05 -3.135,-19.287 -9.969,-25.688 -6.833,-6.399 -16.257,-10.281 -26.22,-10.281 l -437.28,0" />
  <path
     inkscape:connector-curvature="0"
     d="m 108.5512,57.3085 c -7.963,0 -15.11,2.403 -20.572,6.33 -4.545,3.266 -7.702,7.931 -8.703,13.187 l -12.13,0 c -17.677,0 -29.802,12.771 -29.802,30.661 l 0,3.956 c 0,-16.17 13.355,-29.27 29.802,-29.27 l 14.286,0 c 1,-5.256 2,-9.657 6.549,-12.923 5.465,-3.927 12.609,-6.33 20.572,-6.33 l 43.78,0 c 7.963,0 15.371,2.403 20.835,6.33 4.545,3.266 5.766,7.668 6.769,12.923 l 264.88,0 c 16.447,0 29.802,11.455 29.802,27.625 l 0,-3.956 c 0,-16.17 -13.355,-29.01 -29.802,-29.01 l -262.95,0 c -1,-5.256 -4.159,-9.921 -8.703,-13.187 -5.465,-3.927 -12.872,-6.33 -20.835,-6.33 z"
     style="opacity:0.76399997;fill:#ffffff;fill-rule:evenodd"
     id="path150" />
  <path
     inkscape:connector-curvature="0"
     d="m 37.3512,118.4685 c -19.928,0 -38.05,15.84 -36.22,35.875 l 0.406,4.375 c 3,-15.936 18.732,-27.563 35.813,-27.563 l 437.28,0 c 9.966,0 19.386,3.882 26.22,10.281 4.736,4.435 8.234,10.208 9.563,16.688 l 0.406,-3.688 c 1.123,-10.05 -3.134,-19.288 -9.969,-25.688 -6.833,-6.399 -16.252,-10.281 -26.22,-10.281 l -437.28,0"
     style="opacity:0.4;fill:#ffffff;fill-rule:evenodd"
     id="path152" />
  <path
     style="color:#000000;visibility:visible;opacity:0.25;fill:#000000;fill-opacity:1;fill-rule:nonzero;stroke:none;stroke-width:1px;stroke-linecap:butt;stroke-linejoin:miter;stroke-opacity:1;marker:none"
     d="M 129.2207 161.5293 L 129.2207 369.0332 L 136.39062 376.20312 L 123.55273 383.60547 L 193.68164 454.69141 L 444.99023 454.69141 C 464.92323 454.69141 479.08164 438.65166 481.18164 419.84766 L 496.46289 283.12695 L 498.70312 263.07812 L 383.27344 161.5293 L 129.2207 161.5293 z "
     id="path5914" />
  <path
     style="color:#000000;display:inline;overflow:visible;visibility:visible;fill:#ffffff;fill-opacity:1;fill-rule:nonzero;stroke:none;stroke-width:1px;stroke-linecap:butt;stroke-linejoin:miter;stroke-opacity:1;marker:none;enable-background:accumulate"
     d="M 129.47852 161.5293 L 129.47852 368.62109 L 176.65039 341.42969 L 176.65039 208.70117 L 335.85156 208.70117 L 335.85156 341.08789 L 383.02344 368.76953 L 383.02344 161.5293 L 129.47852 161.5293 z M 257.04883 306.36523 L 123.82031 383.16406 C 140.66521 392.88943 156.51664 402.12112 172.83203 411.54102 L 256.87109 363.15039 L 339.25781 411.63086 C 355.53686 402.15161 371.86994 392.73812 388.17969 383.31055 L 257.04883 306.36523 z "
     id="path4341" />
  <g
     transform="matrix(2.7684455,0,0,2.7684455,-461.8371,-223.66027)"
     style="display:none"
     id="layer2-04">
    <rect
       style="opacity:0.9;fill:url(#linearGradient4234);fill-opacity:1;fill-rule:nonzero;stroke:none;filter:url(#filter3174-1)"
       id="rect3745-7"
       y="7"
       x="5"
       ry="6"
       rx="6"
       height="85"
       width="86" />
  </g>
  <g
     transform="matrix(4.2320146,0,0,4.2320146,-539.6061,-208.79318)"
     style="display:none"
     id="layer2-0-53">
    <rect
       style="opacity:0.9;fill:url(#linearGradient4236);fill-opacity:1;fill-rule:nonzero;stroke:none;filter:url(#filter3174-0-3)"
       id="rect3745-1-3"
       y="7"
       x="5"
       ry="6"
       rx="6"
       height="85"
       width="86" />
  </g>
  <g
     transform="matrix(2.7684455,0,0,2.7684455,-1026.9438,-341.41672)"
     style="display:none"
     id="layer2-6-4">
    <rect
       style="opacity:0.9;fill:url(#linearGradient4238);fill-opacity:1;fill-rule:nonzero;stroke:none;filter:url(#filter3174-5-3)"
       id="rect3745-9-6"
       y="7"
       x="5"
       ry="6"
       rx="6"
       height="85"
       width="86" />
  </g>
  <g
     transform="matrix(4.2320146,0,0,4.2320146,-1104.7128,-326.54963)"
     style="display:none"
     id="layer2-0-5-7">
    <rect
       style="opacity:0.9;fill:url(#linearGradient4276);fill-opacity:1;fill-rule:nonzero;stroke:none;filter:url(#filter3174-0-5-6)"
       id="rect3745-1-2-5"
       y="7"
       x="5"
       ry="6"
       rx="6"
       height="85"
       width="86" />
  </g>
</svg>
