<?xml version="1.0" encoding="UTF-8" standalone="no"?>
<svg
   xmlns:dc="http://purl.org/dc/elements/1.1/"
   xmlns:cc="http://creativecommons.org/ns#"
   xmlns:rdf="http://www.w3.org/1999/02/22-rdf-syntax-ns#"
   xmlns:svg="http://www.w3.org/2000/svg"
   xmlns="http://www.w3.org/2000/svg"
   xmlns:sodipodi="http://sodipodi.sourceforge.net/DTD/sodipodi-0.dtd"
   xmlns:inkscape="http://www.inkscape.org/namespaces/inkscape"
   version="1.1"
   width="100%"
   height="100%"
   viewBox="0 0 512 512"
   id="svg2"
   inkscape:version="0.91 r13725"
   sodipodi:docname="document-open-recent.svg">
  <sodipodi:namedview
     pagecolor="#ffffff"
     bordercolor="#666666"
     borderopacity="1"
     objecttolerance="10"
     gridtolerance="10"
     guidetolerance="10"
     inkscape:pageopacity="0"
     inkscape:pageshadow="2"
     inkscape:window-width="640"
     inkscape:window-height="480"
     id="namedview16"
     showgrid="false"
     inkscape:zoom="0.5546875"
     inkscape:cx="36.056338"
     inkscape:cy="240.67606"
     inkscape:current-layer="svg2" />
  <metadata
     id="metadata2181">
    <rdf:RDF>
      <cc:Work
         rdf:about="">
        <dc:format>image/svg+xml</dc:format>
        <dc:type
           rdf:resource="http://purl.org/dc/dcmitype/StillImage" />
      </cc:Work>
    </rdf:RDF>
  </metadata>
  <defs
     id="defs4">
    <linearGradient
       y1="0.107"
       x2="0"
       y2="512.53998"
       id="0-5"
       gradientUnits="userSpaceOnUse">
      <stop
         id="stop7-6"
         style="stop-color:#6a6a6a;stop-opacity:1"
         offset="0" />
      <stop
         id="stop9-7"
         style="stop-color:#000000;stop-opacity:1"
         offset="0.47" />
      <stop
         id="stop11-0"
         style="stop-color:#ffffff;stop-opacity:1"
         offset="0.49399999" />
      <stop
         id="stop13-0"
         style="stop-color:#ffffff;stop-opacity:1"
         offset="0.90100002" />
      <stop
         id="stop15-3"
         style="stop-color:#000000;stop-opacity:1"
         offset="0.95499998" />
      <stop
         id="stop17-5"
         style="stop-color:#000000;stop-opacity:1"
         offset="1" />
    </linearGradient>
  </defs>
  <path
     d="M 256,41 C 137.27,41 41,137.27 41,256 41,374.73 137.27,471 256,471 374.73,471 471,374.73 471,256 471,137.27 374.73,41 256,41 m 0,47.03 c 92.99,0 167.97,74.981 167.97,167.97 0,92.99 -74.981,167.97 -167.97,167.97 C 163.01,423.97 88.03,348.989 88.03,256 88.03,163.01 163.011,88.03 256,88.03 m -4.406,46.625 c -9.298,0 -16.813,8.124 -16.813,18.219 l 0,130.38 c -0.065,0.648 -0.125,1.3 -0.125,1.969 0,9.298 6.459,16.781 14.469,16.781 l 1.313,0 c 0.377,0.027 0.772,0.063 1.156,0.063 0.391,0 0.772,-0.034 1.156,-0.063 l 100.31,0 c 8.01,0 14.469,-7.483 14.469,-16.781 0,-9.298 -6.459,-16.781 -14.469,-16.781 l -84.69,0 0,-115.56 c 0,-10.09 -7.483,-18.219 -16.781,-18.219"
     id="path2177"
     style="fill:#666666" />
</svg>
