<?xml version="1.0" encoding="UTF-8" standalone="no"?>
<svg
   xmlns:dc="http://purl.org/dc/elements/1.1/"
   xmlns:cc="http://creativecommons.org/ns#"
   xmlns:rdf="http://www.w3.org/1999/02/22-rdf-syntax-ns#"
   xmlns:svg="http://www.w3.org/2000/svg"
   xmlns="http://www.w3.org/2000/svg"
   xmlns:sodipodi="http://sodipodi.sourceforge.net/DTD/sodipodi-0.dtd"
   xmlns:inkscape="http://www.inkscape.org/namespaces/inkscape"
   viewBox="0 0 512 512"
   id="svg2"
   version="1.1"
   inkscape:version="0.91 r13725"
   sodipodi:docname="clipgrab.svg">
  <metadata
     id="metadata7777">
    <rdf:RDF>
      <cc:Work
         rdf:about="">
        <dc:format>image/svg+xml</dc:format>
        <dc:type
           rdf:resource="http://purl.org/dc/dcmitype/StillImage" />
      </cc:Work>
    </rdf:RDF>
  </metadata>
  <sodipodi:namedview
     pagecolor="#ffffff"
     bordercolor="#666666"
     borderopacity="1"
     objecttolerance="10"
     gridtolerance="10"
     guidetolerance="10"
     inkscape:pageopacity="0"
     inkscape:pageshadow="2"
     inkscape:window-width="1366"
     inkscape:window-height="709"
     id="namedview7775"
     showgrid="false"
     inkscape:zoom="0.4609375"
     inkscape:cx="-273.35593"
     inkscape:cy="219.11864"
     inkscape:window-x="-2"
     inkscape:window-y="-3"
     inkscape:window-maximized="1"
     inkscape:current-layer="svg2" />
  <defs
     id="defs4">
    <linearGradient
       id="0"
       y2="15.07"
       gradientUnits="userSpaceOnUse"
       y1="499.22"
       x2="362.22"
       x1="66.44"
       gradientTransform="translate(0,-0.0015)">
      <stop
         stop-color="#59cdea"
         offset="0"
         id="stop7" />
      <stop
         stop-color="#00b2de"
         offset=".084"
         id="stop9" />
      <stop
         stop-color="#5bcdea"
         offset=".501"
         id="stop11" />
      <stop
         stop-color="#21bce2"
         offset=".866"
         id="stop13" />
      <stop
         stop-color="#18a7ca"
         offset="1"
         id="stop15" />
    </linearGradient>
  </defs>
  <path
     inkscape:connector-curvature="0"
     style="fill:#666666"
     d="m 26,-0.0015 c -14.397,0 -26,11.603 -26,26 l 0,460 c 0,14.397 11.603,26 26,26 l 460,0 c 14.397,0 26,-11.603 26,-26 l 0,-460 c 0,-14.397 -11.603,-26 -26,-26 l -460,0"
     id="path7337" />
  <g
     id="g7769"
     transform="translate(0,-0.0015)">
    <path
       style="opacity:0.25"
       inkscape:connector-curvature="0"
       d="m 0,79.37 c 0.014,0.018 0.027,0.035 0.041,0.053 L 0,79.382 l 0,53.75 c 8.522,9.701 17.227,18.99 26.11,27.871 l 351,351 108.89,0 c 14.397,0 26,-11.603 26,-26 l 0,-225.91 c -103.25,23.05 -201.53,19.602 -290.41,-12.562 l 0,0.002 C 180.879,232.801 142.02,212.037 105.46,184.832 L 0,79.372"
       id="path7771" />
    <path
       style="fill:#ffffff"
       inkscape:connector-curvature="0"
       d="m 0,79.38 0,53.75 c 61.43,69.929 132.41,118.51 209.94,146.56 93.58,33.863 196.08,37.769 302.06,15.344 l 0,-34.938 C 408.75,283.146 310.47,279.697 221.59,247.533 138.8,217.572 63.64,162.663 0,79.373"
       id="path7773" />
  </g>
</svg>
