<?xml version="1.0" encoding="UTF-8" standalone="no"?>
<!-- Created with Inkscape (http://www.inkscape.org/) -->

<svg
   xmlns:dc="http://purl.org/dc/elements/1.1/"
   xmlns:cc="http://creativecommons.org/ns#"
   xmlns:rdf="http://www.w3.org/1999/02/22-rdf-syntax-ns#"
   xmlns:svg="http://www.w3.org/2000/svg"
   xmlns="http://www.w3.org/2000/svg"
   xmlns:sodipodi="http://sodipodi.sourceforge.net/DTD/sodipodi-0.dtd"
   xmlns:inkscape="http://www.inkscape.org/namespaces/inkscape"
   id="svg2"
   height="100%"
   width="100%"
   version="1.1"
   viewBox="0 0 512 512"
   inkscape:version="0.91 r13725"
   sodipodi:docname="desktop-effects.svg">
  <defs
     id="defs40" />
  <sodipodi:namedview
     pagecolor="#ffffff"
     bordercolor="#666666"
     borderopacity="1"
     objecttolerance="10"
     gridtolerance="10"
     guidetolerance="10"
     inkscape:pageopacity="0"
     inkscape:pageshadow="2"
     inkscape:window-width="640"
     inkscape:window-height="480"
     id="namedview38"
     showgrid="false"
     inkscape:zoom="0.5546875"
     inkscape:cx="-63.098592"
     inkscape:cy="200.11268"
     inkscape:current-layer="svg2" />
  <metadata
     id="metadata80">
    <rdf:RDF>
      <cc:Work
         rdf:about="">
        <dc:format>image/svg+xml</dc:format>
        <dc:type
           rdf:resource="http://purl.org/dc/dcmitype/StillImage" />
      </cc:Work>
    </rdf:RDF>
  </metadata>
  <path
     inkscape:connector-curvature="0"
     style="fill:#666666"
     id="path10"
     d="m 25.9935,-0.0055 c -14.397,0 -26,11.603 -26,26 l 0,460 c 0,14.397 11.603,26 26,26 l 460,0 c 14.397,0 26,-11.603 26,-26 l 0,-460 c 0,-14.397 -11.6,-26 -26,-26 l -460,0" />
  <path
     style="color:#000000;fill:#ffffff;opacity:0.6"
     d="m 70.6235,408.3245 -3.353,-26.28 -26.28,-3.353 26.28,-3.353 3.353,-26.28 3.353,26.28 26.28,3.353 -26.28,3.353 z"
     id="path60"
     inkscape:connector-curvature="0" />
  <path
     style="color:#000000;fill:#ffffff;opacity:0.6"
     d="m 411.7235,196.5945 -6.706,-52.56 -52.56,-6.706 52.56,-6.706 6.706,-52.56 6.706,52.56 52.56,6.706 -52.56,6.706 z"
     id="path62"
     inkscape:connector-curvature="0" />
  <path
     style="color:#000000;fill:#ffffff;opacity:0.6"
     d="m 340.9235,467.1645 -9.579,-75.09 -75.09,-9.579 75.09,-9.579 9.579,-75.09 9.579,75.09 75.09,9.579 -75.09,9.579 z"
     id="path64"
     inkscape:connector-curvature="0" />
  <path
     style="color:#000000;fill:#ffffff;opacity:0.6"
     d="m 355.3035,267.7645 -3.353,-26.28 -26.28,-3.353 26.28,-3.353 3.353,-26.28 3.353,26.28 26.28,3.353 -26.28,3.353 z"
     id="path66"
     inkscape:connector-curvature="0" />
  <path
     style="color:#000000;fill:#ffffff;opacity:0.6"
     d="m 214.4835,129.4945 -4.79,-37.546 -37.546,-4.79 37.546,-4.79 4.79,-37.546 4.79,37.546 37.546,4.79 -37.546,4.79 z"
     id="path68"
     inkscape:connector-curvature="0" />
  <path
     style="color:#000000;fill:#ffffff;opacity:0.6"
     d="m 125.0035,242.6045 -7.663,-60.07 -60.07,-7.663 60.07,-7.663 7.664,-60.07 7.663,60.07 60.07,7.663 -60.07,7.663 z"
     id="path70"
     inkscape:connector-curvature="0" />
  <path
     d="m 329.8735,69.9635 c 4.555,9.249 10.204,17.678 16.563,25.625 l -21.59,-21.594 -36.688,61.25 55.5,55.5 51.781,51.781 c 27.21,28.504 54.06,57.43 83.38,83.38 l 25.281,25.281 1.75,-2.906 c 2.033,1.562 4.095,3.098 6.156,4.625 l 0,-113 -6.844,-6.844 c -27.638,-28.02 -55.39,-55.922 -83.5,-83.47 l -63.09,-63.09 c 15.276,15.467 30.591,30.885 45.906,46.31 -1.83,-1.773 -3.666,-3.544 -5.5,-5.313 -14.269,-14.256 -28.516,-28.528 -42.75,-42.813 -13.288,-7.411 -15.1,-6.21 -10.656,-0.438 -4.412,-4.432 -8.847,-8.84 -13.25,-13.281 5.378,5.614 10.78,11.196 16.188,16.781 2.44,2.731 5.636,5.987 9.313,9.594 0.2,0.206 0.393,0.419 0.594,0.625 l -0.219,0.313 -28.313,-28.313 m -48.28,76.25 -116.91,195.16 55.5,55.5 51.781,51.781 c 20.382,21.353 40.582,42.946 61.75,63.34 l 152.28,0 c 14.397,0 26,-11.603 26,-26 l 0,-125.66 c -5.137,-5.438 -12.834,-12.344 -20.25,-19.06 l -19.438,-19.438 -155.12,-155.12 c -24.12,-14.03 -23.723,-9.898 -15.06,0 l -20.531,-20.5 m -123.47,206.13 -36.594,61.09 26.22,26.22 c -0.388,-0.307 -0.767,-0.632 -1.156,-0.938 -8.377,-8.401 -16.755,-16.813 -25.06,-25.281 6.301,6.933 12.67,13.813 19.06,20.656 -2.813,-2.141 -5.635,-4.263 -8.5,-6.344 -3.869,-3.899 -7.737,-7.808 -11.594,-11.719 3.257,3.495 6.537,6.961 9.813,10.438 -1.504,-1.081 -3.01,-2.156 -4.531,-3.219 l 31.813,31.813 c 0.793,0.82 1.581,1.649 2.375,2.469 -12.143,-12.04 -24.301,-24.08 -36.5,-36.06 16.603,16.521 33.17,33.08 49.719,49.656 13.415,13.712 26.933,27.311 40.5,40.875 l 119.22,0 -139.19,-139.19 c -24.12,-14.01 -23.724,-9.839 -15.06,0.063 l -20.531,-20.531"
     id="path74"
     inkscape:connector-curvature="0"
     style="opacity:0.26;fill-rule:evenodd;fill:#000000" />
  <path
     d="m 329.8635,69.9505 c -2.026,0.697 -3.862,2.07 -5.04,4.04 l -36.671,61.25 c 11.842,6.878 23.728,13.625 35.59,20.457 l 36.711,-61.25 c 0.487,-0.813 0.867,-1.654 1.081,-2.522 -0.632,-2.942 -2.473,-5.607 -5.324,-7.246 l -23.9,-13.731 c -0.785,-0.451 -1.612,-0.748 -2.442,-1 m -48.28,76.26 -116.9,195.16 c 11.865,6.816 23.726,13.639 35.59,20.457 l 116.9,-195.12 c -11.855,-6.848 -23.718,-13.678 -35.59,-20.497 m -123.46,206.13 -36.591,61.09 c -0.493,0.824 -0.826,1.682 -1.041,2.562 0.003,0.013 -0.003,0.028 0,0.04 0.644,2.917 2.452,5.578 5.284,7.206 l 23.9,13.731 c 0.764,0.439 1.551,0.753 2.362,1 2.053,-0.687 3.886,-2.083 5.084,-4.083 l 36.591,-61.09 c -11.832,-6.846 -23.729,-13.628 -35.59,-20.457"
     id="path76"
     inkscape:connector-curvature="0"
     style="fill:#ffffff;fill-rule:evenodd;opacity:1" />
</svg>
