<?xml version="1.0" encoding="UTF-8" standalone="no"?>
<svg
   xmlns:dc="http://purl.org/dc/elements/1.1/"
   xmlns:cc="http://creativecommons.org/ns#"
   xmlns:rdf="http://www.w3.org/1999/02/22-rdf-syntax-ns#"
   xmlns:svg="http://www.w3.org/2000/svg"
   xmlns="http://www.w3.org/2000/svg"
   xmlns:sodipodi="http://sodipodi.sourceforge.net/DTD/sodipodi-0.dtd"
   xmlns:inkscape="http://www.inkscape.org/namespaces/inkscape"
   viewBox="0 0 512 512"
   id="svg2"
   version="1.1"
   inkscape:version="0.91 r13725"
   sodipodi:docname="expoblending.svg">
  <metadata
     id="metadata6215">
    <rdf:RDF>
      <cc:Work
         rdf:about="">
        <dc:format>image/svg+xml</dc:format>
        <dc:type
           rdf:resource="http://purl.org/dc/dcmitype/StillImage" />
      </cc:Work>
    </rdf:RDF>
  </metadata>
  <sodipodi:namedview
     pagecolor="#ffffff"
     bordercolor="#666666"
     borderopacity="1"
     objecttolerance="10"
     gridtolerance="10"
     guidetolerance="10"
     inkscape:pageopacity="0"
     inkscape:pageshadow="2"
     inkscape:window-width="1366"
     inkscape:window-height="709"
     id="namedview6213"
     showgrid="false"
     inkscape:zoom="0.4609375"
     inkscape:cx="-273.35593"
     inkscape:cy="219.11864"
     inkscape:window-x="-2"
     inkscape:window-y="-3"
     inkscape:window-maximized="1"
     inkscape:current-layer="svg2" />
  <defs
     id="defs4">
    <radialGradient
       id="0"
       cx="160.89"
       gradientUnits="userSpaceOnUse"
       cy="151.68"
       r="256"
       gradientTransform="matrix(1.21157-.43238.56803 1.59168-120.2-20.18)">
      <stop
         stop-color="#46b546"
         offset="0"
         id="stop7" />
      <stop
         stop-color="#009587"
         offset="1"
         id="stop9" />
    </radialGradient>
    <radialGradient
       id="0-8"
       cx="160.89"
       gradientUnits="userSpaceOnUse"
       cy="151.67999"
       r="256"
       gradientTransform="matrix(1.21157,-0.43238,0.56803,1.59168,-120.2005,-20.181)">
      <stop
         stop-color="#46b546"
         offset="0"
         id="stop7-3" />
      <stop
         stop-color="#009587"
         offset="1"
         id="stop9-2" />
    </radialGradient>
  </defs>
  <path
     inkscape:connector-curvature="0"
     style="fill:#666666"
     d="m 25.9995,-0.001 c -14.397,0 -26,11.603 -26,26 l 0,460 c 0,14.397 11.603,26 26,26 l 460,0 c 14.397,0 26,-11.603 26,-26 l 0,-460 c 0,-14.397 -11.603,-26 -26,-26 l -460,0"
     id="path3135" />
  <path
     inkscape:connector-curvature="0"
     style="opacity:0.25"
     d="m 166.3695,94.019 c -31.818,0 -58.12,25.607 -58.12,57.46 0,15.928 6.565,30.458 17.11,41.01 l 105.56,105.56 c -3.49,3.834 -7.04,7.45 -10.701,10.729 l -0.006,-0.006 c -7.877,6.306 -13.627,10.03 -18.75,10.23 l -34.14,-34.14 c -10.706,-10.706 -20.985,-17.1 -30.689,-19.732 l 152.85,152.85 -0.004,0 -152.85,-152.85 c -17.12,-4.642 -32.628,3.088 -45.45,17.11 -25.65,28.04 -42.25,82.6 -49.48,131.87 l -0.699,3.867 0.004,0.004 -0.004,0 94.02,94.02 350.98,0 c 14.397,0 26,-11.603 26,-26 l 0,-130.92 -124.51,-124.51 c 0.074,0.074 0.145,0.152 0.219,0.227 l -0.223,-0.223 c -0.46,-0.46 -0.923,-0.911 -1.389,-1.357 l -0.002,-0.002 c -12.729,-12.173 -28.14,-19.246 -46.809,-19.498 l 86.65,86.65 c 0.002,0.005 0.004,0.009 0.006,0.014 l -86.66,-86.65 -0.041,0 c -0.861,-0.015 -1.741,-0.019 -2.588,0 l -0.002,0 c -8.886,0.202 -17.08,2.256 -24.723,5.656 l -104.28,-104.28 c 0.054,0.054 0.104,0.112 0.158,0.166 l -0.156,-0.156 c -10.567,-10.567 -25.22,-17.1 -41.29,-17.1"
     id="path6209" />
  <path
     inkscape:connector-curvature="0"
     style="fill:#ffffff"
     d="m 166.3695,94.019 c -31.818,0 -58.12,25.606 -58.12,57.46 0,31.858 26.27,58.12 58.12,58.12 31.858,0 58.08,-26.27 58.08,-58.12 0,-31.858 -26.26,-57.46 -58.08,-57.46 m 170.29,115.71 c -26.314,0.598 -46.579,17.398 -64.29,37.472 -18.279,20.725 -33.872,45.21 -52.16,61.58 -15.829,12.672 -23.07,14.907 -33.893,-0.864 -17.605,-25.09 -34.37,-38.62 -49.688,-42.778 -17.12,-4.642 -32.627,3.089 -45.45,17.11 -25.65,28.04 -42.25,82.6 -49.48,131.87 l -0.699,3.866 430,0 -2.02,-4.689 c -19.237,-45.658 -32.587,-95.66 -50.799,-134.96 -9.109,-19.641 -19.359,-36.939 -32.08,-49.11 -12.729,-12.173 -28.14,-19.245 -46.809,-19.497 l -0.041,0 c -0.862,-0.015 -1.743,-0.019 -2.591,0"
     id="path6211" />
</svg>
