<?xml version="1.0" encoding="UTF-8" standalone="no"?>
<svg
   xmlns:dc="http://purl.org/dc/elements/1.1/"
   xmlns:cc="http://creativecommons.org/ns#"
   xmlns:rdf="http://www.w3.org/1999/02/22-rdf-syntax-ns#"
   xmlns:svg="http://www.w3.org/2000/svg"
   xmlns="http://www.w3.org/2000/svg"
   xmlns:xlink="http://www.w3.org/1999/xlink"
   xmlns:sodipodi="http://sodipodi.sourceforge.net/DTD/sodipodi-0.dtd"
   xmlns:inkscape="http://www.inkscape.org/namespaces/inkscape"
   id="svg2"
   height="100%"
   viewBox="0 0 512 512"
   width="100%"
   version="1.1"
   inkscape:version="0.91 r13725"
   sodipodi:docname="gdeb.svg">
  <sodipodi:namedview
     pagecolor="#ffffff"
     bordercolor="#666666"
     borderopacity="1"
     objecttolerance="10"
     gridtolerance="10"
     guidetolerance="10"
     inkscape:pageopacity="0"
     inkscape:pageshadow="2"
     inkscape:window-width="640"
     inkscape:window-height="480"
     id="namedview30"
     showgrid="false"
     inkscape:zoom="0.5546875"
     inkscape:cx="-183.88732"
     inkscape:cy="225.35212"
     inkscape:current-layer="svg2" />
  <metadata
     id="metadata10">
    <rdf:RDF>
      <cc:Work
         rdf:about="">
        <dc:format>image/svg+xml</dc:format>
        <dc:type
           rdf:resource="http://purl.org/dc/dcmitype/StillImage" />
        <dc:title />
      </cc:Work>
    </rdf:RDF>
  </metadata>
  <defs
     id="defs8">
    <linearGradient
       id="linearGradient4216-1">
      <stop
         id="stop4218-0"
         stop-color="#fff"
         offset="0" />
      <stop
         id="stop4220-2"
         stop-color="#e8e8e8"
         offset=".6875" />
      <stop
         id="stop4222-6"
         stop-color="#686868"
         offset=".875" />
      <stop
         id="stop4224-6"
         offset="1" />
    </linearGradient>
    <radialGradient
       id="radialGradient21305"
       xlink:href="#linearGradient4216-1"
       gradientUnits="userSpaceOnUse"
       cy="64"
       cx="64"
       gradientTransform="matrix(4.1658 0 0 3.8875 -39.924 -73.947)"
       r="64" />
    <radialGradient
       id="radialGradient21305-0"
       gradientUnits="userSpaceOnUse"
       xlink:href="#linearGradient4216-1"
       cx="64"
       cy="64"
       r="64"
       gradientTransform="matrix(4.1658 0 0 3.8875 1383.5 -189.35)" />
    <linearGradient
       id="linearGradient11309"
       y2="4.4138"
       gradientUnits="userSpaceOnUse"
       x2="291.1"
       y1="513.72"
       x1="291.1">
      <stop
         id="stop35724"
         stop-color="#cd1d31"
         offset="0" />
      <stop
         id="stop35726"
         stop-color="#e38045"
         offset="1" />
    </linearGradient>
  </defs>
  <path
     id="path4230"
     d="m273.04 165.47c-2.1202 7.3447-36.402 181.33-29.267 189.98 6.1765 7.4828 15.826 4.2405 17.946-3.1042-2.1202 7.3447-6.3607 22.034-8.4809 29.379-17.946 3.1042-33.92-0.81668-37.444-17.946-4.0713-19.793 27.134-182.59 29.267-189.98-4.7411-8.958-29.531-15.826-33.772-1.1362l-7.9128-2.1202c18.514-34.603 53.838-9.3127 69.663-5.0722z"
     display="none" />
  <path
     id="path4232"
     d="m250.86 183.26c-26.427 32.483-124.22 164.54-147.96 158.17l-15.826-4.2405 12.153-12.569 7.9128 2.1202c15.826 4.2405 123.65-133.04 140.05-160.3 12.573-20.906 3.6724 16.81 3.6724 16.81z"
     display="none" />
  <path
     id="path4234"
     d="m187.97 253.45 47.477 12.721-4.2405 14.689-55.39-14.842z"
     display="none" />
  <ellipse
     id="path3281-0-0"
     rx="266.61"
     ry="248.8"
     transform="matrix(.96593 .25882 -.27735 .96077 0 0)"
     cy="174.85"
     cx="226.69"
     display="none"
     fill="url(#radialGradient21305)" />
  <path
     id="path4230-0"
     d="m273.04 165.47c-2.1202 7.3447-36.402 181.33-29.267 189.98 6.1765 7.4828 15.826 4.2405 17.946-3.1042-2.1202 7.3447-6.3607 22.034-8.4809 29.379-17.946 3.1042-33.92-0.81668-37.444-17.946-4.0713-19.793 27.134-182.59 29.267-189.98-4.7411-8.958-29.531-15.826-33.772-1.1362l-7.9128-2.1202c18.514-34.603 53.838-9.3127 69.663-5.0722z"
     display="none" />
  <path
     id="path4232-1"
     d="m250.86 183.26c-26.427 32.483-124.22 164.54-147.96 158.17l-15.826-4.2405 12.153-12.569 7.9128 2.1202c15.826 4.2405 123.65-133.04 140.05-160.3 12.573-20.906 3.6724 16.81 3.6724 16.81z"
     display="none" />
  <path
     id="path4234-6"
     d="m187.97 253.45 47.477 12.721-4.2405 14.689-55.39-14.842z"
     display="none" />
  <ellipse
     id="path3281-0-0-1"
     rx="266.61"
     transform="matrix(.96593 .25882 -.27735 .96077 0 0)"
     ry="248.8"
     cy="174.85"
     cx="226.69"
     display="none"
     fill="url(#radialGradient21305)" />
  <path
     id="path4230-8"
     d="m1680 423c-2.1203 7.3447-36.402 181.33-29.267 189.98 6.1765 7.4828 15.826 4.2405 17.946-3.1042-2.1203 7.3447-6.3607 22.034-8.481 29.379-17.946 3.1042-33.92-0.81668-37.444-17.946-4.0713-19.793 27.134-182.59 29.267-189.98-4.7412-8.958-29.531-15.826-33.772-1.1362l-7.9128-2.1202c18.514-34.603 53.838-9.3127 69.663-5.0722z"
     display="none" />
  <path
     id="path4232-9"
     d="m1657.8 440.8c-26.427 32.483-124.22 164.54-147.96 158.17l-15.826-4.2405 12.153-12.569 7.9128 2.1202c15.826 4.2405 123.65-133.04 140.05-160.3 12.573-20.906 3.6723 16.81 3.6723 16.81z"
     display="none" />
  <path
     id="path4234-5"
     d="m1594.9 510.99 47.477 12.721-4.2405 14.689-55.39-14.842z"
     display="none" />
  <ellipse
     id="path3281-0-0-6"
     rx="266.61"
     ry="248.8"
     transform="matrix(.96593 .25882 -.27735 .96077 0 0)"
     cy="59.452"
     cx="1650.1"
     display="none"
     fill="url(#radialGradient21305-0)" />
  <g
     id="g3378"
     transform="translate(353.35211,-362.3662)">
    <path
       style="fill:#666666"
       d="m -327.35436,362.36294 c -14.397,0 -26,11.603 -26,26 l 0,460 c 0,14.397 11.603,26 26,26 l 460,0 c 14.397,0 26,-11.603 26,-26 l 0,-460 c 0,-14.397 -11.6,-26 -26,-26 l -460,0 z"
       id="rect2986"
       inkscape:connector-curvature="0" />
    <path
       d="m -102.64436,403.36294 c -6.7028,0.40859 -15.005,2.7119 -19.326,3.2246 l -2.0566,-2.0566 c -17.25,7.7008 -47.48,18.412 -65.471,34.209 l -2.2188,-2.2188 c -8.1256,9.7542 -35.438,29.131 -37.613,41.775 l -2.1758,0.5 c -4.2222,7.1604 -6.964,15.272 -10.316,22.635 -4.5338,7.733 -7.0837,5.2229 -7.4199,4.8867 -0.0609,-0.0608 -0.0504,-0.0497 0.0352,0.10547 0.0181,0.0327 0.0398,0.0728 0.0645,0.11914 -10.877,22.054 -16.29,40.579 -20.953,55.787 3.324,4.971 0.0422,29.924 1.3359,49.91 -3.4527,62.434 25.189,123.71 67.379,165.9 l 96.23,96.23 237.8,0 c 14.397,0 26,-11.603 26,-26 l 0,-272.68 -121.900003,-121.91 c -10.24,-10.228 -21.57,-18.73 -32.5199997,-24.582 l 5.67,5.668 c 0.6964997,0.92476 0.9479097,1.613 0.3828097,1.8398 -0.9964797,-0.59252 -1.7920997,-1.0928 -2.6249997,-1.6094 l -10.55,-10.542 c -11.0700003,-4.5098 -11.8110003,0.36738 -19.1350003,0.0137 -20.891,-11.084 -24.915,-9.9077 -44.145,-16.842 l 0.87695,4.0918 c -8.8518,-2.95 -12.985,-1.4168 -18.723,-0.37891 l -2.8594,-2.8594 c -4.9086,0.64812 -7.9277,0.46427 -10.436,0.12696 l -5.335897,-5.3359 z"
       id="path22059"
       style="opacity:0.25"
       inkscape:connector-curvature="0" />
    <path
       d="m 35.265637,587.36294 c 0.43132,11.603 -3.3852,17.239 -6.8388,27.218 l -6.2095,3.0877 c -5.0764,9.8638 0.51105,6.2622 -3.1318,14.105 -7.9334,7.0451 -24.0409997,22.038 -29.198,23.413 -3.7696,-0.0415 2.5496003,-4.4472 3.3752003,-6.1526 -10.6080003,7.28 -8.5142003,10.93 -24.7430003,15.363 l -0.4712,-1.0577 c -40.002,18.826 -95.576997,-18.475 -94.850997,-69.362 -0.42565,3.2272 -1.2086,2.4215 -2.0997,3.7168 -2.0641,-26.178 12.093,-52.472 35.972997,-63.22 23.355,-11.555 50.734,-6.8202 67.448,8.7833 -9.1819,-12.035 -27.476,-24.795 -49.14,-23.614 -21.232,0.34452 -41.100997,13.835 -47.726997,28.485 -10.873,6.843 -12.14,26.394 -16.876,29.98 -6.3832,46.873 11.992,67.12 43.076997,90.941 4.8799,3.2941 1.3752,3.7995 2.0243,6.3064 -10.324997,-4.8315 -19.776997,-12.131 -27.556997,-21.069 4.1297,6.0373 8.584,11.905 14.335,16.516 -9.7442,-3.2898 -22.754,-23.595 -26.544,-24.414 16.785,30.051 68.089997,52.714 94.964997,41.468 -12.439,0.45696 -28.233,0.25491 -42.2,-4.9084 -5.8821,-3.0208 -13.85,-9.2688 -12.425,-10.436 36.672,13.692 74.551,10.363 106.27,-15.065 8.0772,-6.2907 16.895,-16.986 19.446,-17.125 -3.8379,5.7725 0.66196,2.7759 -2.2919,7.8708 8.0302,-12.971 -3.5005,-5.2828 8.3078,-22.398 l 4.3603,6.0031 c -1.6328,-10.776 13.374,-23.849 11.848,-40.879 3.4436,-5.2059 3.8379,5.6088 0.1894,17.587 5.0664,-13.289 1.3367,-15.426 2.6364,-26.394 1.3979,3.6884 3.2556,7.6032 4.2023,11.502 -3.3041,-12.84 3.3767,-21.625 5.0379,-29.093 -1.6385,-0.71891 -5.0963,5.6771 -5.8921,-9.4894 0.15669,-6.5896 1.8421,-3.4536 2.4969,-5.0764 -1.2883,-0.74735 -4.682,-5.7967 -6.7433,-15.482 1.4848,-2.2819 3.9959,5.902 6.0316,6.2337 -1.3111,-7.6986 -3.5632,-13.572 -3.6599,-19.484 -5.9547,-12.439 -2.1069,1.6599 -6.9298,-5.3397 -6.3391,-19.757 5.2543,-4.5867 6.0415,-13.558 9.5947,13.904 15.065,35.466 17.587,44.401 -1.919,-10.887 -5.0194,-21.439 -8.8075,-31.646 2.9254,1.2299 -4.702,-22.394 3.7994,-6.7476 -9.0723,-33.354 -38.792,-64.515 -66.1519997,-79.135 3.3382,3.0592 7.5589997,6.9013 6.0514997,7.5064 -13.6109997,-8.0929 -11.21899968,-8.7306 -13.1689997,-12.151 -11.0700003,-4.5098 -11.8100003,0.36726 -19.1340003,0.0135 -20.88,-11.106 -24.9,-9.931 -44.13,-16.865 l 0.87689,4.0913 c -13.835,-4.6108 -16.123,1.7382 -31.072,0.0136 -0.90541,-0.7075 4.7931,-2.5738 9.4893,-3.2514 -13.379997,1.7666 -12.755,-2.6407 -25.851997,0.47834 3.2229,-2.2606 6.6423,-3.7653 10.08,-5.6871 -10.906,0.66479 -26.05,6.349 -21.382,1.1673 -17.793,7.9434 -49.399,19.09 -67.135,35.717 l -0.55664,-3.7269 c -8.1256,9.7542 -35.438,29.133 -37.613,41.777 l -2.1752,0.49969 c -4.2222,7.1604 -6.964,15.272 -10.316,22.634 -5.5276,9.4281 -8.1071,3.6315 -7.3199,5.1105 -10.877,22.054 -16.29,40.581 -20.953,55.789 3.324,4.971 0.0415,29.923 1.3353,49.91 -5.4564,98.666 69.243,194.44 150.9,216.56 11.968,4.2849 29.761997,4.1354 44.898997,4.5582 -17.856,-5.1105 -20.162,-2.7047 -37.565997,-8.769 -12.549,-5.9163 -15.296,-12.664 -24.19,-20.382 l 3.5205,6.2195 c -17.433,-6.1725 -10.137,-7.6359 -24.328,-12.127 l 3.7596,-4.9027 c -5.6515,-0.43131 -14.969,-9.5193 -17.514,-14.566 l -6.1853,0.25491 c -7.4252,-9.1534 -11.387,-15.773 -11.094,-20.891 l -1.9987,3.5631 c -2.2606,-3.8849 -27.332,-34.379 -14.321,-27.275 -2.4158,-2.2008 -5.6287,-3.5874 -9.1107,-9.9221 l 2.6464,-3.0222 c -6.2479,-8.0544 -11.516,-18.374 -11.114,-21.812 3.3382,4.5041 5.6529,5.3497 7.9477,6.1227 -15.801,-39.209 -16.694,-2.1567 -28.656,-39.916 l 2.5268,-0.20782 c -1.9346,-2.9339 -3.1218,-6.0985 -4.6778,-9.216 l 1.1018,-10.974 c -11.373,-13.139 -3.1788,-55.931 -1.5303,-79.386 1.1232,-9.5378 9.4951,-19.695 15.848,-35.631 l -3.8706,-0.66476 c 7.4053,-12.912 42.272,-51.863 58.422,-49.867 7.8238,-9.8254 -1.5531,-0.0135 -3.0877,-2.5069 17.182,-17.783 22.592,-12.563 34.194,-15.773 12.5,-7.4196 -10.734,2.9012 -4.8073,-2.8286 21.627,-5.5176 15.32,-12.554 43.525,-15.353 2.9766,1.6926 -6.9014,2.6122 -9.3798,4.8073 18.008997,-8.8175 56.998997,-6.8046 82.337997,4.8885 29.3760003,13.74 62.404,54.337 63.711,92.531 l 1.4847,0.40286 c -0.7502,15.185 2.3247,32.742 -3.0108,48.87 l 3.6073,-7.6402"
       id="path66"
       style="fill:#ffffff"
       inkscape:connector-curvature="0" />
  </g>
</svg>
