<?xml version="1.0" encoding="UTF-8" standalone="no"?>
<svg
   xmlns:dc="http://purl.org/dc/elements/1.1/"
   xmlns:cc="http://creativecommons.org/ns#"
   xmlns:rdf="http://www.w3.org/1999/02/22-rdf-syntax-ns#"
   xmlns:svg="http://www.w3.org/2000/svg"
   xmlns="http://www.w3.org/2000/svg"
   xmlns:xlink="http://www.w3.org/1999/xlink"
   xmlns:sodipodi="http://sodipodi.sourceforge.net/DTD/sodipodi-0.dtd"
   xmlns:inkscape="http://www.inkscape.org/namespaces/inkscape"
   viewBox="0 0 512 512"
   id="svg2"
   version="1.1"
   inkscape:version="0.91 r13725"
   sodipodi:docname="gnome-iagno.svg">
  <metadata
     id="metadata10021">
    <rdf:RDF>
      <cc:Work
         rdf:about="">
        <dc:format>image/svg+xml</dc:format>
        <dc:type
           rdf:resource="http://purl.org/dc/dcmitype/StillImage" />
      </cc:Work>
    </rdf:RDF>
  </metadata>
  <sodipodi:namedview
     pagecolor="#ffffff"
     bordercolor="#666666"
     borderopacity="1"
     objecttolerance="10"
     gridtolerance="10"
     guidetolerance="10"
     inkscape:pageopacity="0"
     inkscape:pageshadow="2"
     inkscape:window-width="1366"
     inkscape:window-height="709"
     id="namedview10019"
     showgrid="false"
     inkscape:zoom="0.4609375"
     inkscape:cx="-273.35593"
     inkscape:cy="219.11864"
     inkscape:window-x="-2"
     inkscape:window-y="-3"
     inkscape:window-maximized="1"
     inkscape:current-layer="svg2" />
  <defs
     id="defs4">
    <path
       id="0"
       d="m159.54 226.66a55.226 55.226 0 1 1 -110.45 0 55.226 55.226 0 1 1 110.45 0" />
  </defs>
  <path
     inkscape:connector-curvature="0"
     style="fill:#666666"
     d="m 25.996,-0.005 c -14.397,0 -26,11.603 -26,26 l 0,460 c 0,14.397 11.603,26 26,26 l 460,0 c 14.397,0 26,-11.603 26,-26 l 0,-460 c 0,-14.397 -11.603,-26 -26,-26 l -460,0"
     id="path9945" />
  <path
     inkscape:connector-curvature="0"
     style="opacity:0.25"
     d="m 375.026,40.964 c -53.01,0 -96,42.991 -96,96 0,2.201 0.081,4.383 0.227,6.547 l -74.39,-74.39 c -17.375,-17.375 -41.38,-28.12 -67.895,-28.12 -53.01,0 -95.97,42.959 -95.97,95.97 0,26.513 10.746,50.52 28.12,67.895 l 74.39,74.39 c -2.164,-0.146 -4.346,-0.227 -6.547,-0.227 -53.01,0 -95.97,42.991 -95.97,96 0,26.505 10.739,50.5 28.11,67.863 l 69.11,69.11 231.73,0 -136.97,-136.97 c 0,-2.201 -0.081,-4.383 -0.227,-6.547 l 143.52,143.52 109.74,0 c 14.397,0 26,-11.603 26,-26 l 0,-347.8 -69.12,-69.12 C 425.519,51.72 401.534,40.975 375.036,40.975"
     id="path9947" />
  <g
     style="fill:#ffffff"
     id="g9995"
     transform="translate(-0.004,-0.005)">
    <use
       height="100%"
       width="100%"
       y="0"
       x="0"
       xlink:href="#0"
       transform="matrix(1.738,0,0,1.738,193.72,-18.921)"
       id="use9997" />
    <use
       height="100%"
       width="100%"
       y="0"
       x="0"
       xlink:href="#0"
       transform="matrix(1.738,0,0,1.738,-44.32,-256.96)"
       id="use9999" />
  </g>
  <g
     style="fill:#666666"
     id="g10001"
     transform="translate(-0.004,-0.005)">
    <use
       height="100%"
       width="100%"
       y="0"
       x="0"
       xlink:href="#0"
       transform="matrix(1.738,0,0,1.738,193.72,-256.96)"
       id="use10003" />
    <use
       height="100%"
       width="100%"
       y="0"
       x="0"
       xlink:href="#0"
       transform="matrix(1.738,0,0,1.738,-44.32,-18.921)"
       id="use10005" />
  </g>
  <g
     style="fill:#ffffff"
     id="g10007"
     transform="translate(-0.004,-0.005)">
    <path
       inkscape:connector-curvature="0"
       d="m 471,375.02 a 95.982,95.982 0 0 1 -191.96,0 95.982,95.982 0 1 1 191.96,0"
       id="path10009" />
    <path
       inkscape:connector-curvature="0"
       d="m 232.96,136.98 a 95.982,95.982 0 0 1 -191.96,0 95.982,95.982 0 1 1 191.96,0"
       id="path10011" />
  </g>
  <path
     style="fill:#282629"
     id="path10015"
     d="m 470.996,136.975 a 95.982,95.982 0 0 1 -191.96,0 95.982,95.982 0 1 1 191.96,0"
     inkscape:connector-curvature="0" />
  <path
     style="fill:#282629"
     id="path10017"
     d="m 232.956,375.015 a 95.982,95.982 0 0 1 -191.96,0 95.982,95.982 0 1 1 191.96,0"
     inkscape:connector-curvature="0" />
</svg>
