<?xml version="1.0" encoding="UTF-8" standalone="no"?>
<svg
   xmlns:dc="http://purl.org/dc/elements/1.1/"
   xmlns:cc="http://creativecommons.org/ns#"
   xmlns:rdf="http://www.w3.org/1999/02/22-rdf-syntax-ns#"
   xmlns:svg="http://www.w3.org/2000/svg"
   xmlns="http://www.w3.org/2000/svg"
   xmlns:xlink="http://www.w3.org/1999/xlink"
   xmlns:sodipodi="http://sodipodi.sourceforge.net/DTD/sodipodi-0.dtd"
   xmlns:inkscape="http://www.inkscape.org/namespaces/inkscape"
   id="svg2"
   height="100%"
   viewBox="0 0 512 512"
   width="100%"
   version="1.1"
   inkscape:version="0.91 r13725"
   sodipodi:docname="hwinfo.svg">
  <sodipodi:namedview
     pagecolor="#ffffff"
     bordercolor="#666666"
     borderopacity="1"
     objecttolerance="10"
     gridtolerance="10"
     guidetolerance="10"
     inkscape:pageopacity="0"
     inkscape:pageshadow="2"
     inkscape:window-width="640"
     inkscape:window-height="480"
     id="namedview129"
     showgrid="false"
     inkscape:zoom="0.5546875"
     inkscape:cx="-183.88732"
     inkscape:cy="225.35212"
     inkscape:current-layer="svg2" />
  <metadata
     id="metadata10">
    <rdf:RDF>
      <cc:Work
         rdf:about="">
        <dc:format>image/svg+xml</dc:format>
        <dc:type
           rdf:resource="http://purl.org/dc/dcmitype/StillImage" />
        <dc:title />
      </cc:Work>
    </rdf:RDF>
  </metadata>
  <defs
     id="defs8">
    <linearGradient
       id="linearGradient4216-1">
      <stop
         id="stop4218-0"
         stop-color="#fff"
         offset="0" />
      <stop
         id="stop4220-2"
         stop-color="#e8e8e8"
         offset=".6875" />
      <stop
         id="stop4222-6"
         stop-color="#686868"
         offset=".875" />
      <stop
         id="stop4224-6"
         offset="1" />
    </linearGradient>
    <radialGradient
       id="radialGradient21305"
       xlink:href="#linearGradient4216-1"
       gradientUnits="userSpaceOnUse"
       cy="64"
       cx="64"
       gradientTransform="matrix(4.1658 0 0 3.8875 -39.924 -73.947)"
       r="64" />
    <radialGradient
       id="radialGradient21305-0"
       gradientUnits="userSpaceOnUse"
       xlink:href="#linearGradient4216-1"
       cx="64"
       cy="64"
       r="64"
       gradientTransform="matrix(4.1658 0 0 3.8875 1383.5 -189.35)" />
    <linearGradient
       id="ButtonShadow"
       x1="45.448"
       gradientUnits="userSpaceOnUse"
       y1="92.54"
       gradientTransform="scale(1.0059 .99417)"
       x2="45.448"
       y2="7.0165">
      <stop
         id="stop3750-1"
         offset="0" />
      <stop
         id="stop3752-6"
         stop-opacity=".58824"
         offset="1" />
    </linearGradient>
    <filter
       id="filter3174"
       color-interpolation-filters="sRGB">
      <feGaussianBlur
         id="feGaussianBlur3176"
         stdDeviation="1.71" />
    </filter>
    <filter
       id="filter3174-2"
       color-interpolation-filters="sRGB">
      <feGaussianBlur
         id="feGaussianBlur3176-21"
         stdDeviation="1.71" />
    </filter>
    <filter
       id="filter3174-5"
       color-interpolation-filters="sRGB">
      <feGaussianBlur
         id="feGaussianBlur3176-2"
         stdDeviation="1.71" />
    </filter>
    <linearGradient
       id="linearGradient6148"
       y2="7.0165"
       xlink:href="#ButtonShadow"
       gradientUnits="userSpaceOnUse"
       x2="45.448"
       gradientTransform="scale(1.0059 .99417)"
       y1="92.54"
       x1="45.448" />
    <filter
       id="filter3174-3"
       color-interpolation-filters="sRGB">
      <feGaussianBlur
         id="feGaussianBlur3176-9"
         stdDeviation="1.71" />
    </filter>
    <radialGradient
       id="radialGradient26869"
       cx="64"
       xlink:href="#linearGradient4216-1"
       gradientUnits="userSpaceOnUse"
       cy="64"
       r="64"
       gradientTransform="matrix(4.1658 0 0 3.8875 52.766 -98.917)" />
    <radialGradient
       id="radialGradient26875"
       cx="64"
       xlink:href="#linearGradient4216-1"
       gradientUnits="userSpaceOnUse"
       cy="64"
       r="64"
       gradientTransform="matrix(4.1658 0 0 3.8875 1476.2 -214.32)" />
    <filter
       id="filter3174-38"
       color-interpolation-filters="sRGB">
      <feGaussianBlur
         id="feGaussianBlur3176-7"
         stdDeviation="1.71" />
    </filter>
    <filter
       id="filter3174-5-6"
       color-interpolation-filters="sRGB">
      <feGaussianBlur
         id="feGaussianBlur3176-2-7"
         stdDeviation="1.71" />
    </filter>
    <filter
       id="filter3174-3-3"
       color-interpolation-filters="sRGB">
      <feGaussianBlur
         id="feGaussianBlur3176-9-1"
         stdDeviation="1.71" />
    </filter>
    <radialGradient
       id="radialGradient26869-2"
       xlink:href="#linearGradient4216-1"
       gradientUnits="userSpaceOnUse"
       cy="64"
       cx="64"
       gradientTransform="matrix(4.1658 0 0 3.8875 49.28 -97.978)"
       r="64" />
    <radialGradient
       id="radialGradient26875-4"
       xlink:href="#linearGradient4216-1"
       gradientUnits="userSpaceOnUse"
       cy="64"
       cx="64"
       gradientTransform="matrix(4.1658 0 0 3.8875 1472.7 -213.38)"
       r="64" />
    <filter
       id="filter3174-6"
       color-interpolation-filters="sRGB">
      <feGaussianBlur
         id="feGaussianBlur3176-8"
         stdDeviation="1.71" />
    </filter>
    <filter
       id="filter3174-5-3"
       color-interpolation-filters="sRGB">
      <feGaussianBlur
         id="feGaussianBlur3176-2-9"
         stdDeviation="1.71" />
    </filter>
    <filter
       id="filter3174-3-2"
       color-interpolation-filters="sRGB">
      <feGaussianBlur
         id="feGaussianBlur3176-9-9"
         stdDeviation="1.71" />
    </filter>
    <radialGradient
       id="radialGradient26869-3"
       cx="64"
       xlink:href="#linearGradient4216-1"
       gradientUnits="userSpaceOnUse"
       cy="64"
       r="64"
       gradientTransform="matrix(4.1658 0 0 3.8875 85.198 -107.65)" />
    <radialGradient
       id="radialGradient26875-7"
       cx="64"
       xlink:href="#linearGradient4216-1"
       gradientUnits="userSpaceOnUse"
       cy="64"
       r="64"
       gradientTransform="matrix(4.1658 0 0 3.8875 1508.6 -223.05)" />
    <radialGradient
       id="radialGradient4397"
       gradientUnits="userSpaceOnUse"
       cy="253.06"
       cx="253.03"
       gradientTransform="matrix(1.0793 0 0 1.0793 -17.096 -17.129)"
       r="218.88">
      <stop
         id="stop4393"
         stop-color="#fff"
         stop-opacity=".62832"
         offset="0" />
      <stop
         id="stop4395"
         stop-color="#fff"
         stop-opacity="0"
         offset="1" />
    </radialGradient>
    <linearGradient
       id="linearGradient100004"
       y2="2.1695"
       gradientUnits="userSpaceOnUse"
       y1="509.83"
       gradientTransform="translate(4e-5)"
       x2="256"
       x1="256">
      <stop
         id="stop4195"
         stop-color="#0756a6"
         offset="0" />
      <stop
         id="stop4197"
         stop-color="#4c99e9"
         offset="1" />
    </linearGradient>
    <radialGradient
       id="radialGradient4397-0"
       gradientUnits="userSpaceOnUse"
       cy="253.06"
       cx="253.03"
       gradientTransform="matrix(1.0793,0,0,1.0793,-395.68755,374.07355)"
       r="218.88">
      <stop
         id="stop4393-0"
         stop-color="#fff"
         stop-opacity=".62832"
         offset="0" />
      <stop
         id="stop4395-6"
         stop-color="#fff"
         stop-opacity="0"
         offset="1" />
    </radialGradient>
  </defs>
  <path
     id="path4230"
     d="m273.04 165.47c-2.1202 7.3447-36.402 181.33-29.267 189.98 6.1765 7.4828 15.826 4.2405 17.946-3.1042-2.1202 7.3447-6.3607 22.034-8.4809 29.379-17.946 3.1042-33.92-0.81668-37.444-17.946-4.0713-19.793 27.134-182.59 29.267-189.98-4.7411-8.958-29.531-15.826-33.772-1.1362l-7.9128-2.1202c18.514-34.603 53.838-9.3127 69.663-5.0722z"
     display="none" />
  <path
     id="path4232"
     d="m250.86 183.26c-26.427 32.483-124.22 164.54-147.96 158.17l-15.826-4.2405 12.153-12.569 7.9128 2.1202c15.826 4.2405 123.65-133.04 140.05-160.3 12.573-20.906 3.6724 16.81 3.6724 16.81z"
     display="none" />
  <path
     id="path4234"
     d="m187.97 253.45 47.477 12.721-4.2405 14.689-55.39-14.842z"
     display="none" />
  <ellipse
     id="path3281-0-0"
     rx="266.61"
     ry="248.8"
     transform="matrix(.96593 .25882 -.27735 .96077 0 0)"
     cy="174.85"
     cx="226.69"
     display="none"
     fill="url(#radialGradient21305)" />
  <path
     id="path4230-0"
     d="m273.04 165.47c-2.1202 7.3447-36.402 181.33-29.267 189.98 6.1765 7.4828 15.826 4.2405 17.946-3.1042-2.1202 7.3447-6.3607 22.034-8.4809 29.379-17.946 3.1042-33.92-0.81668-37.444-17.946-4.0713-19.793 27.134-182.59 29.267-189.98-4.7411-8.958-29.531-15.826-33.772-1.1362l-7.9128-2.1202c18.514-34.603 53.838-9.3127 69.663-5.0722z"
     display="none" />
  <path
     id="path4232-1"
     d="m250.86 183.26c-26.427 32.483-124.22 164.54-147.96 158.17l-15.826-4.2405 12.153-12.569 7.9128 2.1202c15.826 4.2405 123.65-133.04 140.05-160.3 12.573-20.906 3.6724 16.81 3.6724 16.81z"
     display="none" />
  <path
     id="path4234-6"
     d="m187.97 253.45 47.477 12.721-4.2405 14.689-55.39-14.842z"
     display="none" />
  <ellipse
     id="path3281-0-0-1"
     rx="266.61"
     transform="matrix(.96593 .25882 -.27735 .96077 0 0)"
     ry="248.8"
     cy="174.85"
     cx="226.69"
     display="none"
     fill="url(#radialGradient21305)" />
  <path
     id="path4230-8"
     d="m1680 423c-2.1203 7.3447-36.402 181.33-29.267 189.98 6.1765 7.4828 15.826 4.2405 17.946-3.1042-2.1203 7.3447-6.3607 22.034-8.481 29.379-17.946 3.1042-33.92-0.81668-37.444-17.946-4.0713-19.793 27.134-182.59 29.267-189.98-4.7412-8.958-29.531-15.826-33.772-1.1362l-7.9128-2.1202c18.514-34.603 53.838-9.3127 69.663-5.0722z"
     display="none" />
  <path
     id="path4232-9"
     d="m1657.8 440.8c-26.427 32.483-124.22 164.54-147.96 158.17l-15.826-4.2405 12.153-12.569 7.9128 2.1202c15.826 4.2405 123.65-133.04 140.05-160.3 12.573-20.906 3.6723 16.81 3.6723 16.81z"
     display="none" />
  <path
     id="path4234-5"
     d="m1594.9 510.99 47.477 12.721-4.2405 14.689-55.39-14.842z"
     display="none" />
  <ellipse
     id="path3281-0-0-6"
     rx="266.61"
     ry="248.8"
     transform="matrix(.96593 .25882 -.27735 .96077 0 0)"
     cy="59.452"
     cx="1650.1"
     display="none"
     fill="url(#radialGradient21305-0)" />
  <g
     id="layer2"
     display="none"
     transform="matrix(6.7274 0 0 6.7274 -2789.7 -809.34)">
    <rect
       id="rect3745"
       opacity=".9"
       rx="6"
       ry="6"
       height="85"
       filter="url(#filter3174)"
       width="86"
       y="7"
       x="5"
       fill="url(#ButtonShadow)" />
  </g>
  <g
     id="layer2-8"
     display="none"
     transform="matrix(6.7274 0 0 6.7274 -2077.1 -889.77)">
    <rect
       id="rect3745-5"
       opacity=".9"
       rx="6"
       ry="6"
       height="85"
       filter="url(#filter3174-2)"
       width="86"
       y="7"
       x="5"
       fill="url(#linearGradient6148)" />
  </g>
  <g
     id="layer2-3"
     display="none"
     transform="matrix(6.7274 0 0 6.7274 -2077.1 -889.77)">
    <rect
       id="rect3745-8"
       opacity=".9"
       rx="6"
       ry="6"
       height="85"
       filter="url(#filter3174-5)"
       width="86"
       y="7"
       x="5"
       fill="url(#linearGradient6148)" />
  </g>
  <path
     id="path3848"
     d="m-785.82-490.39c-31.718 0.73046-61.283 23.617-71.031 53.75-10.408 29.448-0.1539 63.832 23.031 84.219 0.2111 0.18773 0.44298 0.34587 0.65625 0.53125 0.0607 0.0539 0.12666 0.1025 0.1875 0.15625 0.53347 0.4555 1.0471 0.93438 1.5938 1.375 0.0982 0.0801 0.21385 0.13919 0.3125 0.21875 0.0114 0.009 0.0198 0.0222 0.0312 0.0312 0.0924 0.0753 0.18851 0.14387 0.28125 0.21875 0.0114 0.009 0.0198 0.0222 0.0312 0.0312 0.081 0.066 0.16873 0.1218 0.25 0.1875 0.0115 0.009 0.0197 0.0223 0.0312 0.0312 0.0114 0.009 0.0198 0.0222 0.0312 0.0312 0.0682 0.0557 0.11908 0.13204 0.1875 0.1875 0.0806 0.0661 0.16909 0.12176 0.25 0.1875 0.26263 0.21589 0.51553 0.44392 0.78125 0.65625 0.0113 0.009 0.0199 0.0221 0.0312 0.0312v77.719l366.09 366.06h61.812c0.19472-5.1667 0.39905-10.333 0.59375-15.5l15.5-0.5625v-71.125c-0.11718-3.5064-0.66635-7.1765 2.9688-9.0938 17.971-15.566 29.967-38.912 28.375-63.031 0.24347-20.205-8.8362-39.465-23.031-53.562-0.13063-0.13149-0.27474-0.2444-0.40625-0.375l-343.31-342.94c-1.6885-1.8492-3.3938-3.742-5.125-5.5-0.12897-0.13157-0.24515-0.27555-0.375-0.40625-14.005-14.287-33.185-23.492-53.375-23.375-2.1284-0.1527-4.2605-0.20495-6.375-0.15625z"
     fill-opacity=".39216"
     display="none" />
  <path
     id="path11978"
     d="m-725.7-466.45c1.4663 1.516 2.9049 3.0642 4.25 4.6875 1.5801 1.907 3.0707 3.8973 4.4688 5.9375 1.398 2.0402 2.7063 4.1239 3.9062 6.2812 1.1999 2.1574 2.2954 4.3665 3.2812 6.625 0.98586 2.2585 1.8379 4.594 2.5938 6.9375 0.75581 2.3435 1.3964 4.7125 1.9062 7.125s0.90844 4.847 1.1562 7.3125c0.24781 2.4655 0.34265 4.9664 0.3125 7.4688 0.19898 3.0149 0.21091 6.023 0 9s-0.62772 5.932-1.2188 8.8438c-0.59103 2.9118-1.3711 5.7746-2.3125 8.5938-0.94136 2.8192-2.0506 5.582-3.3125 8.2812s-2.666 5.3231-4.2188 7.875c-1.5527 2.5519-3.2488 5.029-5.0625 7.4062s-3.7676 4.6686-5.8125 6.8438-4.1912 4.2418-6.4375 6.1875c-0.90877 0.47931-1.5415 1.0487-2 1.7188-0.45846 0.67003-0.72299 1.4189-0.875 2.2188-0.30402 1.5996-0.15234 3.403-0.0937 5.1562v71.125h-16.094v16.062h-61.812l350 350h61.812c0.19472-5.1667 0.39905-10.333 0.59375-15.5l15.5-0.5625v-71.125c-0.11718-3.5064-0.66635-7.1765 2.9688-9.0938 17.971-15.566 29.967-38.912 28.375-63.031 0.2435-20.205-8.8362-39.465-23.031-53.562-0.13063-0.13149-0.27474-0.2444-0.40625-0.375l-343.31-342.94c-1.6885-1.8492-3.3939-3.742-5.125-5.5zm-87.375 211.69v-16.062h-16.094l16.094 16.062z"
     fill-opacity=".39216"
     display="none" />
  <path
     id="path11980"
     d="m-998.29-281.7 425.16 425.12v-125.12l-300-300z"
     fill-opacity=".39216"
     display="none" />
  <g
     id="layer2-4"
     display="none"
     transform="matrix(6.7274 0 0 6.7274 -2834.4 -809.34)">
    <rect
       id="rect3745-3"
       opacity=".9"
       rx="6"
       ry="6"
       height="85"
       filter="url(#filter3174-3)"
       width="86"
       y="7"
       x="5"
       fill="url(#linearGradient6148)" />
  </g>
  <path
     id="path4230-3"
     d="m369.5 165.47c-2.1202 7.3447-36.402 181.33-29.267 189.98 6.1765 7.4828 15.826 4.2405 17.946-3.1042-2.1202 7.3447-6.3607 22.034-8.4809 29.379-17.946 3.1042-33.92-0.81668-37.444-17.946-4.0713-19.793 27.134-182.59 29.267-189.98-4.7411-8.958-29.531-15.826-33.772-1.1362l-7.9128-2.1202c18.514-34.603 53.838-9.3127 69.663-5.0722z"
     display="none" />
  <path
     id="path4232-8"
     d="m347.31 183.26c-26.427 32.483-124.22 164.54-147.96 158.17l-15.826-4.2405 12.153-12.569 7.9128 2.1202c15.826 4.2405 123.65-133.04 140.05-160.3 12.573-20.906 3.6724 16.81 3.6724 16.81z"
     display="none" />
  <path
     id="path4234-62"
     d="m284.43 253.45 47.477 12.721-4.2405 14.689-55.39-14.842z"
     display="none" />
  <ellipse
     id="path3281-0-0-9"
     rx="266.61"
     ry="248.8"
     transform="matrix(.96593 .25882 -.27735 .96077 0 0)"
     cy="149.88"
     cx="319.38"
     display="none"
     fill="url(#radialGradient26869)" />
  <path
     id="path4230-0-4"
     d="m369.5 165.47c-2.1202 7.3447-36.402 181.33-29.267 189.98 6.1765 7.4828 15.826 4.2405 17.946-3.1042-2.1202 7.3447-6.3607 22.034-8.4809 29.379-17.946 3.1042-33.92-0.81668-37.444-17.946-4.0713-19.793 27.134-182.59 29.267-189.98-4.7411-8.958-29.531-15.826-33.772-1.1362l-7.9128-2.1202c18.514-34.603 53.838-9.3127 69.663-5.0722z"
     display="none" />
  <path
     id="path4232-1-3"
     d="m347.31 183.26c-26.427 32.483-124.22 164.54-147.96 158.17l-15.826-4.2405 12.153-12.569 7.9128 2.1202c15.826 4.2405 123.65-133.04 140.05-160.3 12.573-20.906 3.6724 16.81 3.6724 16.81z"
     display="none" />
  <path
     id="path4234-6-2"
     d="m284.43 253.45 47.477 12.721-4.2405 14.689-55.39-14.842z"
     display="none" />
  <ellipse
     id="path3281-0-0-1-8"
     rx="266.61"
     transform="matrix(.96593 .25882 -.27735 .96077 0 0)"
     ry="248.8"
     cy="149.88"
     cx="319.38"
     display="none"
     fill="url(#radialGradient26869)" />
  <path
     id="path4230-8-5"
     d="m1776.4 423c-2.1203 7.3447-36.402 181.33-29.267 189.98 6.1765 7.4828 15.826 4.2405 17.946-3.1042-2.1203 7.3447-6.3607 22.034-8.481 29.379-17.946 3.1042-33.92-0.81668-37.444-17.946-4.0713-19.793 27.134-182.59 29.267-189.98-4.7412-8.958-29.531-15.826-33.772-1.1362l-7.9128-2.1202c18.514-34.603 53.838-9.3127 69.663-5.0722z"
     display="none" />
  <path
     id="path4232-9-3"
     d="m1754.2 440.8c-26.427 32.483-124.22 164.54-147.96 158.17l-15.826-4.2405 12.153-12.569 7.9128 2.1202c15.826 4.2405 123.65-133.04 140.05-160.3 12.573-20.906 3.6723 16.81 3.6723 16.81z"
     display="none" />
  <path
     id="path4234-5-3"
     d="m1691.4 510.99 47.477 12.721-4.2405 14.689-55.39-14.842z"
     display="none" />
  <ellipse
     id="path3281-0-0-6-9"
     rx="266.61"
     ry="248.8"
     transform="matrix(.96593 .25882 -.27735 .96077 0 0)"
     cy="34.482"
     cx="1742.8"
     display="none"
     fill="url(#radialGradient26875)" />
  <g
     id="layer2-5"
     display="none"
     transform="matrix(6.7274 0 0 6.7274 -2080.7 -889.77)">
    <rect
       id="rect3745-6"
       opacity=".9"
       rx="6"
       ry="6"
       height="85"
       filter="url(#filter3174-38)"
       width="86"
       y="7"
       x="5"
       fill="url(#linearGradient6148)" />
  </g>
  <g
     id="layer2-3-5"
     display="none"
     transform="matrix(6.7274 0 0 6.7274 -2080.7 -889.77)">
    <rect
       id="rect3745-8-5"
       opacity=".9"
       rx="6"
       ry="6"
       height="85"
       filter="url(#filter3174-5-6)"
       width="86"
       y="7"
       x="5"
       fill="url(#linearGradient6148)" />
  </g>
  <path
     id="path3848-3"
     d="m-789.45-490.39c-31.718 0.73046-61.283 23.617-71.031 53.75-10.408 29.448-0.1539 63.832 23.031 84.219 0.2111 0.18773 0.44298 0.34587 0.65625 0.53125 0.0607 0.0539 0.12666 0.1025 0.1875 0.15625 0.53347 0.4555 1.0471 0.93438 1.5938 1.375 0.0982 0.0801 0.21385 0.13919 0.3125 0.21875 0.0114 0.009 0.0198 0.0222 0.0312 0.0312 0.0924 0.0753 0.18851 0.14387 0.28125 0.21875 0.0114 0.009 0.0198 0.0222 0.0312 0.0312 0.081 0.066 0.16873 0.1218 0.25 0.1875 0.0115 0.009 0.0197 0.0223 0.0312 0.0312 0.0114 0.009 0.0198 0.0222 0.0312 0.0312 0.0682 0.0557 0.11908 0.13204 0.1875 0.1875 0.0806 0.0661 0.16909 0.12176 0.25 0.1875 0.26263 0.21589 0.51553 0.44392 0.78125 0.65625 0.0113 0.009 0.0199 0.0221 0.0312 0.0312v77.719l366.09 366.06h61.812c0.19472-5.1667 0.39905-10.333 0.59375-15.5l15.5-0.5625v-71.125c-0.11718-3.5064-0.66635-7.1765 2.9688-9.0938 17.971-15.566 29.967-38.912 28.375-63.031 0.24347-20.205-8.8362-39.465-23.031-53.562-0.13063-0.13149-0.27474-0.2444-0.40625-0.375l-343.31-342.94c-1.6885-1.8492-3.3938-3.742-5.125-5.5-0.12897-0.13157-0.24515-0.27555-0.375-0.40625-14.005-14.287-33.185-23.492-53.375-23.375-2.1284-0.1527-4.2605-0.20495-6.375-0.15625z"
     fill-opacity=".39216"
     display="none" />
  <path
     id="path11978-0"
     d="m-729.32-466.45c1.4663 1.516 2.9049 3.0642 4.25 4.6875 1.5801 1.907 3.0707 3.8973 4.4688 5.9375 1.398 2.0402 2.7063 4.1239 3.9062 6.2812 1.1999 2.1574 2.2954 4.3665 3.2812 6.625 0.98586 2.2585 1.8379 4.594 2.5938 6.9375 0.75581 2.3435 1.3964 4.7125 1.9062 7.125s0.90844 4.847 1.1562 7.3125c0.24781 2.4655 0.34265 4.9664 0.3125 7.4688 0.19898 3.0149 0.21091 6.023 0 9s-0.62772 5.932-1.2188 8.8438c-0.59103 2.9118-1.3711 5.7746-2.3125 8.5938-0.94136 2.8192-2.0506 5.582-3.3125 8.2812s-2.666 5.3231-4.2188 7.875c-1.5527 2.5519-3.2488 5.029-5.0625 7.4062s-3.7676 4.6686-5.8125 6.8438-4.1912 4.2418-6.4375 6.1875c-0.90877 0.47931-1.5415 1.0487-2 1.7188-0.45846 0.67003-0.72299 1.4189-0.875 2.2188-0.30402 1.5996-0.15234 3.403-0.0937 5.1562v71.125h-16.094v16.062h-61.812l350 350h61.812c0.19472-5.1667 0.39905-10.333 0.59375-15.5l15.5-0.5625v-71.125c-0.11718-3.5064-0.66635-7.1765 2.9688-9.0938 17.971-15.566 29.967-38.912 28.375-63.031 0.2435-20.205-8.8362-39.465-23.031-53.562-0.13063-0.13149-0.27474-0.2444-0.40625-0.375l-343.31-342.94c-1.6885-1.8492-3.3939-3.742-5.125-5.5zm-87.375 211.69v-16.062h-16.094l16.094 16.062z"
     fill-opacity=".39216"
     display="none" />
  <path
     id="path11980-6"
     d="m-1001.9-281.7 425.16 425.12v-125.12l-300-300z"
     fill-opacity=".39216"
     display="none" />
  <g
     id="layer2-4-0"
     display="none"
     transform="matrix(6.7274 0 0 6.7274 -2838 -809.34)">
    <rect
       id="rect3745-3-5"
       opacity=".9"
       rx="6"
       ry="6"
       height="85"
       filter="url(#filter3174-3-3)"
       width="86"
       y="7"
       x="5"
       fill="url(#linearGradient6148)" />
  </g>
  <path
     id="path4230-5"
     d="m365.87 165.47c-2.1202 7.3447-36.402 181.33-29.267 189.98 6.1765 7.4828 15.826 4.2405 17.946-3.1042-2.1202 7.3447-6.3607 22.034-8.4809 29.379-17.946 3.1042-33.92-0.81668-37.444-17.946-4.0713-19.793 27.134-182.59 29.267-189.98-4.7411-8.958-29.531-15.826-33.772-1.1362l-7.9128-2.1202c18.514-34.603 53.838-9.3127 69.663-5.0722z"
     display="none" />
  <path
     id="path4232-6"
     d="m343.69 183.26c-26.427 32.483-124.22 164.54-147.96 158.17l-15.826-4.2405 12.153-12.569 7.9128 2.1202c15.826 4.2405 123.65-133.04 140.05-160.3 12.573-20.906 3.6724 16.81 3.6724 16.81z"
     display="none" />
  <path
     id="path4234-8"
     d="m280.8 253.45 47.477 12.721-4.2405 14.689-55.39-14.842z"
     display="none" />
  <ellipse
     id="path3281-0-0-7"
     rx="266.61"
     transform="matrix(.96593 .25882 -.27735 .96077 0 0)"
     ry="248.8"
     cy="150.82"
     cx="315.89"
     display="none"
     fill="url(#radialGradient26869-2)" />
  <path
     id="path4230-0-7"
     d="m365.87 165.47c-2.1202 7.3447-36.402 181.33-29.267 189.98 6.1765 7.4828 15.826 4.2405 17.946-3.1042-2.1202 7.3447-6.3607 22.034-8.4809 29.379-17.946 3.1042-33.92-0.81668-37.444-17.946-4.0713-19.793 27.134-182.59 29.267-189.98-4.7411-8.958-29.531-15.826-33.772-1.1362l-7.9128-2.1202c18.514-34.603 53.838-9.3127 69.663-5.0722z"
     display="none" />
  <path
     id="path4232-1-5"
     d="m343.69 183.26c-26.427 32.483-124.22 164.54-147.96 158.17l-15.826-4.2405 12.153-12.569 7.9128 2.1202c15.826 4.2405 123.65-133.04 140.05-160.3 12.573-20.906 3.6724 16.81 3.6724 16.81z"
     display="none" />
  <path
     id="path4234-6-1"
     d="m280.8 253.45 47.477 12.721-4.2405 14.689-55.39-14.842z"
     display="none" />
  <ellipse
     id="path3281-0-0-1-0"
     rx="266.61"
     transform="matrix(.96593 .25882 -.27735 .96077 0 0)"
     ry="248.8"
     cy="150.82"
     cx="315.89"
     display="none"
     fill="url(#radialGradient26869-2)" />
  <path
     id="path4230-8-7"
     d="m1772.8 423c-2.1203 7.3447-36.402 181.33-29.267 189.98 6.1765 7.4828 15.826 4.2405 17.946-3.1042-2.1203 7.3447-6.3607 22.034-8.481 29.379-17.946 3.1042-33.92-0.81668-37.444-17.946-4.0713-19.793 27.134-182.59 29.267-189.98-4.7412-8.958-29.531-15.826-33.772-1.1362l-7.9128-2.1202c18.514-34.603 53.838-9.3127 69.663-5.0722z"
     display="none" />
  <path
     id="path4232-9-4"
     d="m1750.6 440.8c-26.427 32.483-124.22 164.54-147.96 158.17l-15.826-4.2405 12.153-12.569 7.9128 2.1202c15.826 4.2405 123.65-133.04 140.05-160.3 12.573-20.906 3.6723 16.81 3.6723 16.81z"
     display="none" />
  <path
     id="path4234-5-0"
     d="m1687.7 510.99 47.477 12.721-4.2405 14.689-55.39-14.842z"
     display="none" />
  <ellipse
     id="path3281-0-0-6-1"
     rx="266.61"
     transform="matrix(.96593 .25882 -.27735 .96077 0 0)"
     ry="248.8"
     cy="35.421"
     cx="1739.3"
     display="none"
     fill="url(#radialGradient26875-4)" />
  <g
     id="layer2-0"
     display="none"
     transform="matrix(6.7274 0 0 6.7274 -2043.3 -889.77)">
    <rect
       id="rect3745-50"
       opacity=".9"
       rx="6"
       ry="6"
       height="85"
       filter="url(#filter3174-6)"
       width="86"
       y="7"
       x="5"
       fill="url(#linearGradient6148)" />
  </g>
  <g
     id="layer2-3-0"
     display="none"
     transform="matrix(6.7274 0 0 6.7274 -2043.3 -889.77)">
    <rect
       id="rect3745-8-1"
       opacity=".9"
       rx="6"
       ry="6"
       height="85"
       filter="url(#filter3174-5-3)"
       width="86"
       y="7"
       x="5"
       fill="url(#linearGradient6148)" />
  </g>
  <path
     id="path3848-0"
     d="m-752.07-490.39c-31.718 0.73046-61.283 23.617-71.031 53.75-10.408 29.448-0.1539 63.832 23.031 84.219 0.2111 0.18773 0.44298 0.34587 0.65625 0.53125 0.0607 0.0539 0.12666 0.1025 0.1875 0.15625 0.53347 0.4555 1.0471 0.93438 1.5938 1.375 0.0982 0.0801 0.21385 0.13919 0.3125 0.21875 0.0114 0.009 0.0198 0.0222 0.0312 0.0312 0.0924 0.0753 0.18851 0.14387 0.28125 0.21875 0.0114 0.009 0.0198 0.0222 0.0312 0.0312 0.081 0.066 0.16873 0.1218 0.25 0.1875 0.0115 0.009 0.0197 0.0223 0.0312 0.0312 0.0114 0.009 0.0198 0.0222 0.0312 0.0312 0.0682 0.0557 0.11908 0.13204 0.1875 0.1875 0.0806 0.0661 0.16909 0.12176 0.25 0.1875 0.26263 0.21589 0.51553 0.44392 0.78125 0.65625 0.0113 0.009 0.0199 0.0221 0.0312 0.0312v77.719l366.09 366.06h61.812c0.19472-5.1667 0.39905-10.333 0.59375-15.5l15.5-0.5625v-71.125c-0.11718-3.5064-0.66635-7.1765 2.9688-9.0938 17.971-15.566 29.967-38.912 28.375-63.031 0.24347-20.205-8.8362-39.465-23.031-53.562-0.13063-0.13149-0.27474-0.2444-0.40625-0.375l-343.3-342.95c-1.6885-1.8492-3.3938-3.742-5.125-5.5-0.12897-0.13157-0.24515-0.27555-0.375-0.40625-14.005-14.287-33.185-23.492-53.375-23.375-2.1284-0.1527-4.2605-0.20495-6.375-0.15625z"
     fill-opacity=".39216"
     display="none" />
  <path
     id="path11978-7"
     d="m-691.95-466.45c1.4663 1.516 2.9049 3.0642 4.25 4.6875 1.5801 1.907 3.0707 3.8973 4.4688 5.9375 1.398 2.0402 2.7063 4.1239 3.9062 6.2812 1.1999 2.1574 2.2954 4.3665 3.2812 6.625 0.98586 2.2585 1.8379 4.594 2.5938 6.9375 0.75581 2.3435 1.3964 4.7125 1.9062 7.125s0.90844 4.847 1.1562 7.3125c0.24781 2.4655 0.34265 4.9664 0.3125 7.4688 0.19898 3.0149 0.21091 6.023 0 9s-0.62772 5.932-1.2188 8.8438c-0.59103 2.9118-1.3711 5.7746-2.3125 8.5938-0.94136 2.8192-2.0506 5.582-3.3125 8.2812s-2.666 5.3231-4.2188 7.875c-1.5527 2.5519-3.2488 5.029-5.0625 7.4062s-3.7676 4.6686-5.8125 6.8438-4.1912 4.2418-6.4375 6.1875c-0.90877 0.47931-1.5415 1.0487-2 1.7188-0.45846 0.67003-0.72299 1.4189-0.875 2.2188-0.30402 1.5996-0.15234 3.403-0.0937 5.1562v71.125h-16.094v16.062h-61.812l350 350h61.812c0.19472-5.1667 0.39905-10.333 0.59375-15.5l15.5-0.5625v-71.125c-0.11718-3.5064-0.66635-7.1765 2.9688-9.0938 17.971-15.566 29.967-38.912 28.375-63.031 0.2435-20.205-8.8362-39.465-23.031-53.562-0.13063-0.13149-0.27474-0.2444-0.40625-0.375l-343.31-342.94c-1.6885-1.8492-3.3939-3.742-5.125-5.5zm-87.375 211.69v-16.062h-16.094l16.094 16.062z"
     fill-opacity=".39216"
     display="none" />
  <path
     id="path11980-69"
     d="m-964.54-281.7 425.16 425.12v-125.12l-300-300z"
     fill-opacity=".39216"
     display="none" />
  <g
     id="layer2-4-5"
     display="none"
     transform="matrix(6.7274 0 0 6.7274 -2800.6 -809.34)">
    <rect
       id="rect3745-3-6"
       opacity=".9"
       rx="6"
       ry="6"
       height="85"
       filter="url(#filter3174-3-2)"
       width="86"
       y="7"
       x="5"
       fill="url(#linearGradient6148)" />
  </g>
  <path
     id="path4230-6"
     d="m403.25 165.47c-2.1202 7.3447-36.402 181.33-29.267 189.98 6.1765 7.4828 15.826 4.2405 17.946-3.1042-2.1202 7.3447-6.3607 22.034-8.4809 29.379-17.946 3.1042-33.92-0.81668-37.444-17.946-4.0713-19.793 27.134-182.59 29.267-189.98-4.7411-8.958-29.531-15.826-33.772-1.1362l-7.9128-2.1202c18.514-34.603 53.838-9.3127 69.663-5.0722z"
     display="none" />
  <path
     id="path4232-3"
     d="m381.06 183.26c-26.427 32.483-124.22 164.54-147.96 158.17l-15.826-4.2405 12.153-12.569 7.9128 2.1202c15.826 4.2405 123.65-133.04 140.05-160.3 12.573-20.906 3.6724 16.81 3.6724 16.81z"
     display="none" />
  <path
     id="path4234-7"
     d="m318.18 253.45 47.477 12.721-4.2405 14.689-55.39-14.842z"
     display="none" />
  <ellipse
     id="path3281-0-0-60"
     rx="266.61"
     ry="248.8"
     transform="matrix(.96593 .25882 -.27735 .96077 0 0)"
     cy="141.15"
     cx="351.81"
     display="none"
     fill="url(#radialGradient26869-3)" />
  <path
     id="path4230-0-3"
     d="m403.25 165.47c-2.1202 7.3447-36.402 181.33-29.267 189.98 6.1765 7.4828 15.826 4.2405 17.946-3.1042-2.1202 7.3447-6.3607 22.034-8.4809 29.379-17.946 3.1042-33.92-0.81668-37.444-17.946-4.0713-19.793 27.134-182.59 29.267-189.98-4.7411-8.958-29.531-15.826-33.772-1.1362l-7.9128-2.1202c18.514-34.603 53.838-9.3127 69.663-5.0722z"
     display="none" />
  <path
     id="path4232-1-8"
     d="m381.06 183.26c-26.427 32.483-124.22 164.54-147.96 158.17l-15.826-4.2405 12.153-12.569 7.9128 2.1202c15.826 4.2405 123.65-133.04 140.05-160.3 12.573-20.906 3.6724 16.81 3.6724 16.81z"
     display="none" />
  <path
     id="path4234-6-3"
     d="m318.18 253.45 47.477 12.721-4.2405 14.689-55.39-14.842z"
     display="none" />
  <ellipse
     id="path3281-0-0-1-3"
     rx="266.61"
     transform="matrix(.96593 .25882 -.27735 .96077 0 0)"
     ry="248.8"
     cy="141.15"
     cx="351.81"
     display="none"
     fill="url(#radialGradient26869-3)" />
  <path
     id="path4230-8-1"
     d="m1810.2 423c-2.1203 7.3447-36.402 181.33-29.268 189.98 6.1765 7.4828 15.826 4.2405 17.946-3.1042-2.1203 7.3447-6.3608 22.034-8.4811 29.379-17.946 3.1042-33.92-0.81668-37.444-17.946-4.0713-19.793 27.134-182.59 29.268-189.98-4.7412-8.958-29.531-15.826-33.772-1.1362l-7.9128-2.1202c18.514-34.603 53.838-9.3127 69.663-5.0722z"
     display="none" />
  <path
     id="path4232-9-5"
     d="m1788 440.8c-26.427 32.483-124.22 164.54-147.96 158.17l-15.826-4.2405 12.153-12.569 7.9129 2.1202c15.826 4.2405 123.65-133.04 140.05-160.3 12.574-20.906 3.6724 16.81 3.6724 16.81z"
     display="none" />
  <path
     id="path4234-5-1"
     d="m1725.1 510.99 47.477 12.721-4.2405 14.689-55.39-14.842z"
     display="none" />
  <ellipse
     id="path3281-0-0-6-99"
     rx="266.61"
     ry="248.8"
     transform="matrix(.96593 .25882 -.27735 .96077 0 0)"
     cy="25.745"
     cx="1775.2"
     display="none"
     fill="url(#radialGradient26875-7)" />
  <g
     id="g3489"
     transform="translate(378.59155,-391.21126)">
    <path
       style="fill:#666666"
       d="m -352.59155,391.20255 c -14.397,0 -26,11.603 -26,26 l 0,460 c 0,14.397 11.603,26 26,26 l 460,0 c 14.397,0 26,-11.603 26,-26 l 0,-460 c 0,-14.397 -11.603,-26 -26,-26 l -460,0 z"
       id="rect2986"
       inkscape:connector-curvature="0" />
    <path
       d="m -120.87155,410.97155 0,69.581 -53.155,0 0,-63.982 c -0.98026,0.21766 -1.9587,0.41104 -2.9343,0.64083 l 0,63.341 -53.189,0 0,-43.779 c -0.98568,0.50487 -1.9567,1.0332 -2.9343,1.5515 l 0,42.227 -53.189,0 0,-3.7438 c -0.98881,0.9502 -1.9622,1.8998 -2.9343,2.8669 l 0,0.87693 -0.87693,0 c -0.95904,0.96404 -1.9245,1.954 -2.8669,2.9343 l 3.7438,0 0,53.155 -42.194,0 c -0.51854,0.9774 -1.0463,1.9488 -1.5515,2.9343 l 43.745,0 0,53.189 -63.307,0 c -0.2302,0.9761 -0.45651,1.9536 -0.67456,2.9343 l 63.982,0 0,53.189 -69.615,0 c 0.007,0.98383 0.0148,1.9534 0.0337,2.9343 l 69.581,0 0,53.189 -62.498,0 c 0.24759,0.9841 0.51585,1.9552 0.77575,2.9343 l 61.722,0 0,53.189 -40.372,0 c 0.54292,0.98424 1.0625,1.9587 1.619,2.9343 l 38.753,0 0,50.626 c 1.8794,1.8695 3.7927,3.6918 5.7338,5.4977 l 50.39,0 0,35.853 c 0.97759,0.51824 1.9487,1.0466 2.9343,1.5515 l 0,-37.404 53.189,0 0,56.967 c 0.97562,0.2298 1.9541,0.42318 2.9343,0.64084 l 0,-57.607 53.155,0 0,63.24 c 0.98953,-0.008 1.9815,-0.0146 2.9681,-0.0337 l 0,-63.206 53.155001,0 0,56.123 c 0.98182,-0.24705 1.9574,-0.51645 2.9343,-0.77575 l 0,-55.348 53.1889997,0 0,33.998 c 0.97911,-0.54021 1.9638,-1.0653 2.9343,-1.619 l 0,-32.379 43.9810003,0 c 1.0406,-0.96812 2.08,-1.9478 3.103,-2.9343 l -47.0840003,0 0,-53.189 53.1890003,0 0,47.118 c 0.98788,-1.0243 1.9649,-2.061 2.9343,-3.103 l 0,-44.015 32.345,0 c 0.5576,-0.97754 1.1087,-1.9481 1.6527,-2.9343 l -33.998,0 0,-53.189 55.347999,0 c 0.25988,-0.97913 0.52816,-1.9503 0.77574,-2.9343 l -56.122999,0 0,-53.189 63.172999,0 c 0.0189,-0.98091 0.0268,-1.9505 0.0337,-2.9343 l -63.205999,0 0,-53.189 57.606999,0 c -0.21806,-0.98074 -0.44436,-1.9582 -0.67456,-2.9343 l -56.932999,0 0,-53.189 37.371,0 c -0.50518,-0.9855 -1.0329,-1.9569 -1.5515,-2.9343 l -35.819,0 0,-50.288 c -1.8145,-1.9509 -3.6189,-3.9126 -5.4977,-5.8012 l -50.6260003,0 0,-38.72 c -0.97245,-0.5548 -1.9532,-1.1115 -2.9343,-1.6527 l 0,40.372 -53.1889997,0 0,-61.722 c -0.97687,-0.25929 -1.9525,-0.52871 -2.9343,-0.77575 l 0,62.498 -53.155001,0 0,-69.547 c -0.98665,-0.0192 -1.9785,-0.0267 -2.9681,-0.0337 z m -165.4,72.515 53.189,0 0,53.155 -53.189,0 0,-53.155 z m 56.123,0 53.189,0 0,53.155 -53.189,0 0,-53.155 z m 56.123,0 53.155,0 0,53.155 -53.155,0 0,-53.155 z m 56.123,0 53.155001,0 0,53.155 -53.155001,0 0,-53.155 z m 56.090001,0 53.1889997,0 0,53.155 -53.1889997,0 0,-53.155 z m 56.1229997,0 53.1890003,0 0,53.155 -53.1890003,0 0,-53.155 z m -280.5800007,56.09 53.189,0 0,53.189 -53.189,0 0,-53.189 z m 56.123,0 53.189,0 0,53.189 -53.189,0 0,-53.189 z m 56.123,0 53.155,0 0,53.189 -53.155,0 0,-53.189 z m 56.123,0 53.155001,0 0,53.189 -53.155001,0 0,-53.189 z m 56.090001,0 53.1889997,0 0,53.189 -53.1889997,0 0,-53.189 z m 56.1229997,0 53.1890003,0 0,53.189 -53.1890003,0 0,-53.189 z m -280.5800007,56.123 53.189,0 0,53.189 -53.189,0 0,-53.189 z m 56.123,0 53.189,0 0,53.189 -53.189,0 0,-53.189 z m 56.123,0 53.155,0 0,53.189 -53.155,0 0,-53.189 z m 56.123,0 53.155001,0 0,53.189 -53.155001,0 0,-53.189 z m 56.090001,0 53.1889997,0 0,53.189 -53.1889997,0 0,-53.189 z m 56.1229997,0 53.1890003,0 0,53.189 -53.1890003,0 0,-53.189 z m -280.5800007,56.123 53.189,0 0,53.189 -53.189,0 0,-53.189 z m 56.123,0 53.189,0 0,53.189 -53.189,0 0,-53.189 z m 56.123,0 53.155,0 0,53.189 -53.155,0 0,-53.189 z m 56.123,0 53.155001,0 0,53.189 -53.155001,0 0,-53.189 z m 56.090001,0 53.1889997,0 0,53.189 -53.1889997,0 0,-53.189 z m 56.1229997,0 53.1890003,0 0,53.189 -53.1890003,0 0,-53.189 z m -280.5800007,56.123 53.189,0 0,53.189 -53.189,0 0,-53.189 z m 56.123,0 53.189,0 0,53.189 -53.189,0 0,-53.189 z m 56.123,0 53.155,0 0,53.189 -53.155,0 0,-53.189 z m 56.123,0 53.155001,0 0,53.189 -53.155001,0 0,-53.189 z m 56.090001,0 53.1889997,0 0,53.189 -53.1889997,0 0,-53.189 z m 56.1229997,0 53.1890003,0 0,53.189 -53.1890003,0 0,-53.189 z m -280.5800007,56.123 53.189,0 0,53.189 -53.189,0 0,-53.189 z m 56.123,0 53.189,0 0,53.189 -53.189,0 0,-53.189 z m 56.123,0 53.155,0 0,53.189 -53.155,0 0,-53.189 z m 56.123,0 53.155001,0 0,53.189 -53.155001,0 0,-53.189 z m 56.090001,0 53.1889997,0 0,53.189 -53.1889997,0 0,-53.189 z"
       style="color:#000000;text-indent:0;text-decoration:none;text-decoration-line:none;text-transform:none;block-progression:tb;fill:url(#radialGradient4397-0)"
       id="path4219"
       inkscape:connector-curvature="0" />
    <path
       d="m -113.41155,489.32355 -52.365,178.37 -46.848,-46.848 -0.48047,0.88282 -23.869,46.492 -100.58,0.44141 0,0.68359 -0.041,0.72461 233.13,233.15 211.87,0 c 14.397,0 26,-11.603 26,-26 l 0,-181.02 -48.858999,-48.859 c -5.0682,-5.2286 -12.167,-8.4766 -20.027,-8.4766 -7.54,0 -14.36,3.0072 -19.375,7.8691 l -157.310001,-157.31 -1.25,-0.079 z"
       style="color:#000000;text-indent:0;text-decoration:none;text-decoration-line:none;text-transform:none;block-progression:tb;opacity:0.25"
       id="path102197"
       inkscape:connector-curvature="0" />
    <path
       d="m -113.41155,489.32255 -55.011,187.37 -43.599,-55.051 -0.60274,-0.80366 -0.48219,0.88403 -23.869,46.492 -100.58,0.44202 0,0.68312 -0.0402,0.7233 0.0402,0 104.32,12.457 0.44201,0.0401 0.20092,-0.36165 20.735,-33.031 51.555,74.7 0.76348,1.1251 0.40183,-1.2859 39.661,-123.72 41.148001,203.17 0.40182,1.9288 0.84385,-1.7279 58.949,-126.42 56.739,0.16074 c 4.1148,10.273 14.175,17.52 25.918,17.52 15.407,0 27.887,-12.48 27.887,-27.887 0,-15.407 -12.48,-27.887 -27.887,-27.887 -12.637,0 -23.292,8.4073 -26.722,19.931 l -64.856,0.76348 -0.36165,0 -0.2411,0.36166 -37.973,70.682 -46.532001,-241.18 -1.2457,-0.0804 z"
       style="color:#000000;text-indent:0;text-decoration:none;text-decoration-line:none;text-transform:none;block-progression:tb;fill:#ffffff"
       id="path4207"
       inkscape:connector-curvature="0" />
  </g>
</svg>
