<?xml version="1.0" encoding="UTF-8" standalone="no"?>
<!-- Created with Inkscape (http://www.inkscape.org/) -->

<svg
   xmlns:dc="http://purl.org/dc/elements/1.1/"
   xmlns:cc="http://creativecommons.org/ns#"
   xmlns:rdf="http://www.w3.org/1999/02/22-rdf-syntax-ns#"
   xmlns:svg="http://www.w3.org/2000/svg"
   xmlns="http://www.w3.org/2000/svg"
   xmlns:sodipodi="http://sodipodi.sourceforge.net/DTD/sodipodi-0.dtd"
   xmlns:inkscape="http://www.inkscape.org/namespaces/inkscape"
   id="svg2"
   height="100%"
   width="100%"
   version="1.1"
   viewBox="0 0 512 512"
   inkscape:version="0.91 r13725"
   sodipodi:docname="klavaro.svg">
  <defs
     id="defs17" />
  <sodipodi:namedview
     pagecolor="#ffffff"
     bordercolor="#666666"
     borderopacity="1"
     objecttolerance="10"
     gridtolerance="10"
     guidetolerance="10"
     inkscape:pageopacity="0"
     inkscape:pageshadow="2"
     inkscape:window-width="640"
     inkscape:window-height="480"
     id="namedview15"
     showgrid="false"
     inkscape:zoom="0.5546875"
     inkscape:cx="243.38028"
     inkscape:cy="218.14085"
     inkscape:current-layer="svg2" />
  <metadata
     id="metadata30">
    <rdf:RDF>
      <cc:Work
         rdf:about="">
        <dc:format>image/svg+xml</dc:format>
        <dc:type
           rdf:resource="http://purl.org/dc/dcmitype/StillImage" />
      </cc:Work>
    </rdf:RDF>
  </metadata>
  <path
     inkscape:connector-curvature="0"
     style="fill:#666666"
     id="path4"
     d="M 26,0 C 11.603,0 0,11.603 0,26 l 0,460 c 0,14.397 11.603,26 26,26 l 460,0 c 14.397,0 26,-11.603 26,-26 L 512,26 C 512,11.603 500.4,0 486,0 L 26,0" />
  <path
     inkscape:connector-curvature="0"
     style="opacity:0.25"
     id="path6"
     d="m 135.41,97.34 c -5.244,-0.071 -8.438,0.71 -5.344,4.094 l -3.531,-3.531 c -20.491,-0.338 -30.939,18.275 -24.781,32.625 l -3.844,-3.844 c 1.838,10.548 -3.347,24.01 2.094,33.06 l -2.1,-2.09 c 0.949,8.01 4.352,14.666 8.969,20.656 -0.18,-0.071 -0.351,-0.148 -0.531,-0.219 l 1.813,1.813 c 4.412,5.371 9.732,10.223 15.06,15.06 l 34.531,34.531 c -1.371,4.845 -1.136,10.09 0.906,14.844 l -3.844,-3.844 c 0.718,4.127 0.377,8.701 0,13.281 l -28.75,-28.781 c -0.975,-1.019 -1.519,-1.605 -1.781,-1.75 l -3.156,-3.156 c -15.557,-11.147 -18.651,-8.901 -14.625,-2.75 l -5.594,-5.594 c -6.771,2.207 -35.13,-4.537 -27.75,3.531 l -3.531,-3.531 c -20.493,-0.349 -30.939,18.25 -24.781,32.594 l -3.844,-3.844 c 1.837,10.556 -3.347,24.03 2.094,33.09 l -2.094,-2.094 c 0.948,7.985 4.335,14.647 8.938,20.625 -0.178,-0.071 -0.352,-0.149 -0.531,-0.219 l 1.719,1.719 c 4.435,5.422 9.814,10.309 15.188,15.188 l 15.16,15.13 c 0.005,0.006 -0.005,0.025 0,0.031 l 1.594,1.594 -3.969,0 c -20.49,-0.333 -30.914,18.278 -24.75,32.625 l -3.844,-3.844 c 1.838,10.548 -3.347,24.01 2.094,33.06 l -2.094,-2.094 c 0.945,8.01 4.352,14.664 8.969,20.656 -0.18,-0.071 -0.351,-0.148 -0.531,-0.219 l 1.594,1.594 c 4.544,5.584 10.1,10.609 15.625,15.625 l 89.03,89.03 320.81,0 c 14.397,0 26,-11.603 26,-26 l 0,-273.41 -98.22,-98.19 c -3.03,-3.093 -4.502,-4.744 -4.969,-5 l -3.156,-3.156 c -15.554,-11.148 -18.624,-8.901 -14.594,-2.75 l -5.594,-5.594 c -6.771,2.207 -35.13,-4.537 -27.75,3.531 l -3.531,-3.531 c -20.491,-0.338 -30.939,18.275 -24.781,32.625 l -3.844,-3.844 c 0.721,4.136 0.379,8.721 0,13.313 l -25.64,-25.59 c -3.107,-3.174 -4.575,-4.847 -5,-5.03 l -3.125,-3.125 c -15.553,-11.14 -18.602,-8.904 -14.563,-2.75 l -5.594,-5.594 c -6.789,2.203 -35.11,-4.532 -27.75,3.531 l -3.563,-3.531 c -20.491,-0.338 -30.939,18.275 -24.781,32.625 l -3.844,-3.844 c 0.719,4.127 0.378,8.7 0,13.281 l -25.594,-25.563 c -3.03,-3.093 -4.502,-4.744 -4.969,-5 l -3.156,-3.156 c -15.554,-11.148 -18.624,-8.901 -14.594,-2.75 l -5.594,-5.594 c -3.932,1.281 -15.14,-0.464 -22.406,-0.563" />
  <g
     id="g8"
     transform="matrix(1.314,0,0,1.314,749.14,-59.65)"
     style="fill:#ffffff">
    <rect
       style="fill:#ffffff"
       id="rect10"
       rx="21.775999"
       ry="21.895"
       height="67.370003"
       width="67.370003"
       y="206.53"
       x="-538.90997" />
    <rect
       style="fill:#ffffff"
       id="rect12"
       rx="21.775999"
       ry="21.895"
       height="67.370003"
       width="67.370003"
       y="206.53"
       x="-452.29001" />
    <rect
       style="fill:#ffffff"
       id="rect14"
       rx="21.775999"
       ry="21.895"
       height="67.370003"
       width="67.370003"
       y="206.53"
       x="-365.66" />
    <rect
       style="fill:#ffffff"
       id="rect16"
       rx="21.775999"
       ry="21.895"
       height="67.370003"
       width="67.370003"
       y="206.53"
       x="-279.04001" />
    <rect
       style="fill:#ffffff"
       id="rect18"
       rx="21.775999"
       ry="21.895"
       height="67.370003"
       width="67.370003"
       y="119.91"
       x="-495.60001" />
    <rect
       style="fill:#ffffff"
       id="rect20"
       rx="21.775999"
       ry="21.895"
       height="67.370003"
       width="67.370003"
       y="119.91"
       x="-408.98001" />
    <rect
       style="fill:#ffffff"
       id="rect22"
       rx="21.775999"
       ry="21.895"
       height="67.370003"
       width="67.370003"
       y="119.91"
       x="-322.35001" />
    <rect
       style="fill:#ffffff"
       id="rect24"
       rx="21.775999"
       ry="21.895"
       height="67.370003"
       width="312.81"
       y="293.14999"
       x="-531.69" />
  </g>
</svg>
