<?xml version="1.0" encoding="UTF-8" standalone="no"?>
<svg
   xmlns:dc="http://purl.org/dc/elements/1.1/"
   xmlns:cc="http://creativecommons.org/ns#"
   xmlns:rdf="http://www.w3.org/1999/02/22-rdf-syntax-ns#"
   xmlns:svg="http://www.w3.org/2000/svg"
   xmlns="http://www.w3.org/2000/svg"
   xmlns:sodipodi="http://sodipodi.sourceforge.net/DTD/sodipodi-0.dtd"
   xmlns:inkscape="http://www.inkscape.org/namespaces/inkscape"
   sodipodi:docname="mouse.svg"
   height="100%"
   width="100%"
   inkscape:version="0.91+devel r13804 custom"
   version="1.1"
   id="svg2"
   viewBox="0 0 512 512">
  <sodipodi:namedview
     pagecolor="#ffffff"
     bordercolor="#666666"
     borderopacity="1"
     objecttolerance="10"
     gridtolerance="10"
     guidetolerance="10"
     inkscape:pageopacity="0"
     inkscape:pageshadow="2"
     inkscape:window-width="1366"
     inkscape:window-height="709"
     id="namedview6"
     showgrid="false"
     showguides="true"
     inkscape:guide-bbox="true"
     inkscape:zoom="0.32593203"
     inkscape:cx="166.00104"
     inkscape:cy="81.844213"
     inkscape:window-x="-2"
     inkscape:window-y="-3"
     inkscape:window-maximized="1"
     inkscape:current-layer="svg2">
    <sodipodi:guide
       id="guide2989"
       position="260.08346,471.00503"
       orientation="0,1" />
    <sodipodi:guide
       id="guide2991"
       position="267.59322,40.983051"
       orientation="0,1" />
    <sodipodi:guide
       id="guide2993"
       position="40.940284,84.756935"
       orientation="1,0" />
    <sodipodi:guide
       id="guide2995"
       position="471.05085,254.98305"
       orientation="1,0" />
  </sodipodi:namedview>
  <metadata
     id="metadata10">
    <rdf:RDF>
      <cc:Work
         rdf:about="">
        <dc:format>image/svg+xml</dc:format>
        <dc:type
           rdf:resource="http://purl.org/dc/dcmitype/StillImage" />
        <dc:title></dc:title>
      </cc:Work>
    </rdf:RDF>
  </metadata>
  <defs
     id="defs8" />
  <path
     inkscape:connector-curvature="0"
     d="M 26,0 C 11.603,0 0,11.603 0,26 l 0,460 c 0,14.397 11.603,26 26,26 l 460,0 c 14.397,0 26,-11.603 26,-26 L 512,26 C 512,11.603 500.397,0 486,0 L 26,0"
     style="fill:#666666"
     id="path177293" />
  <g
     transform="translate(-611.9,-612.28)"
     line-height="125%"
     style="font-size:208.33000183px;line-height:125%;font-family:'Gentium Book Basic';letter-spacing:0;word-spacing:0"
     id="g177337">
  </g>
  <path
     style="fill-rule:evenodd;opacity:0.25"
     d="M 233.66016 41 C 160.96016 49.935 101.30086 118.9777 103.13086 192.2207 C 122.03073 211.16231 140.93913 230.09439 159.8457 249.0293 L 159.7793 249.0293 L 103.13086 192.38086 C 103.10763 210.52965 100.19716 231.91618 106.5332 249.0293 L 103.13086 249.0293 L 109.39258 255.29102 C 110.57176 257.40755 111.95343 259.42604 113.54297 261.33984 L 103.13086 261.33984 C 103.10469 281.78699 99.404908 306.35038 109.4043 324.27344 L 103.13086 318 C 105.22473 320.09761 107.32013 322.19348 109.41406 324.29102 C 109.4665 324.3849 109.51907 324.47875 109.57227 324.57227 L 103.13086 318.13086 C 101.0611 360.27729 121.65688 396.04565 148.44531 426.78516 L 147.90039 426.24023 C 150.76784 430.03251 153.88176 433.40884 157.19727 436.44531 C 167.29722 447.18146 177.97724 457.28179 188.46094 466.80078 L 233.66016 512 L 486 512 C 500.397 512 512 500.397 512 486 L 512 232.00781 C 508.61062 228.64063 505.22344 225.2714 501.83398 221.9043 L 364.10938 84.179688 L 364.09961 84.169922 C 348.91061 67.270922 300.23539 33.195937 289.90039 52.585938 L 408.11523 170.80078 C 408.11541 170.80206 408.11506 170.80341 408.11523 170.80469 L 278.31055 41 C 273.17746 59.665996 278.25023 75.445413 287.85156 88.994141 L 283.11133 84.253906 C 283.37144 84.81899 283.65006 85.370497 283.91797 85.929688 C 282.04799 84.090716 280.18142 82.248224 278.31055 80.410156 C 280.20507 82.29691 282.09429 84.188893 283.98828 86.076172 C 285.91206 90.077797 288.02924 93.932578 290.31836 97.658203 L 233.66016 41.001953 L 233.66016 41 z M 124.51953 339.51953 C 124.61134 339.57344 124.69455 339.63203 124.78711 339.68555 C 155.84209 370.78912 186.90377 401.88439 217.97266 432.97266 L 124.51953 339.51953 z "
     id="path177351" />
  <path
     inkscape:connector-curvature="0"
     d="M 233.66,41 C 159.807,51.79 103.13,115.36 103.13,192.22 l 0,0.156 0,56.656 130.53,0 0,-56.59 c -7.814,-4.984 -13,-13.663 -13,-23.656 l 0,-64.62 c 0,-9.994 5.186,-18.736 13,-23.719 l 0,-39.438 m 44.656,0 0,39.41 c 7.838,4.979 13.03,13.767 13.03,23.781 l 0,64.59 c 0,10.01 -5.192,18.74 -13.03,23.719 l 0,56.53 130.56,0 0,-56.625 0,-0.156 c 0,-76.83 -56.719,-140.43 -130.56,-151.25 m -24.813,60.16 c -10.05,0 -18.12,8.109 -18.12,18.16 l 0,34.31 c 0,10.05 8.08,18.13 18.13,18.13 l 5,0 c 10.05,0 18.16,-8.08 18.16,-18.12 l 0,-34.31 c 0,-10.05 -8.109,-18.16 -18.16,-18.16 l -5,0 m -150.37,160.19 0,56.656 0,0.125 c 0,84.43 68.41,152.88 152.84,152.88 84.43,0 152.91,-68.45 152.91,-152.87 l 0,-0.125 0,-56.656 -305.75,0"
     style="fill:#ffffff;fill-rule:evenodd"
     id="path177427" />
</svg>
