<?xml version="1.0" encoding="UTF-8" standalone="no"?>
<svg
   xmlns:dc="http://purl.org/dc/elements/1.1/"
   xmlns:cc="http://creativecommons.org/ns#"
   xmlns:rdf="http://www.w3.org/1999/02/22-rdf-syntax-ns#"
   xmlns:svg="http://www.w3.org/2000/svg"
   xmlns="http://www.w3.org/2000/svg"
   xmlns:sodipodi="http://sodipodi.sourceforge.net/DTD/sodipodi-0.dtd"
   xmlns:inkscape="http://www.inkscape.org/namespaces/inkscape"
   viewBox="0 0 512 512"
   id="svg2"
   version="1.1"
   inkscape:version="0.91+devel r13804 custom"
   width="100%"
   height="100%"
   sodipodi:docname="mpv.svg">
  <sodipodi:namedview
     inkscape:current-layer="svg2"
     inkscape:window-maximized="1"
     inkscape:window-y="-3"
     inkscape:window-x="-2"
     inkscape:cy="290.59344"
     inkscape:cx="335.78254"
     inkscape:zoom="0.32593203"
     inkscape:guide-bbox="true"
     showguides="true"
     showgrid="false"
     id="namedview6"
     inkscape:window-height="709"
     inkscape:window-width="1366"
     inkscape:pageshadow="2"
     inkscape:pageopacity="0"
     guidetolerance="10"
     gridtolerance="10"
     objecttolerance="10"
     borderopacity="1"
     bordercolor="#666666"
     pagecolor="#ffffff">
    <sodipodi:guide
       id="guide2989"
       position="260.08346,471.00503"
       orientation="0,1" />
    <sodipodi:guide
       id="guide2991"
       position="267.59322,40.983051"
       orientation="0,1" />
    <sodipodi:guide
       id="guide2993"
       position="40.940284,84.756935"
       orientation="1,0" />
    <sodipodi:guide
       id="guide2995"
       position="471.05085,254.98305"
       orientation="1,0" />
  </sodipodi:namedview>
  <metadata
     id="metadata10">
    <rdf:RDF>
      <cc:Work
         rdf:about="">
        <dc:format>image/svg+xml</dc:format>
        <dc:type
           rdf:resource="http://purl.org/dc/dcmitype/StillImage" />
        <dc:title></dc:title>
      </cc:Work>
    </rdf:RDF>
  </metadata>
  <defs
     id="defs8" />
  <path
     inkscape:connector-curvature="0"
     d="M 26,0 C 11.603,0 0,11.603 0,26 l 0,460 c 0,14.397 11.603,26 26,26 l 460,0 c 14.397,0 26,-11.603 26,-26 L 512,26 C 512,11.603 500.397,0 486,0 L 26,0"
     style="fill:#666666"
     id="path177844" />
  <path
     style="fill-rule:evenodd;opacity:0.25"
     d="M 256 40.029297 L 256 40.03125 C 136.7261 40.03125 40.029297 136.73001 40.029297 256.00391 C 40.029297 315.64388 64.202822 369.64094 103.28711 408.7207 L 103.44727 408.88086 C 103.39316 408.82686 103.33726 408.77476 103.2832 408.7207 L 206.5625 512 L 486 512 C 500.397 512 512 500.397 512 486 L 512 206.56836 L 408.7168 103.28516 C 369.63252 64.200865 315.63997 40.029297 256 40.029297 z "
     id="path177894" />
  <path
     inkscape:connector-curvature="0"
     d="M 256,40.02892 C 136.72609,40.02892 40.028921,136.72609 40.028921,256 40.028921,375.2739 136.72609,471.97108 256,471.97108 375.27391,471.97108 471.97108,375.2739 471.97108,256 471.97108,136.72609 375.27391,40.02892 256,40.02892 M 177.02663,148.02953 364.91996,254.38737 177.68977,358.05198 177.01608,148.03405"
     style="fill:#ffffff;fill-rule:evenodd"
     id="path177912" />
</svg>
