<?xml version="1.0" encoding="UTF-8" standalone="no"?>
<svg
   xmlns:dc="http://purl.org/dc/elements/1.1/"
   xmlns:cc="http://creativecommons.org/ns#"
   xmlns:rdf="http://www.w3.org/1999/02/22-rdf-syntax-ns#"
   xmlns:svg="http://www.w3.org/2000/svg"
   xmlns="http://www.w3.org/2000/svg"
   xmlns:sodipodi="http://sodipodi.sourceforge.net/DTD/sodipodi-0.dtd"
   xmlns:inkscape="http://www.inkscape.org/namespaces/inkscape"
   viewBox="0 0 512 512"
   id="svg2"
   version="1.1"
   inkscape:version="0.91+devel r13804 custom"
   width="100%"
   height="100%"
   sodipodi:docname="ms-excel.svg">
  <sodipodi:namedview
     inkscape:current-layer="svg2"
     inkscape:window-maximized="1"
     inkscape:window-y="-3"
     inkscape:window-x="-2"
     inkscape:cy="256.60914"
     inkscape:cx="422.36033"
     inkscape:zoom="0.4609375"
     inkscape:guide-bbox="true"
     showguides="true"
     showgrid="false"
     id="namedview6"
     inkscape:window-height="709"
     inkscape:window-width="1366"
     inkscape:pageshadow="2"
     inkscape:pageopacity="0"
     guidetolerance="10"
     gridtolerance="10"
     objecttolerance="10"
     borderopacity="1"
     bordercolor="#666666"
     pagecolor="#ffffff">
    <sodipodi:guide
       id="guide2989"
       position="260.08346,471.00503"
       orientation="0,1" />
    <sodipodi:guide
       id="guide2991"
       position="267.59322,40.983051"
       orientation="0,1" />
    <sodipodi:guide
       id="guide2993"
       position="40.940284,84.756935"
       orientation="1,0" />
    <sodipodi:guide
       id="guide2995"
       position="471.05085,254.98305"
       orientation="1,0" />
  </sodipodi:namedview>
  <metadata
     id="metadata10">
    <rdf:RDF>
      <cc:Work
         rdf:about="">
        <dc:format>image/svg+xml</dc:format>
        <dc:type
           rdf:resource="http://purl.org/dc/dcmitype/StillImage" />
        <dc:title></dc:title>
      </cc:Work>
    </rdf:RDF>
  </metadata>
  <defs
     id="defs8" />
  <path
     inkscape:connector-curvature="0"
     d="M 26,0 C 11.603,0 0,11.603 0,26 l 0,460 c 0,14.397 11.603,26 26,26 l 460,0 c 14.397,0 26,-11.603 26,-26 L 512,26 C 512,11.603 500.397,0 486,0 L 26,0"
     style="fill:#666666"
     id="path178972" />
  <path
     style="fill-rule:evenodd;opacity:0.25"
     d="M 288.75977 47.568359 L 41.001953 91.291016 L 41 91.291016 L 41 421.24023 L 131.75977 512 L 486 512 C 500.397 512 512 500.397 512 486 L 512 137.07227 L 470.73242 95.804688 L 470.73047 95.800781 C 470.55786 95.628168 470.31527 95.521205 470.05078 95.519531 L 336.71094 95.519531 L 336.70898 95.519531 L 288.75977 47.570312 L 288.75977 47.568359 z "
     id="path179022" />
  <path
     inkscape:connector-curvature="0"
     d="M 288.76,47.569 41,91.291 l 0,329.95 247.76,43.19 0,-416.86 m 10.362,47.951 c -0.52,0 -0.925,0.405 -0.925,0.925 l 0,24.557 c 0,-0.147 0.119,-0.264 0.264,-0.264 l 64.47,0 c 0.145,0 0.264,0.118 0.264,0.264 l 0,43.11 c 0,0.147 -0.125,0.264 -0.264,0.264 l -64.47,0 c -0.146,0 -0.264,-0.118 -0.264,-0.264 l 0,13.349 c 0,-0.146 0.119,-0.264 0.264,-0.264 l 64.47,0 c 0.145,0 0.264,0.118 0.264,0.264 l 0,43.11 c 0,0.147 -0.125,0.264 -0.264,0.264 l -64.47,0 c -0.146,0 -0.264,-0.118 -0.264,-0.264 l 0,13.349 c 0,-0.147 0.119,-0.264 0.264,-0.264 l 64.47,0 c 0.145,0 0.264,0.118 0.264,0.264 l 0,43.11 c 0,0.147 -0.125,0.264 -0.264,0.264 l -64.47,0 c -0.146,0 -0.264,-0.118 -0.264,-0.264 l 0,13.349 c 0,-0.147 0.119,-0.264 0.264,-0.264 l 64.47,0 c 0.145,0 0.264,0.118 0.264,0.264 l 0,43.09 c 0,0.147 -0.125,0.264 -0.264,0.264 l -64.47,0 c -0.146,0 -0.264,-0.119 -0.264,-0.264 l 0,13.376 c 0,-0.147 0.119,-0.264 0.264,-0.264 l 64.47,0 c 0.145,0 0.264,0.119 0.264,0.264 l 0,43.09 c 0,0.148 -0.125,0.264 -0.264,0.264 l -64.47,0 c -0.146,0 -0.264,-0.118 -0.264,-0.264 l 0,24.557 c 0,0.52 0.403,0.952 0.925,0.952 l 170.92,0 c 0.52,0 0.952,-0.43 0.952,-0.952 l 0,-318.05 c 0,-0.52 -0.43,-0.925 -0.952,-0.925 l -170.92,0 m 75.47,25.22 69.63,0 c 0.149,0 0.264,0.118 0.264,0.264 l 0,43.11 c 0,0.147 -0.115,0.264 -0.264,0.264 l -69.63,0 c -0.145,0 -0.264,-0.118 -0.264,-0.264 l 0,-43.11 c 0,-0.147 0.119,-0.264 0.264,-0.264 m 0,56.46 69.63,0 c 0.149,0 0.264,0.118 0.264,0.264 l 0,43.11 c 0,0.147 -0.115,0.264 -0.264,0.264 l -69.63,0 c -0.145,0 -0.264,-0.118 -0.264,-0.264 l 0,-43.11 c 0,-0.147 0.119,-0.264 0.264,-0.264 m -263.1,7.639 20.46,0 29.05,50.01 c 1.918,3.308 3.62,6.631 5.075,9.939 l 0.397,0 c 2.117,-4.366 3.963,-7.822 5.551,-10.336 l 30.27,-49.616 19.16,0 -44.753,70.55 45.33,71.77 -20.328,0 -32.752,-54.48 c -0.992,-1.654 -2.087,-4.01 -3.278,-7.06 l -0.397,0 c -0.662,1.522 -1.796,3.883 -3.384,7.06 l -33.73,54.48 -20.433,0 47.607,-71.56 -43.854,-70.76 m 263.1,48.823 69.63,0 c 0.149,0 0.264,0.118 0.264,0.264 l 0,43.11 c 0,0.147 -0.115,0.264 -0.264,0.264 l -69.63,0 c -0.145,0 -0.264,-0.118 -0.264,-0.264 l 0,-43.11 c 0,-0.147 0.119,-0.264 0.264,-0.264 m 0,56.46 69.63,0 c 0.149,0 0.264,0.118 0.264,0.264 l 0,43.09 c 0,0.147 -0.115,0.264 -0.264,0.264 l -69.63,0 c -0.145,0 -0.264,-0.119 -0.264,-0.264 l 0,-43.09 c 0,-0.147 0.119,-0.264 0.264,-0.264 m 0,56.46 69.63,0 c 0.149,0 0.264,0.118 0.264,0.264 l 0,43.09 c 0,0.148 -0.115,0.264 -0.264,0.264 l -69.63,0 c -0.145,0 -0.264,-0.119 -0.264,-0.264 l 0,-43.09 c 0,-0.147 0.119,-0.264 0.264,-0.264"
     style="fill:#ffffff;fill-rule:evenodd"
     id="path179286" />
</svg>
