<?xml version="1.0" encoding="UTF-8" standalone="no"?>
<svg
   xmlns:dc="http://purl.org/dc/elements/1.1/"
   xmlns:cc="http://creativecommons.org/ns#"
   xmlns:rdf="http://www.w3.org/1999/02/22-rdf-syntax-ns#"
   xmlns:svg="http://www.w3.org/2000/svg"
   xmlns="http://www.w3.org/2000/svg"
   xmlns:sodipodi="http://sodipodi.sourceforge.net/DTD/sodipodi-0.dtd"
   xmlns:inkscape="http://www.inkscape.org/namespaces/inkscape"
   viewBox="0 0 512 512"
   id="svg2"
   version="1.1"
   inkscape:version="0.91+devel r13804 custom"
   width="100%"
   height="100%"
   sodipodi:docname="ms-onenote.svg">
  <sodipodi:namedview
     inkscape:current-layer="svg2"
     inkscape:window-maximized="1"
     inkscape:window-y="-3"
     inkscape:window-x="-2"
     inkscape:cy="256.60914"
     inkscape:cx="422.36033"
     inkscape:zoom="0.4609375"
     inkscape:guide-bbox="true"
     showguides="true"
     showgrid="false"
     id="namedview6"
     inkscape:window-height="709"
     inkscape:window-width="1366"
     inkscape:pageshadow="2"
     inkscape:pageopacity="0"
     guidetolerance="10"
     gridtolerance="10"
     objecttolerance="10"
     borderopacity="1"
     bordercolor="#666666"
     pagecolor="#ffffff">
    <sodipodi:guide
       id="guide2989"
       position="260.08346,471.00503"
       orientation="0,1" />
    <sodipodi:guide
       id="guide2991"
       position="267.59322,40.983051"
       orientation="0,1" />
    <sodipodi:guide
       id="guide2993"
       position="40.940284,84.756935"
       orientation="1,0" />
    <sodipodi:guide
       id="guide2995"
       position="471.05085,254.98305"
       orientation="1,0" />
  </sodipodi:namedview>
  <metadata
     id="metadata10">
    <rdf:RDF>
      <cc:Work
         rdf:about="">
        <dc:format>image/svg+xml</dc:format>
        <dc:type
           rdf:resource="http://purl.org/dc/dcmitype/StillImage" />
        <dc:title></dc:title>
      </cc:Work>
    </rdf:RDF>
  </metadata>
  <defs
     id="defs8">
    <clipPath
       id="0-2">
      <path
         id="path180371"
         d="m26 0c-14.397 0-26 11.603-26 26v460c0 14.397 11.603 26 26 26h460c14.397 0 26-11.603 26-26v-460c0-14.397-11.603-26-26-26h-460" />
    </clipPath>
  </defs>
  <path
     inkscape:connector-curvature="0"
     d="M 26,0 C 11.603,0 0,11.603 0,26 l 0,460 c 0,14.397 11.603,26 26,26 l 460,0 c 14.397,0 26,-11.603 26,-26 L 512,26 C 512,11.603 500.397,0 486,0 L 26,0"
     style="fill:#666666"
     id="path180373" />
  <path
     style="fill-rule:evenodd;opacity:0.25"
     d="M 289.89062 46.628906 L 41 90.550781 L 41 422 L 131 512 L 486 512 C 500.397 512 512 500.397 512 486 L 512 154.85938 L 471 113.85938 L 461.83984 113.85938 L 442.75977 94.779297 L 338.04102 94.779297 L 289.89062 46.630859 L 289.89062 46.628906 z "
     id="path180423" />
  <path
     inkscape:connector-curvature="0"
     d="M 289.89,46.628 41,90.55 41,422 l 248.89,43.38 0,-418.74 m 9.421,48.15 0,41.874 109.4,0 0,16.488 -109.4,0 0,27.691 109.4,0 0,16.488 -109.4,0 0,27.691 109.4,0 0,16.488 -109.4,0 0,27.687 109.4,0 0,16.488 -109.4,0 0,27.691 109.4,0 0,16.488 -109.4,0 0,27.691 109.4,0 0,16.488 -109.4,0 0,42.14 142.85,0 0,-218.41 28.84,0 0,-83.9 -28.24,0 0,-19.08 -143.44,0 m -183.85,103.02 17.693,0 58.28,91.31 c 2.435,3.787 4,6.386 4.706,7.793 l 0.328,0 c -0.541,-3.355 -0.813,-9.07 -0.813,-17.13 l 0,-81.973 13.634,0 0,116.39 -16.718,0 -59.897,-92.77 c -1.515,-2.327 -2.759,-4.76 -3.733,-7.303 l -0.486,0 c 0.434,2.489 0.649,7.818 0.649,15.988 l 0,84.08 -13.637,0 0,-116.39 z m 338.78,15.272 0,84.8 16.751,0 0,-84.8 -16.751,0 m 0,94.74 0,84.8 16.751,0 0,-84.8 -16.751,0"
     style="fill:#ffffff;fill-rule:evenodd"
     id="path180543" />
</svg>
