<?xml version="1.0" encoding="UTF-8" standalone="no"?>
<svg
   xmlns:dc="http://purl.org/dc/elements/1.1/"
   xmlns:cc="http://creativecommons.org/ns#"
   xmlns:rdf="http://www.w3.org/1999/02/22-rdf-syntax-ns#"
   xmlns:svg="http://www.w3.org/2000/svg"
   xmlns="http://www.w3.org/2000/svg"
   xmlns:sodipodi="http://sodipodi.sourceforge.net/DTD/sodipodi-0.dtd"
   xmlns:inkscape="http://www.inkscape.org/namespaces/inkscape"
   viewBox="0 0 512 512"
   id="svg2"
   version="1.1"
   inkscape:version="0.91+devel r13804 custom"
   width="100%"
   height="100%"
   sodipodi:docname="ms-word.svg">
  <sodipodi:namedview
     inkscape:current-layer="svg2"
     inkscape:window-maximized="1"
     inkscape:window-y="-3"
     inkscape:window-x="-2"
     inkscape:cy="256.60914"
     inkscape:cx="422.36033"
     inkscape:zoom="0.4609375"
     inkscape:guide-bbox="true"
     showguides="true"
     showgrid="false"
     id="namedview6"
     inkscape:window-height="709"
     inkscape:window-width="1366"
     inkscape:pageshadow="2"
     inkscape:pageopacity="0"
     guidetolerance="10"
     gridtolerance="10"
     objecttolerance="10"
     borderopacity="1"
     bordercolor="#666666"
     pagecolor="#ffffff">
    <sodipodi:guide
       id="guide2989"
       position="260.08346,471.00503"
       orientation="0,1" />
    <sodipodi:guide
       id="guide2991"
       position="267.59322,40.983051"
       orientation="0,1" />
    <sodipodi:guide
       id="guide2993"
       position="40.940284,84.756935"
       orientation="1,0" />
    <sodipodi:guide
       id="guide2995"
       position="471.05085,254.98305"
       orientation="1,0" />
  </sodipodi:namedview>
  <metadata
     id="metadata10">
    <rdf:RDF>
      <cc:Work
         rdf:about="">
        <dc:format>image/svg+xml</dc:format>
        <dc:type
           rdf:resource="http://purl.org/dc/dcmitype/StillImage" />
        <dc:title></dc:title>
      </cc:Work>
    </rdf:RDF>
  </metadata>
  <defs
     id="defs8">
    <clipPath
       id="0-2">
      <path
         id="path180371"
         d="m26 0c-14.397 0-26 11.603-26 26v460c0 14.397 11.603 26 26 26h460c14.397 0 26-11.603 26-26v-460c0-14.397-11.603-26-26-26h-460" />
    </clipPath>
  </defs>
  <path
     inkscape:connector-curvature="0"
     d="M 26,0 C 11.603,0 0,11.603 0,26 l 0,460 c 0,14.397 11.603,26 26,26 l 460,0 c 14.397,0 26,-11.603 26,-26 L 512,26 C 512,11.603 500.397,0 486,0 L 26,0"
     style="fill:#666666"
     id="path181586" />
  <path
     style="fill-rule:evenodd;opacity:0.25"
     d="M 288.75977 47.568359 L 41.001953 91.291016 L 41 91.291016 L 41 421.24023 L 131.75977 512 L 486 512 C 500.397 512 512 500.397 512 486 L 512 137.07227 L 470.73242 95.804688 L 470.73047 95.800781 C 470.55786 95.628168 470.31527 95.521205 470.05078 95.519531 L 400.74023 95.519531 L 394.28906 95.519531 L 367.51367 95.519531 L 410.02344 138.0293 L 410.01953 138.0293 L 367.50977 95.519531 L 336.71094 95.519531 L 336.70898 95.519531 L 288.75977 47.570312 L 288.75977 47.568359 z "
     id="path181636" />
  <path
     inkscape:connector-curvature="0"
     d="M 288.76,47.569 41,91.291 l 0,329.95 247.76,43.19 0,-416.86 m 9.437,47.951 0,0.925 0,24.557 0,17.605 c 0,-0.328 0.254,-0.582 0.582,-0.582 l 143.06,0 c 0.328,0 0.608,0.254 0.608,0.582 l 0,17.208 c 0,0.328 -0.28,0.582 -0.608,0.582 l -143.06,0 c -0.328,0 -0.582,-0.254 -0.582,-0.582 l 0,36.928 c 0,-0.328 0.254,-0.582 0.582,-0.582 l 143.06,0 c 0.328,0 0.608,0.254 0.608,0.582 l 0,17.208 c 0,0.328 -0.28,0.582 -0.608,0.582 l -143.06,0 c -0.328,0 -0.582,-0.254 -0.582,-0.582 l 0,35.1 0,1.824 c 0,-0.328 0.254,-0.582 0.582,-0.582 l 143.06,0 c 0.328,0 0.608,0.254 0.608,0.582 l 0,17.208 c 0,0.328 -0.28,0.582 -0.608,0.582 l -143.06,0 c -0.328,0 -0.582,-0.254 -0.582,-0.582 l 0,12.953 0,13.349 0,10.626 c 0,-0.328 0.254,-0.582 0.582,-0.582 l 143.06,0 c 0.328,0 0.608,0.254 0.608,0.582 l 0,17.208 c 0,0.328 -0.28,0.582 -0.608,0.582 l -143.06,0 c -0.328,0 -0.582,-0.254 -0.582,-0.582 l 0,2.908 0,12.345 0,13.376 0,6.503 0,1.798 c 0,-0.328 0.254,-0.582 0.582,-0.582 l 143.06,0 c 0.328,0 0.608,0.254 0.608,0.582 l 0,17.208 c 0,0.328 -0.28,0.582 -0.608,0.582 l -143.06,0 c -0.328,0 -0.582,-0.254 -0.582,-0.582 l 0,17.579 0,24.557 0,0.952 0.925,0 25.852,0 42.532,0 26.777,0 6.45,0 69.31,0 c 0.52,0 0.952,-0.432 0.952,-0.952 l 0,-318.05 c 0,-0.52 -0.432,-0.925 -0.952,-0.925 l -69.31,0 -6.45,0 -26.777,0 -42.532,0 -25.852,0 -0.925,0 m -213.08,99.05 15.86,0 26.12,94.24 c 1.085,3.941 1.776,8.06 2.062,12.345 l 0.423,0 c 0.285,-3.03 1.185,-7.147 2.67,-12.345 l 27.15,-94.24 13.798,0 26.04,94.92 c 0.914,3.256 1.605,7.101 2.062,11.499 l 0.344,0 c 0.229,-2.97 0.986,-6.93 2.3,-11.842 l 25.11,-94.58 15.596,0 -34.708,122.86 -16.865,0 -25.27,-89.8 c -1.085,-3.827 -1.754,-7.991 -1.983,-12.503 l -0.344,0 c -0.343,4.227 -1.078,8.347 -2.22,12.345 l -25.456,89.95 -16.706,0 -35.977,-122.86"
     style="fill:#ffffff;fill-rule:evenodd"
     id="path181844" />
</svg>
