<?xml version="1.0" encoding="UTF-8" standalone="no"?>
<svg
   xmlns:dc="http://purl.org/dc/elements/1.1/"
   xmlns:cc="http://creativecommons.org/ns#"
   xmlns:rdf="http://www.w3.org/1999/02/22-rdf-syntax-ns#"
   xmlns:svg="http://www.w3.org/2000/svg"
   xmlns="http://www.w3.org/2000/svg"
   xmlns:sodipodi="http://sodipodi.sourceforge.net/DTD/sodipodi-0.dtd"
   xmlns:inkscape="http://www.inkscape.org/namespaces/inkscape"
   viewBox="0 0 512 512"
   id="svg2"
   version="1.1"
   inkscape:version="0.91+devel r13804 custom"
   width="100%"
   height="100%"
   sodipodi:docname="nicotine-plus.svg">
  <sodipodi:namedview
     inkscape:current-layer="svg2"
     inkscape:window-maximized="1"
     inkscape:window-y="-3"
     inkscape:window-x="-2"
     inkscape:cy="263.11761"
     inkscape:cx="324.73321"
     inkscape:zoom="0.4609375"
     inkscape:guide-bbox="true"
     showguides="true"
     showgrid="false"
     id="namedview6"
     inkscape:window-height="709"
     inkscape:window-width="1366"
     inkscape:pageshadow="2"
     inkscape:pageopacity="0"
     guidetolerance="10"
     gridtolerance="10"
     objecttolerance="10"
     borderopacity="1"
     bordercolor="#666666"
     pagecolor="#ffffff">
    <sodipodi:guide
       id="guide2989"
       position="260.08346,471.00503"
       orientation="0,1" />
    <sodipodi:guide
       id="guide2991"
       position="267.59322,40.983051"
       orientation="0,1" />
    <sodipodi:guide
       id="guide2993"
       position="40.940284,84.756935"
       orientation="1,0" />
    <sodipodi:guide
       id="guide2995"
       position="471.05085,254.98305"
       orientation="1,0" />
  </sodipodi:namedview>
  <metadata
     id="metadata10">
    <rdf:RDF>
      <cc:Work
         rdf:about="">
        <dc:format>image/svg+xml</dc:format>
        <dc:type
           rdf:resource="http://purl.org/dc/dcmitype/StillImage" />
        <dc:title></dc:title>
      </cc:Work>
    </rdf:RDF>
  </metadata>
  <defs
     id="defs8" />
  <path
     inkscape:connector-curvature="0"
     d="M 26,0 C 11.603,0 0,11.603 0,26 l 0,460 c 0,14.397 11.603,26 26,26 l 460,0 c 14.397,0 26,-11.603 26,-26 L 512,26 C 512,11.603 500.397,0 486,0 L 26,0"
     style="fill:#666666"
     id="path219054" />
  <path
     d="M 256 41 C 142.57 41 51.269531 132.3493 51.269531 245.7793 L 51.269531 376.2793 L 68.330078 393.33984 L 51.279297 393.33984 L 128.93945 471 L 128.92969 471 L 51.269531 393.33984 L 51.269531 471 L 92.269531 512 L 486 512 C 500.397 512 512 500.397 512 486 L 512 211.94922 L 400.88086 100.83008 C 363.88129 63.830502 312.71117 41.002479 256.00195 41.001953 L 256 41.001953 L 256 41 z "
     id="path219104"
     style="opacity:0.25" />
  <path
     inkscape:connector-curvature="0"
     d="M 256,41 C 142.57,41 51.27,132.35 51.27,245.78 l 0,130.5 89.26,0 0,-119.64 c 0,-63.969 51.49,-115.46 115.46,-115.46 63.969,0 115.46,51.49 115.46,115.46 l 0,125.44 89.26,0 0,-136.3 C 460.71,132.35 369.41,41 255.98,41 m -204.73,352.34 0,77.66 89.26,0 0,-77.66 -89.26,0 m 320.19,1.032 0,10.421 89.26,0 0,-10.421 -89.26,0 m 0,22.709 0,10.421 89.26,0 0,-10.421 -89.26,0 m 0,22.709 0,10.421 89.26,0 0,-10.421 -89.26,0 m 0,22.709 0,8.504 89.26,0 0,-8.504 -89.26,0"
     style="fill:#ffffff"
     id="path219168" />
</svg>
