<?xml version="1.0" encoding="UTF-8" standalone="no"?>
<svg
   xmlns:dc="http://purl.org/dc/elements/1.1/"
   xmlns:cc="http://creativecommons.org/ns#"
   xmlns:rdf="http://www.w3.org/1999/02/22-rdf-syntax-ns#"
   xmlns:svg="http://www.w3.org/2000/svg"
   xmlns="http://www.w3.org/2000/svg"
   xmlns:sodipodi="http://sodipodi.sourceforge.net/DTD/sodipodi-0.dtd"
   xmlns:inkscape="http://www.inkscape.org/namespaces/inkscape"
   viewBox="0 0 512 512"
   id="svg2"
   version="1.1"
   inkscape:version="0.91+devel r13804 custom"
   width="100%"
   height="100%"
   sodipodi:docname="outlook.svg">
  <sodipodi:namedview
     inkscape:current-layer="svg2"
     inkscape:window-maximized="1"
     inkscape:window-y="-3"
     inkscape:window-x="-2"
     inkscape:cy="111.2532"
     inkscape:cx="359.44507"
     inkscape:zoom="0.4609375"
     inkscape:guide-bbox="true"
     showguides="true"
     showgrid="false"
     id="namedview6"
     inkscape:window-height="709"
     inkscape:window-width="1366"
     inkscape:pageshadow="2"
     inkscape:pageopacity="0"
     guidetolerance="10"
     gridtolerance="10"
     objecttolerance="10"
     borderopacity="1"
     bordercolor="#666666"
     pagecolor="#ffffff">
    <sodipodi:guide
       id="guide2993"
       position="40.940284,84.756935"
       orientation="1,0" />
    <sodipodi:guide
       id="guide2995"
       position="471.05085,254.98305"
       orientation="1,0" />
  </sodipodi:namedview>
  <metadata
     id="metadata10">
    <rdf:RDF>
      <cc:Work
         rdf:about="">
        <dc:format>image/svg+xml</dc:format>
        <dc:type
           rdf:resource="http://purl.org/dc/dcmitype/StillImage" />
        <dc:title></dc:title>
      </cc:Work>
    </rdf:RDF>
  </metadata>
  <defs
     id="defs8">
    <clipPath
       id="0-3">
      <path
         id="path342588"
         d="m26 0c-14.397 0-26 11.603-26 26v460c0 14.397 11.603 26 26 26h460c14.397 0 26-11.603 26-26v-460c0-14.397-11.603-26-26-26h-460" />
    </clipPath>
  </defs>
  <path
     inkscape:connector-curvature="0"
     d="M 26,0 C 11.603,0 0,11.603 0,26 l 0,460 c 0,14.397 11.603,26 26,26 l 460,0 c 14.397,0 26,-11.603 26,-26 L 512,26 C 512,11.603 500.397,0 486,0 L 26,0"
     style="fill:#666666"
     id="path342590" />
  <path
     d="M 294.10938 41 L 41 89.470703 L 41 418.50977 L 134.49023 512 L 486 512 C 500.397 512 512 500.397 512 486 L 512 183.49023 L 465.50977 137 C 462.46477 133.955 458.76475 132.16016 456.09375 132.16016 L 470.77148 146.83789 C 470.7717 146.83916 470.77127 146.84053 470.77148 146.8418 L 456.08984 132.16016 L 385.26953 132.16016 L 294.10938 41 z "
     id="path342640"
     style="opacity:0.25" />
  <path
     inkscape:connector-curvature="0"
     d="M 294.11,41 41,89.47 41,418.51 294.11,471 l 0,-430 m 15.992,91.16 0,84.12 29.709,18.512 c 0.783,0.222 2.506,0.239 3.29,0 l 127.9,-85.28 c 0,-10.09 -9.535,-17.357 -14.908,-17.357 l -145.99,0 m -139.69,48.641 c 16.705,0 30.22,6.762 40.523,20.296 10.32,13.534 15.467,31.363 15.467,53.5 0.014,22.757 -5.331,41.09 -16.03,55.01 -10.696,13.922 -24.642,20.891 -41.853,20.891 -16.77,0 -30.412,-6.741 -40.976,-20.227 -10.549,-13.502 -15.852,-31.06 -15.852,-52.735 0,-22.885 5.369,-41.4 16.1,-55.54 10.728,-14.13 24.938,-21.21 42.622,-21.21 m 300.59,2.695 c 0,0 -129.94,85.36 -125.35,82.58 0,0 -4.612,2.778 -8.433,0 l -27.12,-18.407 0,114.29 137.77,0 c 12.247,0 23.13,-7.07 23.13,-23.901 l 0,-154.57 m -301.33,25.405 c -9.242,0 -16.608,4.302 -22.05,12.877 -5.438,8.577 -8.154,19.917 -8.154,34.05 0,14.341 2.716,25.68 8.154,34.01 5.437,8.35 12.599,12.492 21.416,12.492 9.09,0 16.303,-4.03 21.626,-12.142 5.322,-8.107 8.01,-19.379 8.01,-33.769 0,-15 -2.592,-26.679 -7.769,-35.03 -5.176,-8.334 -12.26,-12.492 -21.241,-12.492"
     style="fill:#ffffff"
     id="path342718" />
</svg>
