<?xml version="1.0" encoding="UTF-8" standalone="no"?>
<svg
   xmlns:dc="http://purl.org/dc/elements/1.1/"
   xmlns:cc="http://creativecommons.org/ns#"
   xmlns:rdf="http://www.w3.org/1999/02/22-rdf-syntax-ns#"
   xmlns:svg="http://www.w3.org/2000/svg"
   xmlns="http://www.w3.org/2000/svg"
   xmlns:sodipodi="http://sodipodi.sourceforge.net/DTD/sodipodi-0.dtd"
   xmlns:inkscape="http://www.inkscape.org/namespaces/inkscape"
   viewBox="0 0 512 512"
   id="svg2"
   version="1.1"
   inkscape:version="0.91+devel r13804 custom"
   width="100%"
   height="100%"
   sodipodi:docname="php.svg">
  <sodipodi:namedview
     inkscape:current-layer="svg2"
     inkscape:window-maximized="1"
     inkscape:window-y="-3"
     inkscape:window-x="-2"
     inkscape:cy="135.11761"
     inkscape:cx="244.46202"
     inkscape:zoom="0.4609375"
     inkscape:guide-bbox="true"
     showguides="true"
     showgrid="false"
     id="namedview6"
     inkscape:window-height="709"
     inkscape:window-width="1366"
     inkscape:pageshadow="2"
     inkscape:pageopacity="0"
     guidetolerance="10"
     gridtolerance="10"
     objecttolerance="10"
     borderopacity="1"
     bordercolor="#666666"
     pagecolor="#ffffff">
    <sodipodi:guide
       id="guide2993"
       position="40.940284,84.756935"
       orientation="1,0" />
    <sodipodi:guide
       id="guide2995"
       position="471.05085,254.98305"
       orientation="1,0" />
  </sodipodi:namedview>
  <metadata
     id="metadata10">
    <rdf:RDF>
      <cc:Work
         rdf:about="">
        <dc:format>image/svg+xml</dc:format>
        <dc:type
           rdf:resource="http://purl.org/dc/dcmitype/StillImage" />
        <dc:title></dc:title>
      </cc:Work>
    </rdf:RDF>
  </metadata>
  <defs
     id="defs8" />
  <path
     inkscape:connector-curvature="0"
     d="M 26,0 C 11.603,0 0,11.603 0,26 l 0,460 c 0,14.397 11.603,26 26,26 l 460,0 c 14.397,0 26,-11.603 26,-26 L 512,26 C 512,11.603 500.397,0 486,0 L 26,0"
     style="fill:#666666"
     id="path382558" />
  <path
     style="fill-rule:evenodd;opacity:0.25"
     d="M 220.50977 154.4707 L 205.54688 227.49805 L 188.36914 210.32031 C 180.12814 202.07931 167.45284 197.30953 150.33984 196.26953 L 199.77539 245.70508 C 199.77525 245.70832 199.77553 245.7116 199.77539 245.71484 L 150.33984 196.2793 L 74.009766 196.2793 L 41 357.5293 L 195.4707 512 L 486 512 C 500.397 512 512 500.397 512 486 L 512 262.82031 L 459.50977 210.33008 C 451.26177 202.08208 438.57322 197.29953 421.44922 196.26953 L 421.45898 196.2793 L 345.13086 196.2793 L 339.32227 224.65234 L 323.11914 208.44922 C 318.70813 204.03821 312.27942 200.60371 303.71875 198.47852 L 259.71094 154.4707 L 220.50977 154.4707 z "
     id="path382608" />
  <path
     inkscape:connector-curvature="0"
     d="m 220.51,154.47 -33.04,161.25 39.2,0 18.579,-89.59 30.965,0 c 14.443,0 14.42,5.967 12.357,15.92 l -14.431,73.67 41.28,0 14.431,-81.62 c 4.127,-19.907 -8.264,-35.839 -41.28,-37.829 l -37.13,0 8.267,-41.802 -39.2,0 m -146.5,41.802 -33.01,161.25 39.2,0 8.238,-41.802 37.13,0 c 35.08,1.991 74.29,-25.895 74.29,-73.67 0,-27.87 -16.501,-43.784 -49.51,-45.775 l -76.33,0 m 271.12,0 -33.01,161.25 39.2,0 8.238,-41.802 37.16,0 c 35.08,1.991 74.29,-25.895 74.29,-73.67 0,-27.87 -16.531,-43.784 -49.544,-45.775 l -76.33,0 m -238.11,29.855 26.817,0 c 14.443,0 24.772,5.962 24.772,17.907 -2.063,33.843 -18.588,39.841 -37.16,41.832 l -24.743,0 10.312,-59.738 m 271.12,0 26.817,0 c 14.443,0 24.772,5.962 24.772,17.907 -2.063,33.843 -18.588,39.841 -37.16,41.832 l -24.743,0 10.312,-59.738"
     style="fill:#ffffff;fill-rule:evenodd"
     id="path382692" />
</svg>
