<?xml version="1.0" encoding="UTF-8" standalone="no"?>
<svg
   xmlns:dc="http://purl.org/dc/elements/1.1/"
   xmlns:cc="http://creativecommons.org/ns#"
   xmlns:rdf="http://www.w3.org/1999/02/22-rdf-syntax-ns#"
   xmlns:svg="http://www.w3.org/2000/svg"
   xmlns="http://www.w3.org/2000/svg"
   xmlns:sodipodi="http://sodipodi.sourceforge.net/DTD/sodipodi-0.dtd"
   xmlns:inkscape="http://www.inkscape.org/namespaces/inkscape"
   viewBox="0 0 512 512"
   id="svg2"
   version="1.1"
   inkscape:version="0.91+devel r13804 custom"
   width="100%"
   height="100%"
   sodipodi:docname="pinta.svg">
  <sodipodi:namedview
     inkscape:current-layer="svg2"
     inkscape:window-maximized="1"
     inkscape:window-y="-3"
     inkscape:window-x="-2"
     inkscape:cy="135.11761"
     inkscape:cx="244.46202"
     inkscape:zoom="0.4609375"
     inkscape:guide-bbox="true"
     showguides="true"
     showgrid="false"
     id="namedview6"
     inkscape:window-height="709"
     inkscape:window-width="1366"
     inkscape:pageshadow="2"
     inkscape:pageopacity="0"
     guidetolerance="10"
     gridtolerance="10"
     objecttolerance="10"
     borderopacity="1"
     bordercolor="#666666"
     pagecolor="#ffffff">
    <sodipodi:guide
       id="guide2993"
       position="40.940284,84.756935"
       orientation="1,0" />
    <sodipodi:guide
       id="guide2995"
       position="471.05085,254.98305"
       orientation="1,0" />
  </sodipodi:namedview>
  <metadata
     id="metadata10">
    <rdf:RDF>
      <cc:Work
         rdf:about="">
        <dc:format>image/svg+xml</dc:format>
        <dc:type
           rdf:resource="http://purl.org/dc/dcmitype/StillImage" />
        <dc:title></dc:title>
      </cc:Work>
    </rdf:RDF>
  </metadata>
  <defs
     id="defs8" />
  <path
     inkscape:connector-curvature="0"
     d="m 25.99999,-3.3e-5 c -14.397,0 -26,11.603 -26,26 l 0,459.999993 c 0,14.397 11.603,26 26,26 l 460,0 c 14.397,0 26,-11.603 26,-26 l 0,-459.999993 c 0,-14.397 -11.603,-26 -26,-26 l -460,0"
     style="fill:#666666"
     id="path422640" />
  <g
     transform="translate(-694.41001,-493.53004)"
     line-height="125%"
     style="font-size:208.33000183px;line-height:125%;font-family:'Gentium Book Basic';letter-spacing:0;word-spacing:0"
     id="g422684">
  </g>
  <g
     transform="translate(-694.41001,-493.53004)"
     line-height="125%"
     style="line-height:125%;letter-spacing:0;word-spacing:0"
     id="g422702">
  </g>
  <path
     inkscape:connector-curvature="0"
     d="M 449.27149,80.501983 C 428.47677,79.953322 231.61915,266.92971 231.61915,266.92971 l 0.21093,0.21094 c -0.0787,-0.0505 -0.15154,-0.0999 -0.23046,-0.15039 l 245.01171,245.00977 9.38868,0 c 14.397,0 26,-11.603 26,-26 l 0,-348.60937 -49.55079,-49.550786 c -4.58391,-4.583916 -9.76368,-8.187408 -11.97656,-6.958984 l -0.0117,-0.01172 c -0.29109,-0.234375 -0.69038,-0.35402 -1.18945,-0.367188 z M 223.25977,274.66995 c -1.31177,-0.15697 -11.05581,7.67758 -15.16406,14.63867 -22.14835,-6.96015 -42.08715,-2.53536 -50.30664,4.74219 -26.90395,26.58896 -38.92065,56.32639 -58.236329,68.99023 l -0.002,-0.002 c -27.22,6.02 -45.920781,-21.41159 -58.550781,-15.1836 l 72.56055,72.56055 c -0.003,-0.001 -0.005,-0.003 -0.008,-0.004 L 40.99998,347.85925 c 0.906,14.07 9.15473,26.79045 19.92773,37.56445 l 126.57812,126.57618 281.29493,0 -216.63083,-216.63071 c -9.75488,-9.75489 -20.3043,-17.70255 -28.85938,-20.64844 l -0.0508,-0.0508 z"
     id="path422734"
     style="opacity:0.25" />
  <path
     style="fill:#ffffff"
     d="M 449.27148 80.501953 C 428.47676 79.953292 231.61914 266.92969 231.61914 266.92969 L 231.59961 266.97656 C 253.86861 281.23356 266.20161 293.74664 284.84961 319.80664 C 284.84961 319.80664 480.32439 114.00125 470.65039 101.40625 C 472.90439 97.085247 455.11394 78.280141 450.46094 80.869141 C 450.16984 80.634766 449.77056 80.515121 449.27148 80.501953 z M 223.25977 274.66992 C 221.94777 274.51292 212.20075 282.3505 208.09375 289.3125 C 185.94375 282.3505 166.0032 286.77473 157.7832 294.05273 C 130.8782 320.64273 118.85997 350.38387 99.542969 363.04688 C 72.322969 369.06687 53.622187 341.63333 40.992188 347.86133 C 43.808188 391.61233 117.58203 422.22266 117.58203 422.22266 C 224.87203 453.86766 254.92383 394.37305 254.92383 394.37305 C 270.10783 369.06005 260.62695 341.89258 260.62695 341.89258 C 267.44895 340.98258 279.09958 329.61336 277.01758 328.31836 C 266.73158 307.78136 240.78677 280.70117 223.25977 274.70117 L 223.25977 274.66992 z "
     id="path422746" />
</svg>
