<?xml version="1.0" encoding="UTF-8" standalone="no"?>
<svg
   xmlns:dc="http://purl.org/dc/elements/1.1/"
   xmlns:cc="http://creativecommons.org/ns#"
   xmlns:rdf="http://www.w3.org/1999/02/22-rdf-syntax-ns#"
   xmlns:svg="http://www.w3.org/2000/svg"
   xmlns="http://www.w3.org/2000/svg"
   xmlns:sodipodi="http://sodipodi.sourceforge.net/DTD/sodipodi-0.dtd"
   xmlns:inkscape="http://www.inkscape.org/namespaces/inkscape"
   viewBox="0 0 512 512"
   id="svg2"
   version="1.1"
   inkscape:version="0.91+devel r13804 custom"
   sodipodi:docname="preferences-online-accounts.svg">
  <metadata
     id="metadata77">
    <rdf:RDF>
      <cc:Work
         rdf:about="">
        <dc:format>image/svg+xml</dc:format>
        <dc:type
           rdf:resource="http://purl.org/dc/dcmitype/StillImage" />
        <dc:title></dc:title>
      </cc:Work>
    </rdf:RDF>
  </metadata>
  <sodipodi:namedview
     pagecolor="#ffffff"
     bordercolor="#666666"
     borderopacity="1"
     objecttolerance="10"
     gridtolerance="10"
     guidetolerance="10"
     inkscape:pageopacity="0"
     inkscape:pageshadow="2"
     inkscape:window-width="1366"
     inkscape:window-height="709"
     id="namedview75"
     showgrid="false"
     inkscape:zoom="0.4609375"
     inkscape:cx="101.26319"
     inkscape:cy="157.28814"
     inkscape:window-x="-2"
     inkscape:window-y="-3"
     inkscape:window-maximized="1"
     inkscape:current-layer="svg2"
     showguides="true" />
  <defs
     id="defs4" />
  <g
     line-height="125%"
     style="line-height:125%;font-family:'Gentium Book Basic';letter-spacing:0;word-spacing:0"
     id="g123827"
     transform="translate(0,5e-4)">
  </g>
  <path
     inkscape:connector-curvature="0"
     d="m 25.992,-0.0125 c -14.397,0 -26,11.603 -26,26 l 0,460 c 0,14.397 11.603,26 26,26 l 460,0 c 14.397,0 26,-11.603 26,-26 l 0,-460 c 0,-14.397 -11.603,-26 -26,-26 l -460,0"
     style="fill:#666666"
     id="path123879" />
  <path
     inkscape:connector-curvature="0"
     d="m 25.992,-0.0125 c -14.397,0 -26,11.603 -26,26 l 0,232.75 c 17.689,-13.975 51.23,-11.519 59.41,11.438 -9.229,-31.487 22.791,-56.2 40.75,-78.81 3.736,-11.04 25.951,-20.511 18.313,-5.844 13.02,-0.446 32.71,-22.719 9.594,-12.438 -0.327,-20.315 -20.231,-14.509 -26.688,-11.625 11.975,-18.03 73.51,-8.148 47.75,-37.625 -19.957,-7.672 -18.346,-52.44 -38.531,-27.5 1.698,-15.366 -41.09,-45.45 -40.16,-19.688 5.222,23.06 0.931,49.636 -10.188,64.75 -2.32,-33.787 -63.06,-26.372 -55.25,-62.37 11.314,-17.16 24.585,-40.853 25.844,-38.719 18.83,-6.822 34.21,-25.742 17.469,-39.656 -2.272,1.737 -4.522,3.488 -6.75,5.281 -3.383,8.306 -9.437,16.352 -12.03,11.688 l 0,-15.281 c 0,-0.79 -0.045,-1.576 -0.125,-2.344 l -3.406,0 m 50.656,0 c 1.324,1.88 2.574,4.179 3.75,7.06 23.08,12.618 2.041,34.04 -8.03,41.41 16.838,-9.377 46.32,37.28 38.28,11.375 -9.908,-6.863 26.63,11.02 7.688,-11.281 -17.431,-26.646 1.337,-11.906 8.688,-5.688 23.863,-20.3 -23.588,-23.58 -16.375,-42.875 l -34,0 m 89.88,0 c 2.161,0.576 4.54,0.588 5.875,0 l -5.875,0 m 12.813,0 c 0.685,7.01 -14.788,12.159 -1.344,19.438 -19.16,9.379 3.109,49.07 17.344,59 23.42,18.706 10.368,-39.623 36.5,-42.656 12.62,-13.669 33.686,-23.01 50.656,-35.781 l -103.16,0 m 278.91,0 c -15.882,13.98 -26.04,34.1 -37.719,51.813 -25.966,11.11 -25.01,58.792 4,43.563 7.765,12.866 -5.43,33.1 17.188,16.281 18.243,-22.903 3.204,-59.903 34.25,-74.34 2.261,11.23 -28.629,53.17 7.469,46.28 32.632,1.168 -23.684,3.068 -7.813,22.844 -16.49,-9.282 -7.944,25.341 -29.469,17.281 -18.647,9.622 -30.896,-4.471 -26.625,-19.906 -14.669,8.119 4.59,31.06 -20.875,32.438 -5.704,19.216 -52.612,16.276 -25.938,35.844 11.843,29.12 -44.11,1.837 -28.22,36.781 13.595,34.554 42.06,-11.427 53.625,-20.313 21.605,-15.903 53.29,25.25 37,29.344 20.504,-3.674 15.706,-23.17 -1.844,-30.813 -9.738,-23.959 30.812,11.8 28.563,23.813 14.313,25.426 8.435,-26.06 23,-3.281 -0.904,12.778 15.716,13.553 27.16,16.09 l 0,-25.09 c -16.414,-0.516 -30.401,-6.136 -10.969,-24.375 2.732,-1.556 7.01,-0.147 10.969,1.563 l 0,-149.81 c 0,-14.397 -11.603,-26 -26,-26 l -27.75,0 m -382.94,11.844 c -11.03,17.14 16.301,6.329 0,0 m 241.56,20.313 c -12.915,14.11 -29.94,-3.75 -30.22,8.375 2.341,3.664 11.709,29.827 32.25,10.531 11.02,-4.409 6.668,-15.498 -2.031,-18.906 m -275,8.375 c -24.497,20.3 41.602,22.21 5.188,2.375 l -5.188,-2.375 m 30.469,7.938 c -0.535,0.301 -1.024,0.673 -1.531,1.094 0.477,-0.314 0.981,-0.692 1.531,-1.094 m 292.41,48.5 c -16.997,10.994 8.791,33.898 0,44.719 -11.05,18.269 41.09,-1.269 13.25,-15.844 -1.907,-12.04 -15.256,-26.614 -13.188,-28.875 l -0.063,0 m -11.594,21.813 c -24.568,6.592 -5.579,40.618 3.125,8.563 0.489,-1.858 1.153,-8.624 -3.125,-8.563 m -196.75,24.594 c -22.861,14.79 -3.566,29.593 13.188,22.938 -3.44,-8.923 -13.03,-14.591 -13.188,-22.938 m 259.72,56.44 c -14.331,8.759 9.911,15.476 0,0 m 2.094,19.688 c -25.22,1.944 -56.46,1.7 -73.34,21.03 -18.262,23.769 -44.561,56.99 -24.656,87.34 19.917,44.969 69.29,2.312 97.69,28.875 8.439,11.07 -7.336,24.26 11.531,36.25 7.101,25.554 -8.06,49.819 9.375,74.25 9.02,22.973 14.656,57.36 48.22,36.38 12.954,-7.398 19.922,-17.07 24.969,-27.375 l 0,-231.91 c -23.828,3.531 -47.27,-6.188 -67.813,0.469 -19.83,-0.167 -18.745,-20.276 -25.969,-25.313 m -361.97,61.969 c -2.416,7.647 45.32,15.407 12.375,3.156 l -4.906,-1.656 -7.469,-1.5 m -25.406,5.594 c -8.704,8.213 -21.944,10.562 -30.844,6.281 l 0,18.438 c 4.936,1.663 10.122,3.03 15.563,4.125 19.517,6.298 35.586,27.957 52.75,23.19 9.706,24.272 -28.774,47.576 1.281,70.22 15.689,22.92 42.07,37.98 27.813,70.16 -3.373,10.629 -5.134,21.567 -6.313,32.531 l 61.19,0 c 1.608,-4.077 4.969,-6.842 14.656,-5.531 16.448,-20.453 21.18,-44.884 48.938,-53 3.316,-24.827 46.16,-62.829 1.906,-72.5 -12.03,-5.624 -42.997,-7.6 -40.625,-10.375 4.795,-24.64 -40.01,-31.702 -59.09,-41.781 -25.05,-16.869 -62.706,28.02 -71.53,-10.656 -5.265,-12.17 -24.53,-12.315 -15.688,-31.09 m 62.44,5.281 c -14.475,13.948 29.836,4.167 0,0"
     style="fill:#ffffff;fill-opacity:0.33000004"
     id="path123881" />
  <g
     line-height="125%"
     style="line-height:125%;font-family:'Gentium Book Basic';letter-spacing:0;word-spacing:0"
     id="g123925"
     transform="translate(0,5e-4)">
  </g>
  <g
     line-height="125%"
     style="line-height:125%;font-family:'Gentium Book Basic';letter-spacing:0;word-spacing:0"
     id="g123973"
     transform="translate(0,5e-4)">
  </g>
  <path
     d="M 363.50977 75.046875 L 511.99219 223.5293 L 511.99219 197.39648 L 408.11523 93.519531 C 408.15657 93.560848 408.19511 93.605053 408.23633 93.646484 L 408.10938 93.519531 C 396.69637 82.106531 380.92977 75.046875 363.50977 75.046875 z M 148.53906 75.050781 C 113.70706 75.050781 85.470703 103.29109 85.470703 138.12109 L 148.55078 201.20117 L 148.54102 201.20117 L 148.53906 201.20117 L 148.53516 201.19531 L 85.460938 138.12109 C 85.460938 155.53209 92.5195 171.30075 103.9375 182.71875 L 103.93945 182.7207 L 126.69922 205.48047 L 121.75 205.48047 C 77.226 205.48047 41 241.70047 41 286.23047 L 41 351.69141 L 41.1875 352.67773 L 200.49805 511.98828 L 485.99219 511.98828 C 500.38919 511.98828 511.99219 500.38528 511.99219 485.98828 L 511.99219 223.53125 L 363.50977 75.050781 C 329.00977 75.055781 301.01047 102.80169 300.48047 137.17969 L 325.42578 162.125 C 330.87935 170.81957 334.66762 180.65279 336.32617 191.19727 L 303.79883 158.66992 C 303.86755 158.73864 303.93159 158.81183 304 158.88086 L 303.78906 158.66992 C 292.37292 147.25378 276.59327 140.19637 259.17383 140.19531 L 259.16992 140.19141 C 253.25922 140.19141 247.54629 141.02041 242.12109 142.53906 L 193.12305 93.542969 L 193.08984 93.509766 C 181.6877 82.107623 165.94141 75.055747 148.54297 75.054688 L 148.53906 75.050781 z "
     id="path124027"
     style="opacity:0.25" />
  <path
     inkscape:connector-curvature="0"
     d="m 148.54,75.0505 c -34.832,0 -63.07,28.24 -63.07,63.07 0,34.817 28.24,63.07 63.07,63.07 12.337,0 23.787,-3.596 33.511,-9.729 3.091,-20.16 13.935,-37.818 29.375,-49.82 0.065,-1.181 0.141,-2.334 0.141,-3.525 0,-34.832 -28.21,-63.07 -63.03,-63.07 m 214.98,0 c -34.5,0.005 -62.5,27.752 -63.03,62.13 19.883,12.467 33.836,33.558 36.38,58.04 8.103,3.789 17.11,5.969 26.649,5.969 34.832,0 63.07,-28.25 63.07,-63.07 0,-34.832 -28.24,-63.07 -63.07,-63.07 m -104.34,65.14 c -34.832,0 -63.07,28.2 -63.07,63.03 0,34.832 28.25,63.07 63.07,63.07 34.832,0 63.07,-28.25 63.07,-63.07 0,-34.832 -28.25,-63.03 -63.07,-63.03 m -137.43,65.28 c -44.524,0 -80.75,36.22 -80.75,80.75 l 0,65.47 0.188,0.987 4.512,1.41 c 34.09,10.647 64.48,15.563 90.9,17.11 l 0,-19.74 c 0.011,-43.35 28.984,-80.06 68.57,-91.84 -14.274,-13.689 -23.31,-32.699 -23.97,-53.815 -1.969,-0.144 -3.916,-0.329 -5.922,-0.329 l -53.53,0 m 215.45,0 c -0.575,21.251 -9.678,40.38 -24.02,54.14 39.577,11.769 68.53,48.49 68.53,91.84 l 0,20.16 c 52.43,-1.927 82.66,-16.808 84.65,-17.813 l 4.23,-2.115 0.423,0 0,-65.47 c 0,-44.504 -36.19,-80.72 -80.7,-80.75 l -53.11,0 m -104.76,65.09 c -44.524,0 -80.75,36.28 -80.75,80.79 l 0,65.42 0.141,1.034 4.512,1.41 c 42.488,13.271 79.41,17.719 109.79,17.719 59.35,0 93.75,-16.923 95.88,-18 l 4.23,-2.162 0.423,0 0,-65.42 c 0.005,-44.52 -36.22,-80.79 -80.75,-80.79 l -53.49,0"
     style="fill:#ffffff"
     id="path124137" />
</svg>
