<?xml version="1.0" encoding="UTF-8" standalone="no"?>
<svg
   xmlns:dc="http://purl.org/dc/elements/1.1/"
   xmlns:cc="http://creativecommons.org/ns#"
   xmlns:rdf="http://www.w3.org/1999/02/22-rdf-syntax-ns#"
   xmlns:svg="http://www.w3.org/2000/svg"
   xmlns="http://www.w3.org/2000/svg"
   xmlns:sodipodi="http://sodipodi.sourceforge.net/DTD/sodipodi-0.dtd"
   xmlns:inkscape="http://www.inkscape.org/namespaces/inkscape"
   viewBox="0 0 512 512"
   id="svg2"
   version="1.1"
   inkscape:version="0.91+devel r13804 custom"
   sodipodi:docname="preferences-desktop-default-applications.svg">
  <metadata
     id="metadata77">
    <rdf:RDF>
      <cc:Work
         rdf:about="">
        <dc:format>image/svg+xml</dc:format>
        <dc:type
           rdf:resource="http://purl.org/dc/dcmitype/StillImage" />
        <dc:title></dc:title>
      </cc:Work>
    </rdf:RDF>
  </metadata>
  <sodipodi:namedview
     pagecolor="#ffffff"
     bordercolor="#666666"
     borderopacity="1"
     objecttolerance="10"
     gridtolerance="10"
     guidetolerance="10"
     inkscape:pageopacity="0"
     inkscape:pageshadow="2"
     inkscape:window-width="1366"
     inkscape:window-height="709"
     id="namedview75"
     showgrid="false"
     inkscape:zoom="0.4609375"
     inkscape:cx="91.118644"
     inkscape:cy="157.28814"
     inkscape:window-x="-2"
     inkscape:window-y="-3"
     inkscape:window-maximized="1"
     inkscape:current-layer="svg2"
     showguides="false" />
  <defs
     id="defs4" />
  <rect
     y="0"
     x="0"
     rx="25.988001"
     height="512"
     width="512"
     style="fill:#666666"
     id="rect4450" />
  <path
     inkscape:connector-curvature="0"
     d="M 0,255.72 0,486 c 0,14.397 11.603,26 26,26 l 230.06,0 0,-256.28 -256.06,0"
     style="fill:#666666"
     id="path4452" />
  <path
     inkscape:connector-curvature="0"
     d="m 256.06,255.72 0,256.28 229.94,0 c 14.397,0 26,-11.603 26,-26 l 0,-230.28 -255.94,0"
     style="fill:#666666"
     id="path4454" />
  <path
     inkscape:connector-curvature="0"
     d="M 26,0 C 11.603,0 0,11.603 0,26 l 0,229.72 256.06,0 L 256.06,0 26,0"
     style="fill:#666666"
     id="path4456" />
  <g
     line-height="125%"
     style="line-height:125%;font-family:'Gentium Book Basic';letter-spacing:0;word-spacing:0"
     id="g4500">
    <g
       style="font-size:208.33000183px"
       id="g4502">
    </g>
  </g>
  <g
     style="fill:#666666"
     id="g4524">
  </g>
  <g
     line-height="125%"
     style="font-size:208.33000183px;line-height:125%;font-family:'Gentium Book Basic';letter-spacing:0;word-spacing:0;fill:#000000"
     id="g4540">
  </g>
  <g
     transform="translate(-978.44,-123.66)"
     id="g4550">
    <g
       line-height="125%"
       style="line-height:125%;font-family:'Gentium Book Basic';letter-spacing:0;word-spacing:0"
       id="g4552">
    </g>
    <g
       style="fill:#666666"
       id="g4562">
    </g>
    <g
       line-height="125%"
       style="font-size:208.33000183px;line-height:125%;font-family:'Gentium Book Basic';letter-spacing:0;word-spacing:0;fill:#000000"
       id="g4578">
    </g>
  </g>
  <path
     style="fill:#000000;fill-rule:evenodd;opacity:0.25"
     d="M 255.28906 50.683594 L 277.65039 73.044922 C 277.65306 73.049544 277.65553 73.05397 277.6582 73.058594 L 255.28906 50.689453 C 230.80356 50.799433 201.33475 159.90005 181.5918 174.41211 L 181.58984 174.41016 C 161.83984 188.88716 48.881922 184.2093 41.419922 207.5293 C 39.369922 213.9283 45.008688 223.21755 54.429688 233.81055 L 54.478516 233.85938 C 59.880031 239.92791 66.523239 246.42448 73.667969 253.04883 L 136.2207 315.60156 C 136.25195 315.68996 136.29151 315.78183 136.32031 315.86914 L 136.31836 315.86914 C 143.84436 338.67914 106.09622 441.15677 123.44922 458.50977 L 176.93945 512 L 486.01172 512 C 500.40907 512 512 500.40907 512 486.01172 L 512 245.66016 L 467.99023 201.65039 C 458.20692 191.86655 425.93762 188.37109 394.7168 185.31641 L 265.58984 56.189453 C 265.6236 56.223209 265.65764 56.260889 265.69141 56.294922 L 265.58789 56.191406 C 262.07289 52.675406 258.62406 50.668594 255.28906 50.683594 z "
     id="path4590" />
  <path
     inkscape:connector-curvature="0"
     d="m 389.73,458.22 c -19.743,14.48 -108.38,-55.697 -132.86,-55.58 -24.484,0.11 -112.48,71.07 -132.36,56.776 -19.872,-14.302 19.48,-120.29 11.811,-143.54 -7.67,-23.25 -102.37,-85.02 -94.9,-108.34 7.462,-23.32 120.42,-18.643 140.17,-33.12 19.743,-14.48 49.22,-123.62 73.71,-123.73 24.484,-0.11 54.943,108.76 74.81,123.07 19.872,14.302 132.78,8.615 140.45,31.868 7.67,23.25 -86.47,85.86 -93.92,109.18 -7.462,23.32 32.837,128.95 13.09,143.43"
     style="fill:#ffffff;fill-rule:evenodd"
     id="path4622" />
</svg>
