<?xml version="1.0" encoding="UTF-8" standalone="no"?>
<svg
   xmlns:dc="http://purl.org/dc/elements/1.1/"
   xmlns:cc="http://creativecommons.org/ns#"
   xmlns:rdf="http://www.w3.org/1999/02/22-rdf-syntax-ns#"
   xmlns:svg="http://www.w3.org/2000/svg"
   xmlns="http://www.w3.org/2000/svg"
   xmlns:sodipodi="http://sodipodi.sourceforge.net/DTD/sodipodi-0.dtd"
   xmlns:inkscape="http://www.inkscape.org/namespaces/inkscape"
   viewBox="0 0 512 512"
   id="svg2"
   version="1.1"
   inkscape:version="0.91+devel r13804 custom"
   sodipodi:docname="preferences-desktop-cryptography.svg">
  <metadata
     id="metadata77">
    <rdf:RDF>
      <cc:Work
         rdf:about="">
        <dc:format>image/svg+xml</dc:format>
        <dc:type
           rdf:resource="http://purl.org/dc/dcmitype/StillImage" />
        <dc:title></dc:title>
      </cc:Work>
    </rdf:RDF>
  </metadata>
  <sodipodi:namedview
     pagecolor="#ffffff"
     bordercolor="#666666"
     borderopacity="1"
     objecttolerance="10"
     gridtolerance="10"
     guidetolerance="10"
     inkscape:pageopacity="0"
     inkscape:pageshadow="2"
     inkscape:window-width="1366"
     inkscape:window-height="709"
     id="namedview75"
     showgrid="false"
     inkscape:zoom="0.4609375"
     inkscape:cx="91.118644"
     inkscape:cy="157.28814"
     inkscape:window-x="-2"
     inkscape:window-y="-3"
     inkscape:window-maximized="1"
     inkscape:current-layer="svg2" />
  <defs
     id="defs4" />
  <path
     inkscape:connector-curvature="0"
     d="M 26,0 C 11.603,0 0,11.603 0,26 l 0,460 c 0,14.397 11.603,26 26,26 l 460,0 c 14.397,0 26,-11.603 26,-26 L 512,26 C 512,11.603 500.397,0 486,0 L 26,0"
     style="fill:#666666"
     id="path4036" />
  <path
     d="M 254.32031 41.660156 L 196.08008 72.195312 L 282.39258 158.50781 C 282.39058 158.50729 282.38871 158.50638 282.38672 158.50586 L 196.08008 72.199219 C 164.05543 88.993411 116.06708 109.80931 89.314453 118.50391 L 89.310547 118.5 C 33.930547 136.496 33.550266 137.69961 51.697266 209.09961 L 172.83984 330.24219 L 172.83984 330.24609 L 51.693359 209.09961 C 70.991359 284.99861 115.17383 361.83961 166.67383 413.34961 L 265.32422 512 L 486 512 C 500.397 512 512 500.397 512 486 L 512 176.99023 L 470.91016 135.90039 L 470.9082 135.90039 C 470.01613 135.03515 435.67281 121.08226 394.67969 104.75 C 353.66969 88.424 305.38078 67.42 287.30078 58.25 L 254.33984 41.667969 L 447.54883 234.87695 C 447.54775 234.88028 447.546 234.88339 447.54492 234.88672 L 254.32031 41.660156 z "
     id="path4086"
     style="opacity:0.25" />
  <path
     inkscape:connector-curvature="0"
     d="m 254.32,41.66 -58.24,30.536 c -32.03,16.797 -80.03,37.618 -106.78,46.31 -55.38,17.996 -55.76,19.2 -37.613,90.6 24.937,98.08 91.42,197.73 161.58,242.26 39.951,25.355 48.966,25.32 83.925,-0.202 77.853,-56.84 135.82,-148.68 161.18,-254.8 7.741,-32.425 13.418,-59.6 12.538,-60.46 -0.881,-0.861 -35.23,-14.815 -76.23,-31.15 -41.01,-16.326 -89.3,-37.33 -107.38,-46.5 L 254.339,41.671 m -11.123,115.06 25.278,0 c 29.898,0 53.992,23.894 53.992,53.791 l 0,38.02 16.583,0 0,106.78 -166.23,0 0,-106.78 16.38,0 0,-38.02 c 0,-29.898 24.1,-53.791 53.992,-53.791 m -3.842,27.1 c -14.851,0 -26.693,11.843 -26.693,26.693 l 0,38.02 86.35,0 0,-38.02 c 0,-14.851 -11.843,-26.693 -26.693,-26.693 l -32.961,0"
     style="fill:#ffffff"
     id="path4146" />
</svg>
