<?xml version="1.0" encoding="UTF-8" standalone="no"?>
<svg
   xmlns:dc="http://purl.org/dc/elements/1.1/"
   xmlns:cc="http://creativecommons.org/ns#"
   xmlns:rdf="http://www.w3.org/1999/02/22-rdf-syntax-ns#"
   xmlns:svg="http://www.w3.org/2000/svg"
   xmlns="http://www.w3.org/2000/svg"
   xmlns:sodipodi="http://sodipodi.sourceforge.net/DTD/sodipodi-0.dtd"
   xmlns:inkscape="http://www.inkscape.org/namespaces/inkscape"
   viewBox="0 0 512 512"
   id="svg2"
   version="1.1"
   inkscape:version="0.91 r13725"
   sodipodi:docname="qmplay2.svg">
  <metadata
     id="metadata77">
    <rdf:RDF>
      <cc:Work
         rdf:about="">
        <dc:format>image/svg+xml</dc:format>
        <dc:type
           rdf:resource="http://purl.org/dc/dcmitype/StillImage" />
        <dc:title />
      </cc:Work>
    </rdf:RDF>
  </metadata>
  <sodipodi:namedview
     pagecolor="#ffffff"
     bordercolor="#666666"
     borderopacity="1"
     objecttolerance="10"
     gridtolerance="10"
     guidetolerance="10"
     inkscape:pageopacity="0"
     inkscape:pageshadow="2"
     inkscape:window-width="1366"
     inkscape:window-height="709"
     id="namedview75"
     showgrid="false"
     inkscape:zoom="0.32593203"
     inkscape:cx="-385.9899"
     inkscape:cy="69.631139"
     inkscape:window-x="-2"
     inkscape:window-y="-3"
     inkscape:window-maximized="1"
     inkscape:current-layer="svg2"
     showguides="true" />
  <defs
     id="defs4">
    <path
       style="fill:#ffffff"
       id="0"
       d="m350.45 319.42v-94.57h-3.967v53.54c0 5.293-.771 10.322-2.35 15.06-1.579 4.813-3.967 9.03-7.126 12.738-3.046 3.563-6.863 6.468-11.497 8.668-4.588 2.096-9.956 3.121-16.01 3.121-4.371 0-8.517-.62-12.485-1.73-3.817-1.25-7.239-3.01-10.285-5.547-2.905-2.538-5.218-5.688-6.9-9.551-1.73-3.93-1.871-8.781-1.871-14.318l-3.892.62c0 1.467 0 3.121 0 4.484.216 3.779.555 7.239 1.796 10.388 1.833 4.118 4.334 7.643 7.53 10.689 3.272 2.792 7.126 4.954 11.46 6.43 4.484 1.363 9.363 2.02 14.656 2.02 10.02 0 18.14-2.388 24.349-7.164 6.317-4.813 10.388-10.868 12.268-18.247h.367v23.39h3.93" />
    <path
       style="fill:#ffffff"
       id="1"
       d="m266.25 199.7h3.779c0-22.656 20.344-34.521 40.43-34.521 10.209 0 19.611 3.01 26.473 8.48 7.746 6.205 11.826 15.201 11.826 26.04h3.779c0-11.902-4.55-21.81-13.14-28.682-7.568-6.06-17.843-9.363-28.936-9.363-21.961 0-44.21 13.08-44.21 38.05" />
    <path
       style="fill:#ffffff"
       id="2"
       d="m306.11 197.69c0-2.313 2.059-4.221 4.55-4.221 2.501 0 4.512 1.908 4.512 4.221 0 2.35-2.02 4.221-4.512 4.221-2.538 0-4.55-1.871-4.55-4.221" />
    <clipPath
       id="3">
      <path
         id="path177367"
         d="m47 24c0 12.708-10.304 23-23 23-12.696 0-23-10.292-23-23 0-12.708 10.304-23 23-23 12.696 0 23 10.292 23 23" />
    </clipPath>
    <clipPath
       id="0-5">
      <path
         id="path215574"
         d="m26 0c-14.397 0-26 11.603-26 26v460c0 14.397 11.603 26 26 26h460c14.397 0 26-11.603 26-26v-460c0-14.397-11.603-26-26-26h-460" />
    </clipPath>
    <clipPath
       id="0-6">
      <path
         id="path216298"
         d="m26 0c-14.397 0-26 11.603-26 26v460c0 14.397 11.603 26 26 26h460c14.397 0 26-11.603 26-26v-460c0-14.397-11.603-26-26-26h-460" />
    </clipPath>
    <clipPath
       id="0-2">
      <path
         id="path216855"
         d="m26 0c-14.397 0-26 11.603-26 26v460c0 14.397 11.603 26 26 26h460c14.397 0 26-11.603 26-26v-460c0-14.397-11.603-26-26-26h-460" />
    </clipPath>
    <clipPath
       id="0-3">
      <path
         id="path217709"
         d="m26 0c-14.397 0-26 11.603-26 26v460c0 14.397 11.603 26 26 26h460c14.397 0 26-11.603 26-26v-460c0-14.397-11.603-26-26-26h-460" />
    </clipPath>
    <clipPath
       id="0-9">
      <path
         id="path218385"
         d="m26 0c-14.397 0-26 11.603-26 26v460c0 14.397 11.603 26 26 26h460c14.397 0 26-11.603 26-26v-460c0-14.397-11.603-26-26-26h-460" />
    </clipPath>
    <path
       style="fill:#ffffff"
       id="0-62"
       d="m350.45 319.42v-94.57h-3.967v53.54c0 5.293-.771 10.322-2.35 15.06-1.579 4.813-3.967 9.03-7.126 12.738-3.046 3.563-6.863 6.468-11.497 8.668-4.588 2.096-9.956 3.121-16.01 3.121-4.371 0-8.517-.62-12.485-1.73-3.817-1.25-7.239-3.01-10.285-5.547-2.905-2.538-5.218-5.688-6.9-9.551-1.73-3.93-1.871-8.781-1.871-14.318l-3.892.62c0 1.467 0 3.121 0 4.484.216 3.779.555 7.239 1.796 10.388 1.833 4.118 4.334 7.643 7.53 10.689 3.272 2.792 7.126 4.954 11.46 6.43 4.484 1.363 9.363 2.02 14.656 2.02 10.02 0 18.14-2.388 24.349-7.164 6.317-4.813 10.388-10.868 12.268-18.247h.367v23.39h3.93" />
    <path
       style="fill:#ffffff"
       id="1-2"
       d="m266.25 199.7h3.779c0-22.656 20.344-34.521 40.43-34.521 10.209 0 19.611 3.01 26.473 8.48 7.746 6.205 11.826 15.201 11.826 26.04h3.779c0-11.902-4.55-21.81-13.14-28.682-7.568-6.06-17.843-9.363-28.936-9.363-21.961 0-44.21 13.08-44.21 38.05" />
    <path
       style="fill:#ffffff"
       id="2-6"
       d="m306.11 197.69c0-2.313 2.059-4.221 4.55-4.221 2.501 0 4.512 1.908 4.512 4.221 0 2.35-2.02 4.221-4.512 4.221-2.538 0-4.55-1.871-4.55-4.221" />
    <clipPath
       id="3-2">
      <path
         id="path218955"
         d="m47 24c0 12.708-10.304 23-23 23-12.696 0-23-10.292-23-23 0-12.708 10.304-23 23-23 12.696 0 23 10.292 23 23" />
    </clipPath>
    <clipPath
       id="0-91">
      <path
         id="path257138"
         d="m26 0c-14.397 0-26 11.603-26 26v460c0 14.397 11.603 26 26 26h460c14.397 0 26-11.603 26-26v-460c0-14.397-11.603-26-26-26h-460" />
    </clipPath>
    <clipPath
       id="0-68">
      <path
         id="path257646"
         d="m26 0c-14.397 0-26 11.603-26 26v460c0 14.397 11.603 26 26 26h460c14.397 0 26-11.603 26-26v-460c0-14.397-11.603-26-26-26h-460" />
    </clipPath>
    <clipPath
       id="0-1">
      <path
         id="path258305"
         d="m26 0c-14.397 0-26 11.603-26 26v460c0 14.397 11.603 26 26 26h460c14.397 0 26-11.603 26-26v-460c0-14.397-11.603-26-26-26h-460" />
    </clipPath>
    <clipPath
       id="0-0">
      <path
         id="path259585"
         d="m26 0c-14.397 0-26 11.603-26 26v460c0 14.397 11.603 26 26 26h460c14.397 0 26-11.603 26-26v-460c0-14.397-11.603-26-26-26h-460" />
    </clipPath>
    <clipPath
       id="0-67">
      <path
         id="path261091"
         d="m26 0c-14.397 0-26 11.603-26 26v460c0 14.397 11.603 26 26 26h460c14.397 0 26-11.603 26-26v-460c0-14.397-11.603-26-26-26h-460" />
    </clipPath>
    <linearGradient
       y1="513.8"
       x2="0"
       y2="1.346"
       id="1-8"
       gradientUnits="userSpaceOnUse"
       gradientTransform="translate(0,-9e-5)">
      <stop
         id="stop261094"
         style="stop-color:#1e1e56" />
      <stop
         id="stop261096"
         style="stop-color:#2c2c7c"
         offset=".5" />
      <stop
         id="stop261098"
         style="stop-color:#1e1e56"
         offset="1" />
    </linearGradient>
  </defs>
  <path
     inkscape:connector-curvature="0"
     d="m 26,-9e-5 c -14.397,0 -26,11.603 -26,26 l 0,460 c 0,14.397 11.603,26 26,26 l 460,0 c 14.397,0 26,-11.603 26,-26 l 0,-460 c 0,-14.397 -11.603,-26 -26,-26 l -460,0"
     style="fill:#666666"
     id="path261100" />
  <path
     inkscape:connector-curvature="0"
     style="color:#000000;opacity:0.25"
     d="M 81.89016,42.69923 355.43508,316.24415 330.21047,332.32032 58.12063,60.23047 l 29.72852,196.08985 137.93359,137.93359 -0.006,0.004 -137.9375,-137.9375 -21.99609,196.13867 59.54101,59.54102 360.61524,0 c 14.397,0 26,-11.603 26,-26 l 0,-189.83985 -66.58971,-66.58993 -174.66992,-95.66992 144.33398,144.33398 -0.24218,0.15625 L 269.96047,133.51954 81.89016,42.69923 Z"
     id="path261150" />
  <path
     inkscape:connector-curvature="0"
     d="m 73.77244,41.01799 a 16.702569,16.702569 0 0 0 -15.657,19.21085 L 87.84,256.31991 l -21.992,196.15 a 16.702569,16.702569 0 0 0 24.63786,16.47331 L 279.71,364.47991 a 16.702569,16.702569 0 0 0 0.86447,-0.5283 L 446.37,258.28991 a 16.702569,16.702569 0 0 0 -0.96056,-28.72023 L 270.73,133.89991 a 16.702569,16.702569 0 0 0 -0.76845,-0.38421 L 81.89,42.69891 a 16.702569,16.702569 0 0 0 -8.1165,-1.68095"
     style="color:#000000;fill:#ffffff"
     id="path261162" />
</svg>
