<?xml version="1.0" encoding="UTF-8" standalone="no"?>
<svg
   xmlns:dc="http://purl.org/dc/elements/1.1/"
   xmlns:cc="http://creativecommons.org/ns#"
   xmlns:rdf="http://www.w3.org/1999/02/22-rdf-syntax-ns#"
   xmlns:svg="http://www.w3.org/2000/svg"
   xmlns="http://www.w3.org/2000/svg"
   xmlns:sodipodi="http://sodipodi.sourceforge.net/DTD/sodipodi-0.dtd"
   xmlns:inkscape="http://www.inkscape.org/namespaces/inkscape"
   viewBox="0 0 512 512"
   id="svg2"
   version="1.1"
   inkscape:version="0.91+devel r13804 custom"
   sodipodi:docname="qucs.svg">
  <metadata
     id="metadata77">
    <rdf:RDF>
      <cc:Work
         rdf:about="">
        <dc:format>image/svg+xml</dc:format>
        <dc:type
           rdf:resource="http://purl.org/dc/dcmitype/StillImage" />
        <dc:title></dc:title>
      </cc:Work>
    </rdf:RDF>
  </metadata>
  <sodipodi:namedview
     pagecolor="#ffffff"
     bordercolor="#666666"
     borderopacity="1"
     objecttolerance="10"
     gridtolerance="10"
     guidetolerance="10"
     inkscape:pageopacity="0"
     inkscape:pageshadow="2"
     inkscape:window-width="1366"
     inkscape:window-height="709"
     id="namedview75"
     showgrid="false"
     inkscape:zoom="0.32593203"
     inkscape:cx="-11.678728"
     inkscape:cy="95.710196"
     inkscape:window-x="-2"
     inkscape:window-y="-3"
     inkscape:window-maximized="1"
     inkscape:current-layer="svg2"
     showguides="true" />
  <defs
     id="defs4" />
  <g
     id="g271069"
     transform="translate(383.93313,298.13241)">
    <path
       id="path270682"
       style="fill:#666666"
       d="m -357.93313,-298.13241 c -14.397,0 -26,11.603 -26,26 l 0,460 c 0,14.397 11.603,26 26,26 l 460,0 c 14.397,0 26,-11.603 26,-26 l 0,-460 c 0,-14.397 -11.603,-26 -26,-26 l -460,0"
       inkscape:connector-curvature="0" />
    <g
       transform="translate(-383.93313,-298.13241)"
       id="g270726"
       style="line-height:125%;font-family:'Gentium Book Basic';letter-spacing:0;word-spacing:0"
       line-height="125%">
    </g>
    <path
       id="path270780"
       d="m 46.947266,-207.50195 -185.406246,189.414059 -79.375,-79.375 c 0,-34.563999 -27.9603,-62.529299 -62.5293,-62.529299 l -0.0469,0 c -34.56038,0.004 -62.52343,28.01293 -62.52343,62.570315 l 62.53125,62.529297 80.04296,80.042969 -0.006,0.0078 -142.56836,-142.570312 c 0,17.282 6.98978,32.91275 18.30078,44.21875 l 111.44726,111.447265 -63.59765,64.974616 0.01,0.01 -0.01,0 90.6289,90.62891 288.22071,0 c 14.397,0 26,-11.603 26,-26 l 0,-314.25 -81.119144,-81.11914 z"
       style="opacity:0.25;fill-opacity:0.91399997"
       inkscape:connector-curvature="0" />
    <path
       id="path270850"
       style="fill:#ffffff;fill-opacity:0.91399997"
       d="m 46.94687,-207.50241 -323.73,330.73 76.09,0 287.76,-290.61 -40.12,-40.12 m -327.35,47.51 c -34.564,0 -62.53,28.01 -62.53,62.57 0,34.564 27.961,62.53 62.53,62.53 1.422,0 2.73,-0.465 4.152,-0.531 l -0.531,0.531 c 1.869,0.645 5.232,-0.219 8.787,-1.062 7.05,-1.736 15.384,-4.05 19.651,0.531 l 43.41,40.798 30.997,-30.997 -42.874,-40.32 c -4.465,-4 -3.234,-11.248 -2.076,-19.12 0.579,-3.87 0.996,-7.991 1.062,-11.877 l 0,-0.531 c 0,-34.564 -27.961,-62.53 -62.53,-62.53 l -0.048,0 m 1.062,38.24 c 13.693,0 24.817,11.124 24.817,24.817 0,13.693 -11.124,24.817 -24.817,24.817 -13.693,0 -24.817,-11.124 -24.817,-24.817 0,-13.693 11.124,-24.817 24.817,-24.817 m 310.31,46.544 -191.97,198.44 73,0 158.51,-155.66 -39.543,-42.778 m 14.388,109.99 -90.58,88.45 77.49,0 48.33,-49.586 -35.25,-38.867"
       inkscape:connector-curvature="0" />
  </g>
</svg>
