<?xml version="1.0" encoding="UTF-8" standalone="no"?>
<svg
   xmlns:dc="http://purl.org/dc/elements/1.1/"
   xmlns:cc="http://creativecommons.org/ns#"
   xmlns:rdf="http://www.w3.org/1999/02/22-rdf-syntax-ns#"
   xmlns:svg="http://www.w3.org/2000/svg"
   xmlns="http://www.w3.org/2000/svg"
   xmlns:xlink="http://www.w3.org/1999/xlink"
   xmlns:sodipodi="http://sodipodi.sourceforge.net/DTD/sodipodi-0.dtd"
   xmlns:inkscape="http://www.inkscape.org/namespaces/inkscape"
   viewBox="0 0 512 512"
   id="svg2"
   version="1.1"
   inkscape:version="0.91+devel r13804 custom"
   sodipodi:docname="rhythmbox.svg">
  <metadata
     id="metadata472">
    <rdf:RDF>
      <cc:Work
         rdf:about="">
        <dc:format>image/svg+xml</dc:format>
        <dc:type
           rdf:resource="http://purl.org/dc/dcmitype/StillImage" />
        <dc:title></dc:title>
      </cc:Work>
    </rdf:RDF>
  </metadata>
  <sodipodi:namedview
     pagecolor="#ffffff"
     bordercolor="#666666"
     borderopacity="1"
     objecttolerance="10"
     gridtolerance="10"
     guidetolerance="10"
     inkscape:pageopacity="0"
     inkscape:pageshadow="2"
     inkscape:window-width="1366"
     inkscape:window-height="709"
     id="namedview470"
     showgrid="false"
     inkscape:zoom="0.4609375"
     inkscape:cx="-8.6779661"
     inkscape:cy="237.55932"
     inkscape:window-x="-2"
     inkscape:window-y="-3"
     inkscape:window-maximized="1"
     inkscape:current-layer="svg2" />
  <defs
     id="defs4">
    <filter
       style="color-interpolation-filters:sRGB"
       id="filter9">
      <feGaussianBlur
         stdDeviation="1.71"
         id="feGaussianBlur11" />
    </filter>
    <linearGradient
       gradientTransform="scale(1.0059.99417)"
       gradientUnits="userSpaceOnUse"
       xlink:href="#0"
       y2="7.02"
       x2="0"
       y1="92.54"
       id="linearGradient13" />
    <linearGradient
       gradientTransform="scale(1.0059.99417)"
       gradientUnits="userSpaceOnUse"
       xlink:href="#0"
       y2="7.02"
       x2="0"
       y1="92.54"
       id="linearGradient15" />
    <linearGradient
       gradientTransform="scale(1.0059.99417)"
       gradientUnits="userSpaceOnUse"
       id="0"
       y2="7.02"
       x2="0"
       y1="92.54">
      <stop
         id="stop18" />
      <stop
         offset="1"
         style="stop-opacity:.588"
         id="stop20" />
    </linearGradient>
    <clipPath
       id="0-2">
      <path
         id="path3886"
         d="m26 0c-14.397 0-26 11.603-26 26v460c0 14.397 11.603 26 26 26h460c14.397 0 26-11.603 26-26v-460c0-14.397-11.603-26-26-26h-460" />
    </clipPath>
    <filter
       id="filter4868"
       style="color-interpolation-filters:sRGB">
      <feGaussianBlur
         id="feGaussianBlur4870"
         stdDeviation="1.71" />
    </filter>
    <linearGradient
       id="linearGradient4872"
       y1="92.54"
       x2="0"
       y2="7.02"
       xlink:href="#0-7"
       gradientUnits="userSpaceOnUse"
       gradientTransform="scale(1.0059.99417)" />
    <linearGradient
       id="linearGradient4874"
       y1="92.54"
       x2="0"
       y2="7.02"
       xlink:href="#0-7"
       gradientUnits="userSpaceOnUse"
       gradientTransform="scale(1.0059.99417)" />
    <linearGradient
       y1="92.54"
       x2="0"
       y2="7.02"
       id="0-7"
       gradientUnits="userSpaceOnUse"
       gradientTransform="scale(1.0059.99417)">
      <stop
         id="stop4877" />
      <stop
         id="stop4879"
         style="stop-opacity:.588"
         offset="1" />
    </linearGradient>
  </defs>
  <g
     id="g5714"
     transform="translate(30.372881,39.050793)">
    <path
       id="path4881"
       style="fill:#666666"
       d="m -4.372881,-39.050847 c -14.397,0 -26,11.603 -26,26 l 0,459.999997 c 0,14.397 11.603,26 26,26 l 460.000001,0 c 14.397,0 26,-11.603 26,-26 l 0,-459.999997 c 0,-14.397 -11.603,-26 -26,-26 l -460.000001,0"
       inkscape:connector-curvature="0" />
    <g
       transform="translate(-30.372881,-39.050847)"
       id="g4925"
       style="line-height:125%;font-family:'Gentium Book Basic';letter-spacing:0;word-spacing:0"
       line-height="125%">
    </g>
    <g
       transform="translate(-30.372881,-39.050847)"
       id="g4973"
       style="line-height:125%;font-family:'Gentium Book Basic';letter-spacing:0;word-spacing:0"
       line-height="125%">
    </g>
    <g
       transform="translate(-30.372881,-39.050847)"
       id="g5021"
       style="line-height:125%;font-family:'Gentium Book Basic';letter-spacing:0;word-spacing:0"
       line-height="125%">
    </g>
    <g
       transform="translate(-30.372881,-39.050847)"
       id="g5069"
       style="line-height:125%;font-family:'Gentium Book Basic';letter-spacing:0;word-spacing:0"
       line-height="125%">
    </g>
    <g
       transform="translate(-30.372881,-39.050847)"
       id="g5117"
       style="line-height:125%;font-family:'Gentium Book Basic';letter-spacing:0;word-spacing:0"
       line-height="125%">
    </g>
    <g
       transform="translate(-30.372881,-39.050847)"
       id="g5165"
       style="line-height:125%;font-family:'Gentium Book Basic';letter-spacing:0;word-spacing:0"
       line-height="125%">
    </g>
    <path
       style="opacity:0.25"
       id="path5219"
       d="m 331.45703,1.9453125 55.85742,55.8574215 0,0.0039 -55.85742,-55.8574222 -211.65039,0 52.66406,52.6640622 c -0.002,0.0012 -0.004,0.0027 -0.006,0.0039 L 119.79688,1.9492188 c -30.960011,0 -55.865239,24.9482032 -55.865239,55.9082032 l 0.0059,0.0059 0,318.175778 c 0,15.491 6.23475,29.47694 16.34375,39.58594 l 0.164062,0.16406 c -0.05495,-0.0545 -0.113245,-0.10543 -0.167968,-0.16015 l 57.320315,57.32031 318.02929,0 c 14.397,0 26,-11.603 26,-26 l 0,-318.0293 L 370.97656,18.269531 C 360.88656,8.1795316 346.92803,1.9453125 331.45703,1.9453125 Z"
       inkscape:connector-curvature="0" />
    <path
       id="path5273"
       style="fill:#ffffff"
       d="m 119.79712,1.949153 c -30.960001,0 -55.865001,24.949 -55.865001,55.909 l 0,318.179997 c 0,30.96 24.905,55.909 55.865001,55.909 l 211.65,0 c 30.96,0 55.865,-24.949 55.865,-55.909 l 0,-318.179997 c 0,-30.96 -24.905,-55.909 -55.865,-55.909 l -211.65,0 m 105.83,37.669 c 56.14,0 101.64,45.5 101.64,101.639997 0,56.14 -45.5,101.64 -101.64,101.64 -56.14,0 -101.64,-45.5 -101.64,-101.64 0,-56.139997 45.5,-101.639997 101.64,-101.639997 m 1.36577,54.0584 a 47.581073,47.581073 0 0 0 -48.94773,47.581967 47.581967,47.581967 0 0 0 95.16393,0 47.581073,47.581073 0 0 0 -46.2162,-47.581967 m -85.16,228.169997 c 17.32,0 31.32,14.05 31.32,31.369 0,17.32 -14,31.32 -31.32,31.32 -17.32,0 -31.369,-14 -31.369,-31.32 0,-17.32 14.05,-31.369 31.369,-31.369 m 167.59,0 c 17.32,0 31.369,14.05 31.369,31.369 0,17.32 -14.05,31.32 -31.369,31.32 -17.32,0 -31.369,-14 -31.369,-31.32 0,-17.32 14.05,-31.369 31.369,-31.369"
       inkscape:connector-curvature="0" />
  </g>
</svg>
