<?xml version="1.0" encoding="UTF-8" standalone="no"?>
<svg
   xmlns:dc="http://purl.org/dc/elements/1.1/"
   xmlns:cc="http://creativecommons.org/ns#"
   xmlns:rdf="http://www.w3.org/1999/02/22-rdf-syntax-ns#"
   xmlns:svg="http://www.w3.org/2000/svg"
   xmlns="http://www.w3.org/2000/svg"
   xmlns:xlink="http://www.w3.org/1999/xlink"
   xmlns:sodipodi="http://sodipodi.sourceforge.net/DTD/sodipodi-0.dtd"
   xmlns:inkscape="http://www.inkscape.org/namespaces/inkscape"
   viewBox="0 0 512 512"
   id="svg2"
   version="1.1"
   inkscape:version="0.91+devel r13804 custom"
   sodipodi:docname="run.svg">
  <metadata
     id="metadata472">
    <rdf:RDF>
      <cc:Work
         rdf:about="">
        <dc:format>image/svg+xml</dc:format>
        <dc:type
           rdf:resource="http://purl.org/dc/dcmitype/StillImage" />
        <dc:title></dc:title>
      </cc:Work>
    </rdf:RDF>
  </metadata>
  <sodipodi:namedview
     pagecolor="#ffffff"
     bordercolor="#666666"
     borderopacity="1"
     objecttolerance="10"
     gridtolerance="10"
     guidetolerance="10"
     inkscape:pageopacity="0"
     inkscape:pageshadow="2"
     inkscape:window-width="1366"
     inkscape:window-height="709"
     id="namedview470"
     showgrid="false"
     inkscape:zoom="0.4609375"
     inkscape:cx="-8.6779661"
     inkscape:cy="237.55932"
     inkscape:window-x="-2"
     inkscape:window-y="-3"
     inkscape:window-maximized="1"
     inkscape:current-layer="svg2" />
  <defs
     id="defs4">
    <filter
       style="color-interpolation-filters:sRGB"
       id="filter9">
      <feGaussianBlur
         stdDeviation="1.71"
         id="feGaussianBlur11" />
    </filter>
    <linearGradient
       gradientTransform="scale(1.0059.99417)"
       gradientUnits="userSpaceOnUse"
       xlink:href="#0"
       y2="7.02"
       x2="0"
       y1="92.54"
       id="linearGradient13" />
    <linearGradient
       gradientTransform="scale(1.0059.99417)"
       gradientUnits="userSpaceOnUse"
       xlink:href="#0"
       y2="7.02"
       x2="0"
       y1="92.54"
       id="linearGradient15" />
    <linearGradient
       gradientTransform="scale(1.0059.99417)"
       gradientUnits="userSpaceOnUse"
       id="0"
       y2="7.02"
       x2="0"
       y1="92.54">
      <stop
         id="stop18" />
      <stop
         offset="1"
         style="stop-opacity:.588"
         id="stop20" />
    </linearGradient>
    <clipPath
       id="0-2">
      <path
         id="path3886"
         d="m26 0c-14.397 0-26 11.603-26 26v460c0 14.397 11.603 26 26 26h460c14.397 0 26-11.603 26-26v-460c0-14.397-11.603-26-26-26h-460" />
    </clipPath>
    <filter
       id="filter4868"
       style="color-interpolation-filters:sRGB">
      <feGaussianBlur
         id="feGaussianBlur4870"
         stdDeviation="1.71" />
    </filter>
    <linearGradient
       id="linearGradient4872"
       y1="92.54"
       x2="0"
       y2="7.02"
       xlink:href="#0-7"
       gradientUnits="userSpaceOnUse"
       gradientTransform="scale(1.0059.99417)" />
    <linearGradient
       id="linearGradient4874"
       y1="92.54"
       x2="0"
       y2="7.02"
       xlink:href="#0-7"
       gradientUnits="userSpaceOnUse"
       gradientTransform="scale(1.0059.99417)" />
    <linearGradient
       y1="92.54"
       x2="0"
       y2="7.02"
       id="0-7"
       gradientUnits="userSpaceOnUse"
       gradientTransform="scale(1.0059.99417)">
      <stop
         id="stop4877" />
      <stop
         id="stop4879"
         style="stop-opacity:.588"
         offset="1" />
    </linearGradient>
    <clipPath
       id="0-9">
      <path
         id="path6328"
         d="m26 0c-14.397 0-26 11.603-26 26v460c0 14.397 11.603 26 26 26h460c14.397 0 26-11.603 26-26v-460c0-14.397-11.603-26-26-26h-460" />
    </clipPath>
    <filter
       id="filter6815"
       style="color-interpolation-filters:sRGB">
      <feGaussianBlur
         id="feGaussianBlur6817"
         stdDeviation="1.71" />
    </filter>
    <linearGradient
       y1="92.54"
       x2="0"
       y2="7.02"
       id="0-6"
       gradientUnits="userSpaceOnUse"
       gradientTransform="scale(1.0059.99417)">
      <stop
         id="stop6820" />
      <stop
         id="stop6822"
         style="stop-opacity:.588"
         offset="1" />
    </linearGradient>
    <linearGradient
       id="linearGradient6824"
       y1="92.54"
       x2="0"
       y2="7.02"
       xlink:href="#0-6"
       gradientUnits="userSpaceOnUse"
       gradientTransform="scale(1.0059.99417)" />
    <linearGradient
       id="linearGradient6826"
       y1="92.54"
       x2="0"
       y2="7.02"
       xlink:href="#0-6"
       gradientUnits="userSpaceOnUse"
       gradientTransform="scale(1.0059.99417)" />
    <linearGradient
       id="linearGradient6828"
       y1="92.54"
       x2="0"
       y2="7.02"
       xlink:href="#0-6"
       gradientUnits="userSpaceOnUse"
       gradientTransform="scale(1.0059.99417)" />
    <clipPath
       id="0-4">
      <path
         id="path9169"
         d="m26 0c-14.397 0-26 11.603-26 26v460c0 14.397 11.603 26 26 26h460c14.397 0 26-11.603 26-26v-460c0-14.397-11.603-26-26-26h-460" />
    </clipPath>
    <filter
       id="filter9565"
       style="color-interpolation-filters:sRGB">
      <feGaussianBlur
         id="feGaussianBlur9567"
         stdDeviation="1.71" />
    </filter>
    <linearGradient
       id="linearGradient9569"
       y1="92.54"
       x2="0"
       y2="7.02"
       xlink:href="#0-64"
       gradientUnits="userSpaceOnUse"
       gradientTransform="scale(1.0059.99417)" />
    <linearGradient
       y1="92.54"
       x2="0"
       y2="7.02"
       id="0-64"
       gradientUnits="userSpaceOnUse"
       gradientTransform="scale(1.0059.99417)">
      <stop
         id="stop9572" />
      <stop
         id="stop9574"
         style="stop-opacity:.588"
         offset="1" />
    </linearGradient>
    <linearGradient
       id="linearGradient9576"
       y1="92.54"
       x2="0"
       y2="7.02"
       xlink:href="#0-64"
       gradientUnits="userSpaceOnUse"
       gradientTransform="scale(1.0059.99417)" />
    <linearGradient
       id="linearGradient9578"
       y1="92.54"
       x2="0"
       y2="7.02"
       xlink:href="#0-64"
       gradientUnits="userSpaceOnUse"
       gradientTransform="scale(1.0059.99417)" />
    <linearGradient
       id="linearGradient9580"
       y1="92.54"
       x2="0"
       y2="7.02"
       xlink:href="#0-64"
       gradientUnits="userSpaceOnUse"
       gradientTransform="scale(1.0059.99417)" />
    <clipPath
       id="0-62">
      <path
         id="path11741"
         d="m26 0c-14.397 0-26 11.603-26 26v460c0 14.397 11.603 26 26 26h460c14.397 0 26-11.603 26-26v-460c0-14.397-11.603-26-26-26h-460" />
    </clipPath>
    <clipPath
       id="0-66">
      <rect
         id="rect12679"
         style="fill:#666666"
         width="512"
         height="512"
         rx="25.988" />
    </clipPath>
  </defs>
  <g
     id="g13270"
     transform="translate(109.45814,125.90077)">
    <rect
       id="rect12681"
       style="fill:#666666"
       width="512"
       height="512"
       rx="25.988001"
       x="-109.45814"
       y="-125.90128" />
    <path
       id="path12683"
       style="fill:#666666"
       d="m -109.45814,129.81872 0,230.28 c 0,14.397 11.603,26 26,26 l 230.06,0 0,-256.28 -256.06,0"
       inkscape:connector-curvature="0" />
    <path
       id="path12685"
       style="fill:#666666"
       d="m 146.60186,129.81872 0,256.28 229.94,0 c 14.397,0 26,-11.603 26,-26 l 0,-230.28 -255.94,0"
       inkscape:connector-curvature="0" />
    <path
       id="path12687"
       style="fill:#666666"
       d="m -83.45814,-125.90128 c -14.397,0 -26,11.603 -26,26 l 0,229.72 256.06,0 0,-255.72 -230.06,0"
       inkscape:connector-curvature="0" />
    <g
       transform="translate(-109.45814,-125.90128)"
       id="g12731"
       style="line-height:125%;font-family:'Gentium Book Basic';letter-spacing:0;word-spacing:0"
       line-height="125%">
      <g
         id="g12733"
         style="font-size:208.33000183px">
      </g>
    </g>
    <g
       transform="translate(-109.45814,-125.90128)"
       id="g12755"
       style="fill:#666666">
    </g>
    <g
       transform="translate(-109.45814,-125.90128)"
       id="g12771"
       style="font-size:208.33000183px;line-height:125%;font-family:'Gentium Book Basic';letter-spacing:0;word-spacing:0;fill:#000000"
       line-height="125%">
    </g>
    <g
       id="g12781"
       transform="translate(-1087.8981,-249.56128)">
      <g
         id="g12783"
         style="line-height:125%;font-family:'Gentium Book Basic';letter-spacing:0;word-spacing:0"
         line-height="125%">
      </g>
      <g
         id="g12793"
         style="fill:#666666">
      </g>
      <g
         id="g12809"
         style="font-size:208.33000183px;line-height:125%;font-family:'Gentium Book Basic';letter-spacing:0;word-spacing:0;fill:#000000"
         line-height="125%">
      </g>
    </g>
    <g
       id="g12819"
       style="fill:#666666"
       transform="translate(-1687.8181,-277.96128)">
    </g>
    <g
       transform="translate(-109.45814,-125.90128)"
       id="g12839"
       style="line-height:125%;font-family:'Gentium Book Basic';letter-spacing:0;word-spacing:0"
       line-height="125%">
      <g
         id="g12841"
         style="font-size:208.33000183px">
      </g>
    </g>
    <g
       transform="translate(-109.45814,-125.90128)"
       id="g12893"
       style="line-height:125%;font-family:'Gentium Book Basic';letter-spacing:0;word-spacing:0"
       line-height="125%">
      <g
         id="g12899"
         transform="translate(-872.69,-170.47)">
      </g>
    </g>
    <g
       id="g12909"
       transform="translate(-982.14814,-296.37128)">
      <g
         id="g12911"
         style="fill:#666666">
      </g>
      <g
         id="g12927"
         style="line-height:125%;font-family:'Gentium Book Basic';letter-spacing:0;word-spacing:0"
         line-height="125%">
      </g>
      <g
         id="g12937"
         style="fill:#666666">
      </g>
    </g>
    <path
       id="path12955"
       d="m -27.636719,-84.900391 c -0.652362,-0.01155 -1.1481,0.08008 -1.480469,0.279297 -14.958998,8.96 -21.51825,414.673154 -7.03125,429.160154 l 0.0059,0.006 41.5546874,41.55469 371.1425806,0 c 14.39735,0 25.98633,-11.59093 25.98633,-25.98828 l 0,-160.52344 -68.69922,-68.69922 C 298.08984,95.146486 -0.45495217,-84.419119 -27.636719,-84.900391 Z"
       style="opacity:0.25;fill:#000000;fill-rule:evenodd"
       inkscape:connector-curvature="0" />
    <path
       id="path12965"
       style="fill:#ffffff;fill-rule:evenodd"
       d="m -35.83814,344.78872 c -14.895,-8.908 -8.351,-420.39 6.714,-429.41 15.06,-9.03 366.41,203.02 366.45,220.51 0.044,17.485 -358.29,217.82 -373.16,208.92"
       inkscape:connector-curvature="0" />
  </g>
</svg>
