<?xml version="1.0" encoding="UTF-8" standalone="no"?>
<svg
   xmlns:dc="http://purl.org/dc/elements/1.1/"
   xmlns:cc="http://creativecommons.org/ns#"
   xmlns:rdf="http://www.w3.org/1999/02/22-rdf-syntax-ns#"
   xmlns:svg="http://www.w3.org/2000/svg"
   xmlns="http://www.w3.org/2000/svg"
   xmlns:xlink="http://www.w3.org/1999/xlink"
   xmlns:sodipodi="http://sodipodi.sourceforge.net/DTD/sodipodi-0.dtd"
   xmlns:inkscape="http://www.inkscape.org/namespaces/inkscape"
   viewBox="0 0 512 512"
   id="svg2"
   version="1.1"
   inkscape:version="0.91+devel r13804 custom"
   sodipodi:docname="sayonara.svg">
  <metadata
     id="metadata472">
    <rdf:RDF>
      <cc:Work
         rdf:about="">
        <dc:format>image/svg+xml</dc:format>
        <dc:type
           rdf:resource="http://purl.org/dc/dcmitype/StillImage" />
        <dc:title></dc:title>
      </cc:Work>
    </rdf:RDF>
  </metadata>
  <sodipodi:namedview
     pagecolor="#ffffff"
     bordercolor="#666666"
     borderopacity="1"
     objecttolerance="10"
     gridtolerance="10"
     guidetolerance="10"
     inkscape:pageopacity="0"
     inkscape:pageshadow="2"
     inkscape:window-width="1366"
     inkscape:window-height="709"
     id="namedview470"
     showgrid="false"
     inkscape:zoom="0.4609375"
     inkscape:cx="-8.6779661"
     inkscape:cy="237.55932"
     inkscape:window-x="-2"
     inkscape:window-y="-3"
     inkscape:window-maximized="1"
     inkscape:current-layer="svg2" />
  <defs
     id="defs4">
    <filter
       style="color-interpolation-filters:sRGB"
       id="filter9">
      <feGaussianBlur
         stdDeviation="1.71"
         id="feGaussianBlur11" />
    </filter>
    <linearGradient
       gradientTransform="scale(1.0059.99417)"
       gradientUnits="userSpaceOnUse"
       xlink:href="#0"
       y2="7.02"
       x2="0"
       y1="92.54"
       id="linearGradient13" />
    <linearGradient
       gradientTransform="scale(1.0059.99417)"
       gradientUnits="userSpaceOnUse"
       xlink:href="#0"
       y2="7.02"
       x2="0"
       y1="92.54"
       id="linearGradient15" />
    <linearGradient
       gradientTransform="scale(1.0059.99417)"
       gradientUnits="userSpaceOnUse"
       id="0"
       y2="7.02"
       x2="0"
       y1="92.54">
      <stop
         id="stop18" />
      <stop
         offset="1"
         style="stop-opacity:.588"
         id="stop20" />
    </linearGradient>
    <clipPath
       id="0-2">
      <path
         id="path3886"
         d="m26 0c-14.397 0-26 11.603-26 26v460c0 14.397 11.603 26 26 26h460c14.397 0 26-11.603 26-26v-460c0-14.397-11.603-26-26-26h-460" />
    </clipPath>
    <filter
       id="filter4868"
       style="color-interpolation-filters:sRGB">
      <feGaussianBlur
         id="feGaussianBlur4870"
         stdDeviation="1.71" />
    </filter>
    <linearGradient
       id="linearGradient4872"
       y1="92.54"
       x2="0"
       y2="7.02"
       xlink:href="#0-7"
       gradientUnits="userSpaceOnUse"
       gradientTransform="scale(1.0059.99417)" />
    <linearGradient
       id="linearGradient4874"
       y1="92.54"
       x2="0"
       y2="7.02"
       xlink:href="#0-7"
       gradientUnits="userSpaceOnUse"
       gradientTransform="scale(1.0059.99417)" />
    <linearGradient
       y1="92.54"
       x2="0"
       y2="7.02"
       id="0-7"
       gradientUnits="userSpaceOnUse"
       gradientTransform="scale(1.0059.99417)">
      <stop
         id="stop4877" />
      <stop
         id="stop4879"
         style="stop-opacity:.588"
         offset="1" />
    </linearGradient>
    <clipPath
       id="0-9">
      <path
         id="path6328"
         d="m26 0c-14.397 0-26 11.603-26 26v460c0 14.397 11.603 26 26 26h460c14.397 0 26-11.603 26-26v-460c0-14.397-11.603-26-26-26h-460" />
    </clipPath>
    <filter
       id="filter6815"
       style="color-interpolation-filters:sRGB">
      <feGaussianBlur
         id="feGaussianBlur6817"
         stdDeviation="1.71" />
    </filter>
    <linearGradient
       y1="92.54"
       x2="0"
       y2="7.02"
       id="0-6"
       gradientUnits="userSpaceOnUse"
       gradientTransform="scale(1.0059.99417)">
      <stop
         id="stop6820" />
      <stop
         id="stop6822"
         style="stop-opacity:.588"
         offset="1" />
    </linearGradient>
    <linearGradient
       id="linearGradient6824"
       y1="92.54"
       x2="0"
       y2="7.02"
       xlink:href="#0-6"
       gradientUnits="userSpaceOnUse"
       gradientTransform="scale(1.0059.99417)" />
    <linearGradient
       id="linearGradient6826"
       y1="92.54"
       x2="0"
       y2="7.02"
       xlink:href="#0-6"
       gradientUnits="userSpaceOnUse"
       gradientTransform="scale(1.0059.99417)" />
    <linearGradient
       id="linearGradient6828"
       y1="92.54"
       x2="0"
       y2="7.02"
       xlink:href="#0-6"
       gradientUnits="userSpaceOnUse"
       gradientTransform="scale(1.0059.99417)" />
    <clipPath
       id="0-4">
      <path
         id="path9169"
         d="m26 0c-14.397 0-26 11.603-26 26v460c0 14.397 11.603 26 26 26h460c14.397 0 26-11.603 26-26v-460c0-14.397-11.603-26-26-26h-460" />
    </clipPath>
    <filter
       id="filter9565"
       style="color-interpolation-filters:sRGB">
      <feGaussianBlur
         id="feGaussianBlur9567"
         stdDeviation="1.71" />
    </filter>
    <linearGradient
       id="linearGradient9569"
       y1="92.54"
       x2="0"
       y2="7.02"
       xlink:href="#0-64"
       gradientUnits="userSpaceOnUse"
       gradientTransform="scale(1.0059.99417)" />
    <linearGradient
       y1="92.54"
       x2="0"
       y2="7.02"
       id="0-64"
       gradientUnits="userSpaceOnUse"
       gradientTransform="scale(1.0059.99417)">
      <stop
         id="stop9572" />
      <stop
         id="stop9574"
         style="stop-opacity:.588"
         offset="1" />
    </linearGradient>
    <linearGradient
       id="linearGradient9576"
       y1="92.54"
       x2="0"
       y2="7.02"
       xlink:href="#0-64"
       gradientUnits="userSpaceOnUse"
       gradientTransform="scale(1.0059.99417)" />
    <linearGradient
       id="linearGradient9578"
       y1="92.54"
       x2="0"
       y2="7.02"
       xlink:href="#0-64"
       gradientUnits="userSpaceOnUse"
       gradientTransform="scale(1.0059.99417)" />
    <linearGradient
       id="linearGradient9580"
       y1="92.54"
       x2="0"
       y2="7.02"
       xlink:href="#0-64"
       gradientUnits="userSpaceOnUse"
       gradientTransform="scale(1.0059.99417)" />
    <clipPath
       id="0-62">
      <path
         id="path11741"
         d="m26 0c-14.397 0-26 11.603-26 26v460c0 14.397 11.603 26 26 26h460c14.397 0 26-11.603 26-26v-460c0-14.397-11.603-26-26-26h-460" />
    </clipPath>
    <clipPath
       id="0-66">
      <rect
         id="rect12679"
         style="fill:#666666"
         width="512"
         height="512"
         rx="25.988" />
    </clipPath>
    <clipPath
       id="0-24">
      <path
         id="path13731"
         d="m26 0c-14.397 0-26 11.603-26 26v460c0 14.397 11.603 26 26 26h460c14.397 0 26-11.603 26-26v-460c0-14.397-11.603-26-26-26h-460" />
    </clipPath>
    <clipPath
       id="0-72">
      <path
         id="path14286"
         d="m26 0c-14.397 0-26 11.603-26 26v460c0 14.397 11.603 26 26 26h460c14.397 0 26-11.603 26-26v-460c0-14.397-11.603-26-26-26h-460" />
    </clipPath>
    <clipPath
       id="0-0">
      <path
         id="path14855"
         d="m26 0c-14.397 0-26 11.603-26 26v460c0 14.397 11.603 26 26 26h460c14.397 0 26-11.603 26-26v-460c0-14.397-11.603-26-26-26h-460" />
    </clipPath>
  </defs>
  <path
     inkscape:connector-curvature="0"
     d="m 25.99988,0 c -14.397,0 -26,11.603 -26,26 l 0,460 c 0,14.397 11.603,26 26,26 l 460,0 c 14.397,0 26,-11.603 26,-26 l 0,-460 c 0,-14.397 -11.603,-26 -26,-26 l -460,0"
     style="fill:#666666"
     id="path14857" />
  <path
     inkscape:connector-curvature="0"
     style="color:#000000;fill-rule:evenodd;opacity:0.25"
     d="m 440.58019,123.84922 30.32618,30.32617 c -3.1e-4,0.004 3.1e-4,0.008 0,0.0117 l -30.32618,-30.32617 -277.81054,0 c -16.835,0 -30.37891,12.57022 -30.37891,28.19922 0,7.447 3.07328,14.20804 8.11328,19.24804 l 56.49219,56.49219 -12.57422,0 -95.808592,-95.80859 -0.0039,-0.002 c -5.03,-5.03 -11.988078,-8.13477 -19.705078,-8.13477 l 27.863281,27.86524 0,0.004 -27.863281,-27.86329 c -15.454035,0 -27.901132,12.44517 -27.904297,27.89844 l 0,0.004 0,0.002 c 0.0015,7.51667 2.947207,14.32339 7.751953,19.33008 l 0.650391,0.65039 c -0.218662,-0.21345 -0.438845,-0.42597 -0.650391,-0.64648 l 83.671874,83.67187 c -0.0187,0.40793 -0.0332,0.81616 -0.0332,1.22852 0,7.437 3.0648,14.18194 8.0918,19.21094 l 56.47851,56.47851 -12.58984,0 -95.716797,-95.71484 -0.04492,-0.0449 c -5.03,-5.03 -11.988078,-8.13477 -19.705078,-8.13477 l 27.863281,27.86328 0,0.006 -27.863281,-27.86328 c -15.45469,0 -27.902187,12.44621 -27.904297,27.90039 l 0,0.002 0,0.002 c 0.0011,7.71543 3.10462,14.67002 8.134765,19.70117 l 0.0059,0.004 83.283207,83.28321 0,0.002 c -0.0191,0.41329 -0.0332,0.82635 -0.0332,1.24414 0,7.437 3.06479,14.18194 8.09179,19.21094 L 273.3322,512 l 212.66797,0 c 14.397,0 26,-11.603 26,-26 l 0,-304.03907 -49.08985,-49.08984 c -5.552,-5.552 -13.49406,-9.02148 -22.33008,-9.02148 z M 68.904414,331.68906 c -15.456,0 -27.904297,12.45025 -27.904297,27.90625 l 27.900391,27.9043 -27.900391,-27.90039 c 0,7.519 2.945953,14.32794 7.751953,19.33593 l 133.06445,133.06446 11.58594,0 0.002,0 67.37696,0 -172.126959,-172.125 -0.04492,-0.0449 c -5.02872,-5.02872 -11.984569,-8.13319 -19.699219,-8.13477 l -0.0059,-0.006 z"
     id="path14907" />
  <path
     inkscape:connector-curvature="0"
     d="m 68.90488,123.86 c -15.456,0 -27.905,12.449 -27.905,27.905 0,15.456 12.449,27.905 27.905,27.905 15.456,0 27.862,-12.449 27.862,-27.905 0,-15.456 -12.406,-27.905 -27.862,-27.905 m 93.87,0 c -16.835,0 -30.379,12.571 -30.379,28.2 0,15.631 13.545,28.25 30.379,28.25 l 277.81,0 c 16.835,0 30.421,-12.614 30.421,-28.25 0,-15.631 -13.588,-28.2 -30.421,-28.2 l -277.81,0 m -93.87,103.94 c -15.456,0 -27.905,12.449 -27.905,27.905 0,15.456 12.449,27.862 27.905,27.862 15.456,0 27.862,-12.406 27.862,-27.862 0,-15.456 -12.406,-27.905 -27.862,-27.905 m 93.87,0 c -16.835,0 -30.379,12.571 -30.379,28.2 0,15.631 13.545,28.2 30.379,28.2 l 277.81,0 c 16.835,0 30.421,-12.573 30.421,-28.2 0,-15.631 -13.588,-28.2 -30.421,-28.2 l -277.81,0 m -93.87,103.9 c -15.456,0 -27.905,12.449 -27.905,27.905 0,15.456 12.449,27.905 27.905,27.905 15.456,0 27.862,-12.449 27.862,-27.905 0,-15.456 -12.406,-27.905 -27.862,-27.905 m 93.87,0 c -16.835,0 -30.379,12.614 -30.379,28.25 0,15.631 13.545,28.2 30.379,28.2 l 277.81,0 c 16.835,0 30.421,-12.573 30.421,-28.2 0,-15.631 -13.588,-28.25 -30.421,-28.25 l -277.81,0"
     style="color:#000000;fill:#ffffff;fill-rule:evenodd"
     id="path14991" />
</svg>
