<?xml version="1.0" encoding="UTF-8" standalone="no"?>
<svg
   xmlns:dc="http://purl.org/dc/elements/1.1/"
   xmlns:cc="http://creativecommons.org/ns#"
   xmlns:rdf="http://www.w3.org/1999/02/22-rdf-syntax-ns#"
   xmlns:svg="http://www.w3.org/2000/svg"
   xmlns="http://www.w3.org/2000/svg"
   xmlns:sodipodi="http://sodipodi.sourceforge.net/DTD/sodipodi-0.dtd"
   xmlns:inkscape="http://www.inkscape.org/namespaces/inkscape"
   viewBox="0 0 512 512"
   id="svg2"
   version="1.1"
   inkscape:version="0.91+devel r13804 custom"
   sodipodi:docname="smplayer.svg">
  <metadata
     id="metadata472">
    <rdf:RDF>
      <cc:Work
         rdf:about="">
        <dc:format>image/svg+xml</dc:format>
        <dc:type
           rdf:resource="http://purl.org/dc/dcmitype/StillImage" />
        <dc:title></dc:title>
      </cc:Work>
    </rdf:RDF>
  </metadata>
  <sodipodi:namedview
     pagecolor="#ffffff"
     bordercolor="#666666"
     borderopacity="1"
     objecttolerance="10"
     gridtolerance="10"
     guidetolerance="10"
     inkscape:pageopacity="0"
     inkscape:pageshadow="2"
     inkscape:window-width="1366"
     inkscape:window-height="709"
     id="namedview470"
     showgrid="false"
     inkscape:zoom="0.4609375"
     inkscape:cx="-8.6779661"
     inkscape:cy="237.55932"
     inkscape:window-x="-2"
     inkscape:window-y="-3"
     inkscape:window-maximized="1"
     inkscape:current-layer="svg2" />
  <defs
     id="defs4" />
  <path
     inkscape:connector-curvature="0"
     d="M 26,0 C 11.603,0 0,11.603 0,26 l 0,460 c 0,14.397 11.603,26 26,26 l 460,0 c 14.397,0 26,-11.603 26,-26 L 512,26 C 512,11.603 500.397,0 486,0 L 26,0"
     style="fill:#666666"
     id="path102416" />
  <path
     inkscape:connector-curvature="0"
     d="m 41,47.11 0,29.656 42.22,0 0,-29.656 -42.22,0 m 387.78,0 0,29.656 42.22,0 0,-29.656 -42.22,0 M 41,111.8 l 0,29.656 42.22,0 0,-29.656 -42.22,0 m 387.78,0 0,29.656 42.22,0 0,-29.656 -42.22,0 M 41,176.49 l 0,29.656 42.22,0 0,-29.656 -42.22,0 m 387.78,0 0,29.656 42.22,0 0,-29.656 -42.22,0 M 41,241.15 l 0,29.656 42.22,0 0,-29.656 -42.22,0 m 387.78,0 0,29.688 42.22,0 0,-29.688 -42.22,0 M 41,305.869 l 0,29.656 42.22,0 0,-29.656 -42.22,0 m 387.78,0 0,29.656 42.22,0 0,-29.656 -42.22,0 M 41,370.529 l 0,29.656 42.22,0 0,-29.656 -42.22,0 m 387.78,0 0,29.688 42.22,0 0,-29.688 -42.22,0 M 41,435.219 l 0,29.656 42.22,0 0,-29.656 -42.22,0 m 387.78,0 0,29.688 42.22,0 0,-29.688 -42.22,0"
     style="fill:#ffffff"
     id="path102444" />
  <path
     style="fill-rule:evenodd;opacity:0.25"
     d="M 256 140.13086 C 192.005 140.13086 140.13086 192.003 140.13086 256 C 140.13086 287.997 153.09841 316.96559 174.06641 337.93359 L 348.13281 512 L 486 512 C 500.397 512 512 500.397 512 486 L 512 348.13281 L 337.93359 174.06641 C 338.04291 174.17572 338.14893 174.28869 338.25781 174.39844 L 337.92969 174.07031 C 316.9634 153.10402 287.9988 140.13688 256.00391 140.13477 L 256 140.13086 z "
     id="path102420" />
  <path
     inkscape:connector-curvature="0"
     d="m 256,140.13 c -63.995,0 -115.87,51.873 -115.87,115.87 0,63.995 51.873,115.87 115.87,115.87 63.995,0 115.87,-51.873 115.87,-115.87 0,-63.995 -51.873,-115.87 -115.87,-115.87 m -35.653,43.45 47.02,34.32 47.02,34.32 -47.02,34.32 -47.02,34.539 0,-68.851 0,-68.63"
     style="fill:#ffffff;fill-rule:evenodd"
     id="path102492" />
</svg>
