<?xml version="1.0" encoding="UTF-8" standalone="no"?>
<svg
   xmlns:dc="http://purl.org/dc/elements/1.1/"
   xmlns:cc="http://creativecommons.org/ns#"
   xmlns:rdf="http://www.w3.org/1999/02/22-rdf-syntax-ns#"
   xmlns:svg="http://www.w3.org/2000/svg"
   xmlns="http://www.w3.org/2000/svg"
   xmlns:xlink="http://www.w3.org/1999/xlink"
   xmlns:sodipodi="http://sodipodi.sourceforge.net/DTD/sodipodi-0.dtd"
   xmlns:inkscape="http://www.inkscape.org/namespaces/inkscape"
   viewBox="0 0 512 512"
   id="svg2"
   version="1.1"
   inkscape:version="0.91+devel r13804 custom"
   sodipodi:docname="softwarecenter.svg">
  <metadata
     id="metadata472">
    <rdf:RDF>
      <cc:Work
         rdf:about="">
        <dc:format>image/svg+xml</dc:format>
        <dc:type
           rdf:resource="http://purl.org/dc/dcmitype/StillImage" />
        <dc:title></dc:title>
      </cc:Work>
    </rdf:RDF>
  </metadata>
  <sodipodi:namedview
     pagecolor="#ffffff"
     bordercolor="#666666"
     borderopacity="1"
     objecttolerance="10"
     gridtolerance="10"
     guidetolerance="10"
     inkscape:pageopacity="0"
     inkscape:pageshadow="2"
     inkscape:window-width="1366"
     inkscape:window-height="709"
     id="namedview470"
     showgrid="false"
     inkscape:zoom="0.4609375"
     inkscape:cx="-8.6779661"
     inkscape:cy="237.55932"
     inkscape:window-x="-2"
     inkscape:window-y="-3"
     inkscape:window-maximized="1"
     inkscape:current-layer="svg2" />
  <defs
     id="defs4">
    <linearGradient
       y1="292.8"
       x2="0"
       y2="351.33"
       id="5"
       xlink:href="#3"
       gradientUnits="userSpaceOnUse" />
    <linearGradient
       y1="292.86"
       x2="0"
       y2="349.75"
       id="4"
       xlink:href="#3"
       gradientUnits="userSpaceOnUse" />
    <linearGradient
       id="3">
      <stop
         id="stop104893"
         style="stop-color:#fff" />
      <stop
         id="stop104895"
         style="stop-color:#8f8f8f"
         offset="1" />
    </linearGradient>
  </defs>
  <path
     inkscape:connector-curvature="0"
     d="M 26,0 C 11.603,0 0,11.603 0,26 l 0,460 c 0,14.397 11.603,26 26,26 l 460,0 c 14.397,0 26,-11.603 26,-26 L 512,26 C 512,11.603 500.397,0 486,0 L 26,0"
     style="fill:#666666"
     id="path104897" />
  <path
     inkscape:connector-curvature="0"
     id="0"
     d="M 0,368.81 0,486 c 0,14.397 11.603,26 26,26 l 460,0 c 14.397,0 26,-11.603 26,-26 l 0,-117.19 -512,0"
     style="fill:#666666" />
  <use
     y="0"
     x="0"
     xlink:href="#0"
     height="1"
     width="1"
     id="use104900" />
  <path
     d="M 66.839844 118.63086 L 66.84375 118.63477 C 66.843759 217.93223 67.108761 225.62808 67.394531 225.91797 C 67.393178 225.91694 67.391977 225.92127 67.390625 225.91992 L 67.607422 226.13672 C 67.607289 226.13578 67.607555 226.13374 67.607422 226.13281 L 143.66406 302.18945 L 143.66406 302.19336 L 67.607422 226.13672 C 67.713698 226.88182 67.812995 229.58973 67.894531 238.93945 L 67.898438 238.94336 C 68.013425 252.10517 68.09075 278.33366 68.09375 330.40039 L 141.63281 403.93945 L 141.61914 403.93945 L 68.089844 330.41016 C 68.089844 330.42953 68.088143 330.45115 68.089844 330.4707 L 67.808594 330.4707 L 249.33984 512 L 486 512 C 500.397 512 512 500.397 512 486 L 512 185.4707 L 445.16016 118.63086 L 365.4707 118.63086 L 365.4707 330.4707 L 358.37109 330.4707 L 146.5332 118.63086 L 146.5332 118.63477 L 146.5293 118.63086 L 66.84375 118.63086 L 66.839844 118.63086 z "
     id="path104904"
     style="opacity:0.25" />
  <g
     transform="translate(-1311.43,-127.52)"
     style="fill:#666666"
     id="g104950">
  </g>
  <g
     transform="translate(-1311.43,-127.52)"
     id="g104970">
    <g
       id="g104972">
    </g>
    <g
       style="fill:#666666"
       id="g104986">
      <g
         style="stroke:#cd1d31;stroke-width:0.27399999"
         id="g104988">
      </g>
    </g>
    <g
       style="fill:#000000"
       id="g105008">
      <g
         style="stroke:none"
         id="g105020">
      </g>
    </g>
    <g
       style="fill:#666666;stroke:none"
       id="g105036">
    </g>
    <g
       style="fill:#000000"
       id="g105056">
    </g>
    <g
       style="fill:#666666"
       id="g105070">
      <g
         style="stroke:#cd1d31"
         id="g105072">
      </g>
    </g>
    <g
       style="fill:#000000"
       id="g105092">
    </g>
  </g>
  <path
     inkscape:connector-curvature="0"
     id="1"
     d="m 172.37673,124.96005 a 65.68838,5.574952 0 1 1 -131.3767,0 65.68838,5.574952 0 1 1 131.3767,0"
     style="fill:#666666" />
  <use
     y="0"
     x="0"
     xlink:href="#1"
     height="512"
     width="512"
     transform="translate(298.62)"
     id="use105153" />
  <path
     inkscape:connector-curvature="0"
     d="m 445.16,118.62 -79.7,0 0,215.81 72.37,0 4.03,-4.01 z"
     style="fill:url(#4)"
     id="path105155" />
  <path
     inkscape:connector-curvature="0"
     d="m 66.85,118.62 c 0,215.14 1.239,0.307 1.25,211.79 0,0.994 2.571,1.698 2.571,2.711 l 72.51,0.299 3.334,-214.8 z"
     style="fill:url(#5)"
     id="path105157" />
  <g
     transform="matrix(1.55089,0,0,1.55089,-141.03,-93.97)"
     style="fill:#666666"
     id="g105159">
    <path
       inkscape:connector-curvature="0"
       d="m 322.68,130.27 0,8.286 c 7.637,-0.634 18.08,-0.985 29.604,-0.985 10.36,0 19.691,0.327 27.05,0.851 l 0,-8.151 -56.655,0"
       id="path105161" />
    <path
       inkscape:connector-curvature="0"
       d="m 132.52,133.32 0,5.106 c 7.378,-0.53 16.764,-0.851 27.19,-0.851 10.464,0 19.929,0.317 27.32,0.851 l 0,-5.106 -54.51,0"
       id="path105163" />
  </g>
  <path
     inkscape:connector-curvature="0"
     d="m 441.84,330.46 -374.01,0 73.5,73.48 227.61,0 z"
     style="fill:#ffffff"
     id="path105165" />
</svg>
