<?xml version="1.0" encoding="UTF-8" standalone="no"?>
<svg
   xmlns:dc="http://purl.org/dc/elements/1.1/"
   xmlns:cc="http://creativecommons.org/ns#"
   xmlns:rdf="http://www.w3.org/1999/02/22-rdf-syntax-ns#"
   xmlns:svg="http://www.w3.org/2000/svg"
   xmlns="http://www.w3.org/2000/svg"
   xmlns:sodipodi="http://sodipodi.sourceforge.net/DTD/sodipodi-0.dtd"
   xmlns:inkscape="http://www.inkscape.org/namespaces/inkscape"
   viewBox="0 0 512 512"
   id="svg2"
   version="1.1"
   inkscape:version="0.91+devel r13804 custom"
   sodipodi:docname="suspend.svg">
  <metadata
     id="metadata472">
    <rdf:RDF>
      <cc:Work
         rdf:about="">
        <dc:format>image/svg+xml</dc:format>
        <dc:type
           rdf:resource="http://purl.org/dc/dcmitype/StillImage" />
        <dc:title></dc:title>
      </cc:Work>
    </rdf:RDF>
  </metadata>
  <sodipodi:namedview
     pagecolor="#ffffff"
     bordercolor="#666666"
     borderopacity="1"
     objecttolerance="10"
     gridtolerance="10"
     guidetolerance="10"
     inkscape:pageopacity="0"
     inkscape:pageshadow="2"
     inkscape:window-width="1366"
     inkscape:window-height="709"
     id="namedview470"
     showgrid="false"
     inkscape:zoom="0.4609375"
     inkscape:cx="-8.6779661"
     inkscape:cy="237.55932"
     inkscape:window-x="-2"
     inkscape:window-y="-3"
     inkscape:window-maximized="1"
     inkscape:current-layer="svg2" />
  <defs
     id="defs4" />
  <path
     inkscape:connector-curvature="0"
     d="M 26,0 C 11.603,0 0,11.603 0,26 l 0,460 c 0,14.397 11.603,26 26,26 l 460,0 c 14.397,0 26,-11.603 26,-26 L 512,26 C 512,11.603 500.397,0 486,0 L 26,0"
     style="fill:#666666"
     id="path167310" />
  <path
     style="fill-rule:evenodd;opacity:0.25"
     d="M 256 40.996094 L 471 255.99609 L 471 256 L 256 41 C 137.26 41 41 137.26 41 256 C 41 315.37 65.070608 369.1193 103.97461 408.0293 L 104.14258 408.19727 C 104.08587 408.14069 104.02735 408.08594 103.9707 408.0293 L 207.94141 512 L 486 512 C 500.397 512 512 500.397 512 486 L 512 207.94141 L 408.0293 103.9707 C 369.1213 65.062706 315.37 40.996094 256 40.996094 z "
     id="path167396" />
  <path
     inkscape:connector-curvature="0"
     d="M 256,41 C 137.26,41 41,137.26 41,256 41,374.74 137.26,471 256,471 374.74,471 471,374.74 471,256 471,137.26 374.74,41 256,41 m 0,71.875 c 79.03,0 143.09,64.09 143.09,143.13 0,79.03 -64.06,143.13 -143.09,143.13 -79.03,0 -143.09,-64.09 -143.09,-143.12 0,-79.03 64.06,-143.12 143.09,-143.12 m -57.44,107.28 c -19.852,0 -35.844,15.992 -35.844,35.844 0,19.852 15.992,35.844 35.844,35.844 l 114.84,0 c 19.852,0 35.844,-15.992 35.844,-35.844 0,-19.852 -15.992,-35.844 -35.844,-35.844 l -114.84,0"
     style="fill:#ffffff;fill-rule:evenodd"
     id="path167432" />
</svg>
