<?xml version="1.0" encoding="UTF-8" standalone="no"?>
<svg
   xmlns:dc="http://purl.org/dc/elements/1.1/"
   xmlns:cc="http://creativecommons.org/ns#"
   xmlns:rdf="http://www.w3.org/1999/02/22-rdf-syntax-ns#"
   xmlns:svg="http://www.w3.org/2000/svg"
   xmlns="http://www.w3.org/2000/svg"
   xmlns:sodipodi="http://sodipodi.sourceforge.net/DTD/sodipodi-0.dtd"
   xmlns:inkscape="http://www.inkscape.org/namespaces/inkscape"
   viewBox="0 0 512 512"
   id="svg2"
   version="1.1"
   inkscape:version="0.91+devel r13804 custom"
   sodipodi:docname="swell-foop.svg">
  <metadata
     id="metadata472">
    <rdf:RDF>
      <cc:Work
         rdf:about="">
        <dc:format>image/svg+xml</dc:format>
        <dc:type
           rdf:resource="http://purl.org/dc/dcmitype/StillImage" />
        <dc:title></dc:title>
      </cc:Work>
    </rdf:RDF>
  </metadata>
  <sodipodi:namedview
     pagecolor="#ffffff"
     bordercolor="#666666"
     borderopacity="1"
     objecttolerance="10"
     gridtolerance="10"
     guidetolerance="10"
     inkscape:pageopacity="0"
     inkscape:pageshadow="2"
     inkscape:window-width="1366"
     inkscape:window-height="709"
     id="namedview470"
     showgrid="false"
     inkscape:zoom="0.4609375"
     inkscape:cx="36.881356"
     inkscape:cy="218.0339"
     inkscape:window-x="-2"
     inkscape:window-y="-3"
     inkscape:window-maximized="1"
     inkscape:current-layer="svg2" />
  <defs
     id="defs4" />
  <path
     inkscape:connector-curvature="0"
     d="M 26,0 C 11.603,0 0,11.603 0,26 l 0,460 c 0,14.397 11.603,26 26,26 l 460,0 c 14.397,0 26,-11.603 26,-26 L 512,26 C 512,11.603 500.397,0 486,0 L 26,0"
     style="fill:#666666"
     id="path168218" />
  <path
     inkscape:connector-curvature="0"
     d="M 0,255.5 0,486 c 0,14.397 11.603,26 26,26 l 230.5,0 0,-256.5 -256.5,0"
     style="color:#000000;fill:#666666"
     id="path168266" />
  <path
     d="M 62.269531 41.693359 C 50.481531 41.693359 41.001953 51.173891 41.001953 62.962891 L 41 62.962891 L 41 227.5625 C 41.000512 233.29672 43.243715 238.48522 46.904297 242.30078 L 68.234375 263.63086 L 62.269531 263.63086 C 50.481531 263.63086 41.001953 273.10944 41.001953 284.89844 L 90.470703 334.36719 L 90.470703 334.37109 L 41 284.90039 L 41 449.03906 C 41 454.93306 43.370844 460.25061 47.214844 464.09961 L 95.115234 512 L 486 512 C 500.397 512 512 500.397 512 486 L 512 95.117188 L 464.78906 47.90625 L 464.78711 47.904297 L 464.78516 47.902344 C 460.94146 44.060644 455.62747 41.693359 449.73047 41.693359 L 284.66992 41.693359 C 272.88192 41.693359 263.40039 51.173891 263.40039 62.962891 L 263.40039 68.916016 L 242.39062 47.90625 L 242.38867 47.904297 L 242.38672 47.902344 C 238.54302 44.060642 233.22708 41.693359 227.33008 41.693359 L 62.269531 41.693359 z "
     id="path168270"
     style="opacity:0.25" />
  <path
     inkscape:connector-curvature="0"
     d="m 62.27,41.694 c -11.788,0 -21.269,9.48 -21.269,21.269 l 0,164.6 c 0,11.788 9.48,21.269 21.269,21.269 l 165.06,0 c 11.788,0 21.269,-9.48 21.269,-21.269 l 0,-164.6 c 0,-11.788 -9.48,-21.269 -21.269,-21.269 l -165.06,0 m 222.4,0 c -11.788,0 -21.269,9.48 -21.269,21.269 l 0,164.6 c 0,11.788 9.48,21.269 21.269,21.269 l 165.06,0 c 11.788,0 21.269,-9.48 21.269,-21.269 l 0,-164.6 c 0,-11.788 -9.48,-21.269 -21.269,-21.269 l -165.06,0 m -140.1,49.47 c 29.916,0 54.1,24.18 54.1,54.1 0,29.916 -24.18,54.1 -54.1,54.1 -29.916,0 -54.1,-24.18 -54.1,-54.1 0,-29.916 24.18,-54.1 54.1,-54.1 m 222.4,0 c 29.916,0 54.1,24.18 54.1,54.1 0,29.916 -24.18,54.1 -54.1,54.1 -29.916,0 -54.1,-24.18 -54.1,-54.1 0,-29.916 24.18,-54.1 54.1,-54.1 m -304.7,172.46 c -11.788,0 -21.269,9.48 -21.269,21.269 l 0,164.14 c 0,11.788 9.48,21.269 21.269,21.269 l 165.06,0 c 11.788,0 21.269,-9.48 21.269,-21.269 l 0,-164.14 c 0,-11.788 -9.48,-21.269 -21.269,-21.269 l -165.06,0 m 222.4,0 c -11.788,0 -21.269,9.48 -21.269,21.269 l 0,164.14 c 0,11.788 9.48,21.269 21.269,21.269 l 165.06,0 c 11.788,0 21.269,-9.48 21.269,-21.269 l 0,-164.14 c 0,-11.788 -9.48,-21.269 -21.269,-21.269 l -165.06,0 m 82.3,49.01 c 29.916,0 54.1,24.18 54.1,54.1 0,29.916 -24.18,54.1 -54.1,54.1 -29.916,0 -54.1,-24.18 -54.1,-54.1 0,-29.916 24.18,-54.1 54.1,-54.1 m -265.4,0.462 86,0 c 6.151,0 11.1,4.946 11.1,11.1 l 0,85.54 c 0,6.151 -4.946,11.1 -11.1,11.1 l -86,0 c -6.151,0 -11.1,-4.946 -11.1,-11.1 l 0,-85.54 c 0,-6.151 4.946,-11.1 11.1,-11.1"
     style="fill:#ffffff"
     id="path168406" />
</svg>
