<?xml version="1.0" encoding="UTF-8" standalone="no"?>
<svg
   xmlns:dc="http://purl.org/dc/elements/1.1/"
   xmlns:cc="http://creativecommons.org/ns#"
   xmlns:rdf="http://www.w3.org/1999/02/22-rdf-syntax-ns#"
   xmlns:svg="http://www.w3.org/2000/svg"
   xmlns="http://www.w3.org/2000/svg"
   xmlns:sodipodi="http://sodipodi.sourceforge.net/DTD/sodipodi-0.dtd"
   xmlns:inkscape="http://www.inkscape.org/namespaces/inkscape"
   viewBox="0 0 512 512"
   id="svg2"
   version="1.1"
   inkscape:version="0.91+devel r13804 custom"
   sodipodi:docname="synaptics.svg">
  <metadata
     id="metadata472">
    <rdf:RDF>
      <cc:Work
         rdf:about="">
        <dc:format>image/svg+xml</dc:format>
        <dc:type
           rdf:resource="http://purl.org/dc/dcmitype/StillImage" />
        <dc:title></dc:title>
      </cc:Work>
    </rdf:RDF>
  </metadata>
  <sodipodi:namedview
     pagecolor="#ffffff"
     bordercolor="#666666"
     borderopacity="1"
     objecttolerance="10"
     gridtolerance="10"
     guidetolerance="10"
     inkscape:pageopacity="0"
     inkscape:pageshadow="2"
     inkscape:window-width="1366"
     inkscape:window-height="709"
     id="namedview470"
     showgrid="false"
     inkscape:zoom="0.4609375"
     inkscape:cx="455.59322"
     inkscape:cy="185.72986"
     inkscape:window-x="-2"
     inkscape:window-y="-3"
     inkscape:window-maximized="1"
     inkscape:current-layer="svg2" />
  <defs
     id="defs4">
    <clipPath
       id="2">
      <path
         id="path170136"
         d="m256 176c-44.18 0-80 35.64-80 80 0 0-.53 7.515 1.768 16h122.86c-3.317 9.265-9.266 17.577-17.344 23.13-18.585 14.673-46.731 9.337-62.56-7.125h-38.03c12.35 28.24 40.517 48 73.31 48 44.18 0 80-35.817 80-80 0 0 0-8.222-1.591-16h-122.91c6.916-17.482 23.431-31.648 42.625-31.813.96-.046 1.917-.051 2.875-.031 12.866.261 25.351 6.362 34.03 15.844h38.28c-12.35-28.24-40.517-48-73.31-48"
         transform="translate(0-1.789)" />
    </clipPath>
    <clipPath
       id="3">
      <path
         id="path170139"
         d="m240 92.12v36.879c-52.46 6.538-95.05 44.81-107.97 95h33.19c13.611-36.23 49.647-64.48 89.03-64.22.955-.025 1.922-.037 2.875-.031 14.299.085 28.354 3.635 41.09 10 22.947 10.33 39.986 30.744 48.31 54.25h33.438c-12.918-50.19-55.51-88.46-107.97-95v-36.879zm-107.97 195.88c12.918 50.19 55.51 88.46 107.97 95v36.879h32v-36.879c52.46-6.538 95.05-44.81 107.97-95h-32.969c-12.936 38.16-52.919 65.61-93.34 64.19-39.36.199-75.06-27.918-88.37-64.19z" />
    </clipPath>
  </defs>
  <rect
     y="0"
     x="0"
     rx="25.988001"
     height="512"
     width="512"
     style="fill:#666666"
     id="rect170709" />
  <path
     inkscape:connector-curvature="0"
     d="M 0,255.72 0,486 c 0,14.397 11.603,26 26,26 l 230.06,0 0,-256.28 -256.06,0"
     style="fill:#666666"
     id="path170711" />
  <path
     inkscape:connector-curvature="0"
     d="m 256.06,255.72 0,256.28 229.94,0 c 14.397,0 26,-11.603 26,-26 l 0,-230.28 -255.94,0"
     style="fill:#666666"
     id="path170713" />
  <path
     inkscape:connector-curvature="0"
     d="M 26,0 C 11.603,0 0,11.603 0,26 l 0,229.72 256.06,0 L 256.06,0 26,0"
     style="fill:#666666"
     id="path170715" />
  <g
     line-height="125%"
     style="line-height:125%;font-family:'Gentium Book Basic';letter-spacing:0;word-spacing:0"
     id="g170759">
    <g
       style="font-size:208.33000183px"
       id="g170761">
    </g>
  </g>
  <g
     style="fill:#666666"
     id="g170783">
  </g>
  <g
     line-height="125%"
     style="font-size:208.33000183px;line-height:125%;font-family:'Gentium Book Basic';letter-spacing:0;word-spacing:0;fill:#000000"
     id="g170799">
  </g>
  <g
     transform="translate(-978.44,-123.66)"
     id="g170809">
    <g
       line-height="125%"
       style="line-height:125%;font-family:'Gentium Book Basic';letter-spacing:0;word-spacing:0"
       id="g170811">
    </g>
    <g
       style="fill:#666666"
       id="g170821">
    </g>
    <g
       line-height="125%"
       style="font-size:208.33000183px;line-height:125%;font-family:'Gentium Book Basic';letter-spacing:0;word-spacing:0;fill:#000000"
       id="g170837">
    </g>
  </g>
  <g
     transform="translate(-1578.36,-152.06)"
     style="fill:#666666"
     id="g170847">
  </g>
  <g
     line-height="125%"
     style="line-height:125%;font-family:'Gentium Book Basic';letter-spacing:0;word-spacing:0"
     id="g170867">
    <g
       style="font-size:208.33000183px"
       id="g170869">
    </g>
  </g>
  <g
     line-height="125%"
     style="line-height:125%;font-family:'Gentium Book Basic';letter-spacing:0;word-spacing:0"
     id="g170921">
    <g
       transform="translate(-872.69,-170.47)"
       id="g170927">
    </g>
  </g>
  <g
     transform="translate(-872.69,-170.47)"
     id="g170937">
    <g
       style="fill:#666666"
       id="g170939">
    </g>
    <g
       line-height="125%"
       style="line-height:125%;font-family:'Gentium Book Basic';letter-spacing:0;word-spacing:0"
       id="g170955">
    </g>
    <g
       style="fill:#666666"
       id="g170965">
    </g>
  </g>
  <g
     transform="translate(-918.71,-69.22)"
     style="fill:#666666"
     id="g170981">
  </g>
  <path
     d="M 206.58984 41 L 206.58984 194.5 L 147.90234 194.5 L 147.94141 194.53906 L 256 329.31055 L 274.09961 347.41016 L 124.84961 347.41016 L 160.09961 382.66016 C 160.08722 382.65107 160.07489 382.6419 160.0625 382.63281 L 124.83984 347.41016 C 129.78484 354.16316 135.23758 360.51969 141.14258 366.42969 L 199.91016 425.19727 C 185.78332 420.6431 172.41252 414.41008 160.02539 406.73828 L 100.69141 347.4043 L 100.70508 347.42578 L 100.68945 347.41016 L 88.064453 347.41016 L 205.9043 465.25 C 205.9023 465.24953 205.90044 465.24851 205.89844 465.24805 L 88.060547 347.41016 L 58.529297 347.41016 C 69.280297 369.51016 83.630316 389.54047 100.82031 406.73047 L 206.08984 512 L 486.01172 512 C 500.40907 512 512 500.40907 512 486.01172 L 512 247.58984 L 305.41016 41 L 206.59961 41 L 305.41016 139.81055 L 305.41016 139.82031 L 206.58984 41 z "
     id="path171049"
     style="opacity:0.25" />
  <path
     inkscape:connector-curvature="0"
     d="m 206.59,41 0,153.5 -58.688,0 108.09,134.81 108.09,-134.81 -58.688,0 0,-153.5 -98.81,0 M 58.524,347.41 C 94.116,420.58 169.164,471 255.994,471 c 86.83,0 161.88,-50.42 197.47,-123.59 l -29.531,0 -12.625,0 -1.219,1.875 c -31.776,50.01 -87.23,83.45 -150.56,84.66 l 0,0.094 -3.469,0 -0.063,0 -3.406,0 0,-0.094 c -63.38,-1.161 -118.9,-34.608 -150.69,-84.66 l -1.219,-1.875 -12.625,0 -29.531,0 m 66.31,0 c 29.558,40.37 77.27,66.59 131.16,66.59 l 0.063,0 c 53.858,-0.02 101.55,-26.24 131.09,-66.59 l -262.31,0"
     style="fill:#ffffff"
     id="path171107" />
</svg>
