<?xml version="1.0" encoding="UTF-8" standalone="no"?>
<svg
   xmlns:dc="http://purl.org/dc/elements/1.1/"
   xmlns:cc="http://creativecommons.org/ns#"
   xmlns:rdf="http://www.w3.org/1999/02/22-rdf-syntax-ns#"
   xmlns:svg="http://www.w3.org/2000/svg"
   xmlns="http://www.w3.org/2000/svg"
   xmlns:sodipodi="http://sodipodi.sourceforge.net/DTD/sodipodi-0.dtd"
   xmlns:inkscape="http://www.inkscape.org/namespaces/inkscape"
   viewBox="0 0 512 512"
   id="svg2"
   version="1.1"
   inkscape:version="0.91+devel r13804 custom"
   sodipodi:docname="teamviewer.svg">
  <metadata
     id="metadata472">
    <rdf:RDF>
      <cc:Work
         rdf:about="">
        <dc:format>image/svg+xml</dc:format>
        <dc:type
           rdf:resource="http://purl.org/dc/dcmitype/StillImage" />
        <dc:title></dc:title>
      </cc:Work>
    </rdf:RDF>
  </metadata>
  <sodipodi:namedview
     pagecolor="#ffffff"
     bordercolor="#666666"
     borderopacity="1"
     objecttolerance="10"
     gridtolerance="10"
     guidetolerance="10"
     inkscape:pageopacity="0"
     inkscape:pageshadow="2"
     inkscape:window-width="1366"
     inkscape:window-height="709"
     id="namedview470"
     showgrid="false"
     inkscape:zoom="0.4609375"
     inkscape:cx="455.59322"
     inkscape:cy="185.72986"
     inkscape:window-x="-2"
     inkscape:window-y="-3"
     inkscape:window-maximized="1"
     inkscape:current-layer="svg2" />
  <defs
     id="defs4" />
  <path
     inkscape:connector-curvature="0"
     d="M 26,0 C 11.603,0 0,11.603 0,26 l 0,460 c 0,14.397 11.603,26 26,26 l 460,0 c 14.397,0 26,-11.603 26,-26 L 512,26 C 512,11.603 500.397,0 486,0 L 26,0"
     style="fill:#666666"
     id="path187478" />
  <path
     style="fill-rule:evenodd;opacity:0.25"
     d="M 188.35938 170.71094 L 114.67969 213.33789 L 114.67969 213.33984 L 41.005859 255.96484 L 41.005859 255.9668 L 41 255.96875 L 297.0332 512 L 486 512 C 500.397 512 512 500.397 512 486 L 512 296.96094 L 471 255.96094 L 397.32031 213.33203 L 451.3418 267.35352 L 451.33594 267.35547 L 397.32031 213.33984 L 323.64062 170.71289 L 323.64062 213.33789 L 323.64062 213.33984 L 230.98828 213.33984 L 188.35938 170.71289 L 188.35938 170.71094 z "
     id="path187528" />
  <path
     inkscape:connector-curvature="0"
     d="m 188.36,170.71 -73.68,42.628 -73.68,42.628 73.68,42.699 73.68,42.628 0,-48.748 135.28,0 0,48.748 73.68,-42.628 73.68,-42.699 -73.68,-42.628 -73.68,-42.628 0,42.628 -135.28,0 0,-42.628"
     style="fill:#ffffff;fill-rule:evenodd"
     id="path187556" />
</svg>
