<?xml version="1.0" encoding="UTF-8" standalone="no"?>
<svg
   xmlns:dc="http://purl.org/dc/elements/1.1/"
   xmlns:cc="http://creativecommons.org/ns#"
   xmlns:rdf="http://www.w3.org/1999/02/22-rdf-syntax-ns#"
   xmlns:svg="http://www.w3.org/2000/svg"
   xmlns="http://www.w3.org/2000/svg"
   xmlns:sodipodi="http://sodipodi.sourceforge.net/DTD/sodipodi-0.dtd"
   xmlns:inkscape="http://www.inkscape.org/namespaces/inkscape"
   viewBox="0 0 512 512"
   id="svg2"
   version="1.1"
   inkscape:version="0.91+devel r13804 custom"
   sodipodi:docname="tellico.svg">
  <metadata
     id="metadata472">
    <rdf:RDF>
      <cc:Work
         rdf:about="">
        <dc:format>image/svg+xml</dc:format>
        <dc:type
           rdf:resource="http://purl.org/dc/dcmitype/StillImage" />
        <dc:title></dc:title>
      </cc:Work>
    </rdf:RDF>
  </metadata>
  <sodipodi:namedview
     pagecolor="#ffffff"
     bordercolor="#666666"
     borderopacity="1"
     objecttolerance="10"
     gridtolerance="10"
     guidetolerance="10"
     inkscape:pageopacity="0"
     inkscape:pageshadow="2"
     inkscape:window-width="1366"
     inkscape:window-height="709"
     id="namedview470"
     showgrid="false"
     inkscape:zoom="0.4609375"
     inkscape:cx="455.59322"
     inkscape:cy="185.72986"
     inkscape:window-x="-2"
     inkscape:window-y="-3"
     inkscape:window-maximized="1"
     inkscape:current-layer="svg2" />
  <defs
     id="defs4" />
  <path
     inkscape:connector-curvature="0"
     d="M 26,0 C 11.603,0 0,11.603 0,26 l 0,460 c 0,14.397 11.603,26 26,26 l 460,0 c 14.397,0 26,-11.603 26,-26 L 512,26 C 512,11.603 500.397,0 486,0 L 26,0"
     style="fill:#666666"
     id="path206146" />
  <path
     d="M 87.970703 78.378906 L 253.42578 243.83398 L 253.42578 243.83789 L 87.96875 78.380859 L 87.96875 120.86914 L 75.279297 108.17969 L 75.279297 108.18945 L 64.84375 108.18945 L 64.84375 108.19141 L 64.84375 152.97461 L 52.529297 140.66016 L 41 140.66016 L 41 140.66211 L 41 399.38086 L 153.61914 512 L 486 512 C 500.397 512 512 500.397 512 486 L 512 166.38086 L 424 78.380859 C 369.91064 82.501811 316.05101 83.844232 258.0918 136.19141 L 258.08984 136.18945 L 258.10742 140.38281 L 253.875 136.15039 L 253.875 136.1543 C 195.92235 83.809786 142.05878 82.49976 87.970703 78.378906 z "
     id="path206196"
     style="opacity:0.25" />
  <path
     inkscape:connector-curvature="0"
     d="m 87.969,78.38 0,268.81 c 61.08,1.207 117.59,16.03 164.78,58.875 l 1.125,-269.91 C 195.919,83.805 142.054,82.495 87.964,78.374 m 336.03,0 c -54.09,4.121 -107.95,5.464 -165.91,57.813 l 1.125,269.88 c 47.19,-42.846 103.72,-57.699 164.78,-58.906 l 0,-268.78 m -359.16,29.813 0,263.63 c 90.04,1.325 149.99,19.19 190.16,47.906 0.82,0.262 1.373,0.046 2,0 40.18,-28.713 100.08,-46.582 190.13,-47.906 l 0,-263.62 -10.469,0 0,252.41 c -49.17,4.383 -87.75,-4.02 -180.69,53.41 -92.92,-57.41 -131.51,-49.02 -180.69,-53.41 l 0,-252.41 -10.438,0 m -23.844,32.469 0,258.72 c 66.53,5.099 144.37,1.386 186.22,25.688 12.09,6.983 16.463,8.885 28.09,8.469 l 0.063,0 c 12.679,0.61 16.846,-1.216 29.406,-8.469 41.852,-24.301 119.68,-20.589 186.22,-25.688 l 0,-258.72 -11.594,0 0,246.78 c -60.21,2.628 -120.37,5.391 -176.69,26.469 -10.841,10.208 -14.915,10.393 -26.19,10.625 -12.493,-0.257 -15.934,0.029 -27.25,-10.625 -56.32,-21.08 -116.55,-23.833 -176.75,-26.469 l 0,-246.78 -11.531,0"
     style="fill:#ffffff"
     id="path206264" />
</svg>
