<?xml version="1.0" encoding="UTF-8" standalone="no"?>
<svg
   xmlns:dc="http://purl.org/dc/elements/1.1/"
   xmlns:cc="http://creativecommons.org/ns#"
   xmlns:rdf="http://www.w3.org/1999/02/22-rdf-syntax-ns#"
   xmlns:svg="http://www.w3.org/2000/svg"
   xmlns="http://www.w3.org/2000/svg"
   xmlns:sodipodi="http://sodipodi.sourceforge.net/DTD/sodipodi-0.dtd"
   xmlns:inkscape="http://www.inkscape.org/namespaces/inkscape"
   viewBox="0 0 512 512"
   id="svg2"
   version="1.1"
   inkscape:version="0.91+devel r13804 custom"
   sodipodi:docname="totem.svg">
  <metadata
     id="metadata472">
    <rdf:RDF>
      <cc:Work
         rdf:about="">
        <dc:format>image/svg+xml</dc:format>
        <dc:type
           rdf:resource="http://purl.org/dc/dcmitype/StillImage" />
        <dc:title></dc:title>
      </cc:Work>
    </rdf:RDF>
  </metadata>
  <sodipodi:namedview
     pagecolor="#ffffff"
     bordercolor="#666666"
     borderopacity="1"
     objecttolerance="10"
     gridtolerance="10"
     guidetolerance="10"
     inkscape:pageopacity="0"
     inkscape:pageshadow="2"
     inkscape:window-width="1366"
     inkscape:window-height="709"
     id="namedview470"
     showgrid="false"
     inkscape:zoom="0.4609375"
     inkscape:cx="455.59322"
     inkscape:cy="185.72986"
     inkscape:window-x="-2"
     inkscape:window-y="-3"
     inkscape:window-maximized="1"
     inkscape:current-layer="svg2" />
  <defs
     id="defs4" />
  <path
     inkscape:connector-curvature="0"
     d="M 26,0 C 11.603,0 0,11.603 0,26 l 0,460 c 0,14.397 11.603,26 26,26 l 460,0 c 14.397,0 26,-11.603 26,-26 L 512,26 C 512,11.603 500.397,0 486,0 L 26,0"
     style="fill:#666666"
     id="path230514" />
  <path
     d="M 67.875 41 C 53.021 41 41 53.03 41 67.875 L 41 141.51562 L 41.003906 141.51953 L 41 141.51953 L 70.871094 171.39062 L 41 171.39062 L 41 444.13086 C 41 451.55786 44.010187 458.28062 48.867188 463.14062 L 97.726562 512 L 486 512 C 500.397 512 512 500.397 512 486 L 512 97.734375 L 463.13086 48.865234 C 463.15756 48.891985 463.1824 48.920403 463.20898 48.947266 L 463.13086 48.869141 C 458.26886 44.007141 451.55186 41 444.13086 41 L 67.880859 41 L 91.240234 64.359375 L 91.234375 64.359375 L 67.875 41 z "
     id="path230564"
     style="opacity:0.25" />
  <path
     inkscape:connector-curvature="0"
     d="M 67.875,41 C 53.021,41 41,53.03 41,67.875 l 0,73.64 430,0 0,-73.64 C 471,53.033 458.98,41 444.125,41 l -376.25,0 m 0,23.358 26.875,0 26.875,53.75 -53.75,0 0,-53.75 m 80.63,0 53.75,0 26.875,53.75 -53.75,0 -26.875,-53.75 m 107.5,0 53.75,0 26.875,53.75 -53.75,0 -26.875,-53.75 m 107.5,0 53.75,0 26.875,26.875 0,26.875 -53.75,0 -26.875,-53.75 m -322.5,107.03 0,272.74 c 0,14.855 12.02,26.875 26.875,26.875 l 376.25,0 c 14.855,0 26.875,-12.02 26.875,-26.875 l 0,-272.74 -430,0 m 149.12,67.34 c 2.874,0.072 5.984,0.919 9.291,2.572 l 140.04,70.02 c 13.228,6.614 13.228,17.427 0,24.04 l -140.04,70.02 c -13.228,6.614 -24.04,-0.078 -24.04,-14.855 l 0,-134.37 c 0,-11.08 6.128,-17.642 14.75,-17.427"
     style="fill:#ffffff"
     id="path230644" />
</svg>
