<?xml version="1.0" encoding="UTF-8" standalone="no"?>
<svg
   xmlns:dc="http://purl.org/dc/elements/1.1/"
   xmlns:cc="http://creativecommons.org/ns#"
   xmlns:rdf="http://www.w3.org/1999/02/22-rdf-syntax-ns#"
   xmlns:svg="http://www.w3.org/2000/svg"
   xmlns="http://www.w3.org/2000/svg"
   xmlns:sodipodi="http://sodipodi.sourceforge.net/DTD/sodipodi-0.dtd"
   xmlns:inkscape="http://www.inkscape.org/namespaces/inkscape"
   viewBox="0 0 512 512"
   id="svg2"
   version="1.1"
   inkscape:version="0.91+devel r13804 custom"
   sodipodi:docname="uberwriter.svg">
  <metadata
     id="metadata472">
    <rdf:RDF>
      <cc:Work
         rdf:about="">
        <dc:format>image/svg+xml</dc:format>
        <dc:type
           rdf:resource="http://purl.org/dc/dcmitype/StillImage" />
        <dc:title></dc:title>
      </cc:Work>
    </rdf:RDF>
  </metadata>
  <sodipodi:namedview
     pagecolor="#ffffff"
     bordercolor="#666666"
     borderopacity="1"
     objecttolerance="10"
     gridtolerance="10"
     guidetolerance="10"
     inkscape:pageopacity="0"
     inkscape:pageshadow="2"
     inkscape:window-width="1366"
     inkscape:window-height="709"
     id="namedview470"
     showgrid="false"
     inkscape:zoom="0.4609375"
     inkscape:cx="683.38983"
     inkscape:cy="174.88241"
     inkscape:window-x="-2"
     inkscape:window-y="-3"
     inkscape:window-maximized="1"
     inkscape:current-layer="svg2" />
  <defs
     id="defs4" />
  <path
     inkscape:connector-curvature="0"
     d="M 26,0 C 11.603,0 0,11.603 0,26 l 0,460 c 0,14.397 11.603,26 26,26 l 460,0 c 14.397,0 26,-11.603 26,-26 L 512,26 C 512,11.603 500.397,0 486,0 L 26,0"
     style="fill:#666666"
     id="path276457" />
  <path
     d="M 388.31055 41 L 388.31055 215.74023 L 305.63086 133.06055 L 256.00586 133.06055 L 305.63086 182.68555 L 305.63086 182.69141 L 256 133.06055 L 256 248.80859 L 140.2207 133.0293 L 90.626953 133.0293 L 90.630859 133.0332 L 90.630859 285.0293 C 90.630859 303.4203 92.528609 320.2693 96.349609 335.5293 L 166.79297 405.97266 C 166.78907 405.9718 166.78514 405.97156 166.78125 405.9707 L 96.339844 335.5293 C 100.15984 350.4633 106.37959 363.44755 115.05859 374.56055 L 115.06836 374.57031 C 117.08617 377.15567 119.25317 379.60269 121.57422 381.92773 L 251.64648 512 L 486 512 C 500.397 512 512 500.397 512 486 L 512 131.61914 L 421.38086 41 L 388.32031 41 L 421.38086 74.060547 L 421.38086 74.070312 L 388.31055 41 z "
     id="path276507"
     style="opacity:0.25" />
  <path
     inkscape:connector-curvature="0"
     d="m 388.31,41 0,430 33.06,0 0,-430 -33.06,0 m -297.69,92.03 0,152 c 0,18.391 1.898,35.24 5.719,50.5 3.82,14.934 10.04,27.917 18.719,39.03 8.666,11.11 20.15,19.78 34.375,26.03 14.223,5.904 31.741,8.844 52.56,8.844 23.948,0 44.957,-1.562 63,-4.688 18.407,-3.126 33.14,-6.07 44.25,-8.844 l -3.625,0.031 0,-262.87 -49.625,0 0,228.53 c -1.737,0.695 0.168,1.368 -4,2.063 -3.82,0.347 -8.169,0.868 -13.03,1.563 -4.846,0.347 -10.04,0.684 -15.594,1.031 -5.557,0.331 -10.947,0.531 -16.16,0.531 -24.642,0 -42.14,-7.121 -52.56,-21.344 -10.419,-14.223 -14.438,-37.835 -14.438,-70.813 l 0,-141.59 -49.594,0"
     style="fill:#ffffff"
     id="path276557" />
</svg>
