<?xml version="1.0" encoding="UTF-8" standalone="no"?>
<svg
   xmlns:dc="http://purl.org/dc/elements/1.1/"
   xmlns:cc="http://creativecommons.org/ns#"
   xmlns:rdf="http://www.w3.org/1999/02/22-rdf-syntax-ns#"
   xmlns:svg="http://www.w3.org/2000/svg"
   xmlns="http://www.w3.org/2000/svg"
   xmlns:sodipodi="http://sodipodi.sourceforge.net/DTD/sodipodi-0.dtd"
   xmlns:inkscape="http://www.inkscape.org/namespaces/inkscape"
   viewBox="0 0 512 512"
   id="svg2"
   version="1.1"
   inkscape:version="0.91+devel r13804 custom"
   sodipodi:docname="ubuntuone.svg">
  <metadata
     id="metadata472">
    <rdf:RDF>
      <cc:Work
         rdf:about="">
        <dc:format>image/svg+xml</dc:format>
        <dc:type
           rdf:resource="http://purl.org/dc/dcmitype/StillImage" />
        <dc:title></dc:title>
      </cc:Work>
    </rdf:RDF>
  </metadata>
  <sodipodi:namedview
     pagecolor="#ffffff"
     bordercolor="#666666"
     borderopacity="1"
     objecttolerance="10"
     gridtolerance="10"
     guidetolerance="10"
     inkscape:pageopacity="0"
     inkscape:pageshadow="2"
     inkscape:window-width="1366"
     inkscape:window-height="709"
     id="namedview470"
     showgrid="false"
     inkscape:zoom="0.4609375"
     inkscape:cx="683.38983"
     inkscape:cy="174.88241"
     inkscape:window-x="-2"
     inkscape:window-y="-3"
     inkscape:window-maximized="1"
     inkscape:current-layer="svg2" />
  <defs
     id="defs4" />
  <path
     inkscape:connector-curvature="0"
     d="M 26,0 C 11.603,0 0,11.603 0,26 l 0,460 c 0,14.397 11.603,26 26,26 l 460,0 c 14.397,0 26,-11.603 26,-26 L 512,26 C 512,11.603 500.397,0 486,0 L 26,0"
     style="fill:#666666"
     id="path278016" />
  <path
     style="fill-opacity:0.94100001;opacity:0.25"
     d="M 208.09961 41 L 150.15625 139.73047 L 52.816406 42.390625 L 54.667969 324.08008 C 54.667969 324.08008 53.92125 374.58055 95.90625 416.56055 L 96.199219 416.85352 C 96.103998 416.75882 96.004941 416.6651 95.910156 416.57031 L 191.33984 512 L 486 512 C 500.397 512 512 500.397 512 486 L 512 96.271484 L 457.85938 42.130859 L 324.41016 42.130859 L 324.41016 157.31055 L 208.09961 41 z "
     id="path278066" />
  <path
     inkscape:connector-curvature="0"
     d="m 52.816,42.39 1.851,281.69 c 0,0 -1.747,118.38 150.8,143.33 87.78,14.333 253.71,-18.946 253.71,-18.946 l -1.323,-406.34 -133.45,0 0,316.18 -125.51,0 0,-209.32 -54.18,0 63.38,-107.99 z"
     style="fill:#ffffff;fill-opacity:0.94100001"
     id="path278088" />
</svg>
