<?xml version="1.0" encoding="UTF-8" standalone="no"?>
<svg
   xmlns:dc="http://purl.org/dc/elements/1.1/"
   xmlns:cc="http://creativecommons.org/ns#"
   xmlns:rdf="http://www.w3.org/1999/02/22-rdf-syntax-ns#"
   xmlns:svg="http://www.w3.org/2000/svg"
   xmlns="http://www.w3.org/2000/svg"
   xmlns:sodipodi="http://sodipodi.sourceforge.net/DTD/sodipodi-0.dtd"
   xmlns:inkscape="http://www.inkscape.org/namespaces/inkscape"
   viewBox="0 0 512 512"
   id="svg2"
   version="1.1"
   inkscape:version="0.91+devel r13804 custom"
   sodipodi:docname="unetbootin.svg">
  <metadata
     id="metadata472">
    <rdf:RDF>
      <cc:Work
         rdf:about="">
        <dc:format>image/svg+xml</dc:format>
        <dc:type
           rdf:resource="http://purl.org/dc/dcmitype/StillImage" />
        <dc:title></dc:title>
      </cc:Work>
    </rdf:RDF>
  </metadata>
  <sodipodi:namedview
     pagecolor="#ffffff"
     bordercolor="#666666"
     borderopacity="1"
     objecttolerance="10"
     gridtolerance="10"
     guidetolerance="10"
     inkscape:pageopacity="0"
     inkscape:pageshadow="2"
     inkscape:window-width="1366"
     inkscape:window-height="709"
     id="namedview470"
     showgrid="false"
     inkscape:zoom="0.4609375"
     inkscape:cx="683.38983"
     inkscape:cy="174.88241"
     inkscape:window-x="-2"
     inkscape:window-y="-3"
     inkscape:window-maximized="1"
     inkscape:current-layer="svg2" />
  <defs
     id="defs4" />
  <path
     inkscape:connector-curvature="0"
     d="M 26,0 C 11.603,0 0,11.603 0,26 l 0,460 c 0,14.397 11.603,26 26,26 l 460,0 c 14.397,0 26,-11.603 26,-26 L 512,26 C 512,11.603 500.397,0 486,0 L 26,0"
     style="fill:#666666"
     id="path292538" />
  <g
     transform="translate(-698.58,-663.86)"
     line-height="125%"
     style="line-height:125%;font-family:'Gentium Book Basic';letter-spacing:0;word-spacing:0"
     id="g292582">
  </g>
  <g
     transform="translate(-698.58,-663.86)"
     line-height="125%"
     style="line-height:125%;font-family:'Gentium Book Basic';letter-spacing:0;word-spacing:0"
     id="g292738">
  </g>
  <g
     transform="translate(-698.58,-663.86)"
     line-height="125%"
     style="line-height:125%;font-family:'Gentium Book Basic';letter-spacing:0;word-spacing:0"
     id="g292786">
  </g>
  <path
     d="M 384.83984 41 L 316.06055 109.81055 L 316.05859 109.8125 L 326.66992 120.42383 L 400.93945 194.7207 L 512 305.78125 L 512 168.15039 L 384.84961 41 L 406.06641 62.226562 L 384.83984 41 z M 274.56055 106.68945 L 51.369141 329.91016 L 51.375 329.91602 C 39.24689 342.0505 39.248823 361.73713 51.380859 373.91016 L 189.4707 512 L 486 512 C 500.397 512 512 500.397 512 486 L 512 344.13086 L 274.56055 106.68945 z "
     id="path292902"
     style="opacity:0.25" />
  <path
     inkscape:connector-curvature="0"
     d="m 384.84,41 -68.781,68.813 84.88,84.91 L 469.72,125.91 384.85,41 m 4.531,36.38 17.281,17.281 -14.188,14.09 -17.219,-17.25 14.13,-14.12 m 26.313,26.313 17.281,17.313 -14.156,14.09 -17.281,-17.25 14.156,-14.156 m -141.12,3 -223.19,223.22 c -12.134,12.134 -12.134,31.825 0,44 l 88.03,88 c 12.161,12.161 31.875,12.11 43.969,0 l 223.19,-223.19 -132,-132.03"
     style="fill:#ffffff"
     id="path292938" />
</svg>
