<?xml version="1.0" encoding="UTF-8" standalone="no"?>
<svg
   xmlns:dc="http://purl.org/dc/elements/1.1/"
   xmlns:cc="http://creativecommons.org/ns#"
   xmlns:rdf="http://www.w3.org/1999/02/22-rdf-syntax-ns#"
   xmlns:svg="http://www.w3.org/2000/svg"
   xmlns="http://www.w3.org/2000/svg"
   xmlns:sodipodi="http://sodipodi.sourceforge.net/DTD/sodipodi-0.dtd"
   xmlns:inkscape="http://www.inkscape.org/namespaces/inkscape"
   viewBox="0 0 512 512"
   id="svg2"
   version="1.1"
   inkscape:version="0.91+devel r13804 custom"
   sodipodi:docname="unity-tweak-tool.svg">
  <metadata
     id="metadata472">
    <rdf:RDF>
      <cc:Work
         rdf:about="">
        <dc:format>image/svg+xml</dc:format>
        <dc:type
           rdf:resource="http://purl.org/dc/dcmitype/StillImage" />
        <dc:title></dc:title>
      </cc:Work>
    </rdf:RDF>
  </metadata>
  <sodipodi:namedview
     pagecolor="#ffffff"
     bordercolor="#666666"
     borderopacity="1"
     objecttolerance="10"
     gridtolerance="10"
     guidetolerance="10"
     inkscape:pageopacity="0"
     inkscape:pageshadow="2"
     inkscape:window-width="1366"
     inkscape:window-height="709"
     id="namedview470"
     showgrid="false"
     inkscape:zoom="0.4609375"
     inkscape:cx="683.38983"
     inkscape:cy="174.88241"
     inkscape:window-x="-2"
     inkscape:window-y="-3"
     inkscape:window-maximized="1"
     inkscape:current-layer="svg2" />
  <defs
     id="defs4" />
  <path
     inkscape:connector-curvature="0"
     d="M 26,0 C 11.603,0 0,11.603 0,26 l 0,460 c 0,14.397 11.603,26 26,26 l 460,0 c 14.397,0 26,-11.603 26,-26 L 512,26 C 512,11.603 500.397,0 486,0 L 26,0"
     style="fill:#666666"
     id="path293810" />
  <path
     style="color:#000000;opacity:0.25"
     d="M 141.5 148.48047 C 85.823653 148.48047 41.001051 193.34144 41 249.01953 L 41 262.98047 L 40.998047 262.98047 C 40.998047 290.83047 52.210625 315.97039 70.390625 334.15039 L 248.24023 512 L 486 512 C 500.397 512 512 500.397 512 486 L 512 248.24023 L 441.60938 177.84961 C 423.44763 159.69087 398.33973 148.48572 370.51953 148.48047 L 370.5 148.48047 L 141.5 148.48047 z "
     id="path293860" />
  <path
     inkscape:connector-curvature="0"
     d="m 370.5,148.48 c 55.679,0 100.5,44.865 100.5,100.54 l 0,13.962 c 0,55.679 -44.823,100.54 -100.5,100.54 l -229,0 C 85.821,363.522 41,318.657 41,262.982 L 41,249.02 C 41,193.341 85.823,148.48 141.5,148.48 l 229.02,0 m -222.03,28.563 c -43.616,0 -78.962,35.35 -78.962,78.962 0,43.616 35.35,78.962 78.962,78.962 43.616,0 78.962,-35.35 78.962,-78.962 0,-43.616 -35.35,-78.962 -78.962,-78.962"
     style="color:#000000;fill:#ffffff"
     id="path293892" />
</svg>
