<?xml version="1.0" encoding="UTF-8" standalone="no"?>
<svg
   xmlns:dc="http://purl.org/dc/elements/1.1/"
   xmlns:cc="http://creativecommons.org/ns#"
   xmlns:rdf="http://www.w3.org/1999/02/22-rdf-syntax-ns#"
   xmlns:svg="http://www.w3.org/2000/svg"
   xmlns="http://www.w3.org/2000/svg"
   xmlns:sodipodi="http://sodipodi.sourceforge.net/DTD/sodipodi-0.dtd"
   xmlns:inkscape="http://www.inkscape.org/namespaces/inkscape"
   viewBox="0 0 512 512"
   id="svg2"
   version="1.1"
   inkscape:version="0.91+devel r13804 custom"
   sodipodi:docname="users.svg">
  <metadata
     id="metadata472">
    <rdf:RDF>
      <cc:Work
         rdf:about="">
        <dc:format>image/svg+xml</dc:format>
        <dc:type
           rdf:resource="http://purl.org/dc/dcmitype/StillImage" />
        <dc:title></dc:title>
      </cc:Work>
    </rdf:RDF>
  </metadata>
  <sodipodi:namedview
     pagecolor="#ffffff"
     bordercolor="#666666"
     borderopacity="1"
     objecttolerance="10"
     gridtolerance="10"
     guidetolerance="10"
     inkscape:pageopacity="0"
     inkscape:pageshadow="2"
     inkscape:window-width="1366"
     inkscape:window-height="709"
     id="namedview470"
     showgrid="false"
     inkscape:zoom="0.4609375"
     inkscape:cx="683.38983"
     inkscape:cy="174.88241"
     inkscape:window-x="-2"
     inkscape:window-y="-3"
     inkscape:window-maximized="1"
     inkscape:current-layer="svg2" />
  <defs
     id="defs4" />
  <path
     inkscape:connector-curvature="0"
     d="M 26,0 C 11.603,0 0,11.603 0,26 l 0,460 c 0,14.397 11.603,26 26,26 l 460,0 c 14.397,0 26,-11.603 26,-26 L 512,26 C 512,11.603 500.397,0 486,0 L 26,0"
     style="fill:#666666"
     id="path311767" />
  <g
     transform="translate(-880.81,-1199.89)"
     line-height="125%"
     style="font-size:208.33000183px;line-height:125%;font-family:'Gentium Book Basic';letter-spacing:0;word-spacing:0"
     id="g311817">
  </g>
  <path
     style="fill:#000000;fill-rule:evenodd;opacity:0.25"
     d="M 363.43359 79.46875 L 363.43555 79.470703 C 327.67634 79.472805 298.56445 108.17776 298.56445 143.93945 L 301.35742 146.73242 C 301.35283 146.72922 301.34834 146.72586 301.34375 146.72266 L 298.56055 143.93945 C 298.56055 144.25245 298.5878 144.56691 298.5918 144.87891 L 298.60156 144.88867 C 298.5976 144.88615 298.59381 144.88338 298.58984 144.88086 L 323.02148 169.3125 C 328.38566 177.74896 332.18155 187.26264 333.99609 197.45703 L 302.16992 165.63086 C 290.41692 153.87786 274.13959 146.61914 256.18359 146.61914 L 321.02539 211.46094 C 321.02538 211.4629 321.0254 211.46483 321.02539 211.4668 L 256.18945 146.63086 C 251.90413 146.63086 247.71905 147.05301 243.66406 147.8418 L 194.34375 98.523438 L 194.30078 98.480469 C 182.54578 86.725469 166.2593 79.470703 148.2793 79.470703 C 112.5183 79.470703 83.404297 108.17645 83.404297 143.93945 L 83.410156 143.94531 C 83.411754 161.82398 90.688746 178.0404 102.43945 189.78711 L 102.67969 190.02734 C 102.59789 189.9464 102.51106 189.87044 102.42969 189.78906 L 159.33594 246.69531 C 147.63357 255.54371 142.96225 252.44855 126.31445 237.38086 L 175.63086 286.69727 L 175.62891 286.69922 L 126.31055 237.38086 C 116.99769 228.95371 107.08752 225.11335 97.476562 225.00586 L 97.470703 225 C 96.829703 224.993 96.202453 225.0365 95.564453 225.0625 L 95.560547 225.06055 C 94.879547 225.08855 94.207297 225.12055 93.529297 225.18555 L 164.07617 295.73242 L 164.07422 295.73438 L 93.529297 225.18945 C 61.027297 228.28545 33.219797 273.26 42.966797 325.25 L 42.96875 325.25195 L 50.28125 365.38086 L 196.90039 512 L 486 512 C 500.397 512 512 500.397 512 486 L 512 201.03711 L 409.42383 98.460938 C 409.45054 98.487657 409.47529 98.516202 409.50195 98.542969 L 409.41992 98.460938 C 397.67392 86.714938 381.39959 79.46875 363.43359 79.46875 z "
     id="path311877" />
  <path
     inkscape:connector-curvature="0"
     d="m 148.28,79.47 c -35.761,0 -64.875,28.707 -64.875,64.47 0,35.761 29.11,64.875 64.875,64.875 10.624,0 20.644,-2.577 29.5,-7.125 2.859,-23.571 16.256,-43.928 35.28,-56.34 0.01,-0.474 0.063,-0.929 0.063,-1.406 0,-35.761 -29.08,-64.47 -64.844,-64.47 m 215.16,0 c -35.761,0 -64.875,28.707 -64.875,64.47 0,0.313 0.027,0.626 0.031,0.938 19.522,12.425 33.29,33.16 36.09,57.19 8.675,4.312 18.429,6.75 28.75,6.75 35.761,0 64.813,-29.11 64.813,-64.875 0,-35.761 -29.05,-64.47 -64.813,-64.47 m -107.25,67.16 c -35.761,0 -64.844,28.77 -64.844,64.53 0,35.761 29.08,64.844 64.844,64.844 35.761,0 64.844,-29.08 64.844,-64.844 0,-35.761 -29.08,-64.53 -64.844,-64.53 m -158.72,78.38 c -0.641,-0.007 -1.268,0.037 -1.906,0.063 -0.681,0.028 -1.353,0.06 -2.031,0.125 -32.502,3.096 -60.31,48.07 -50.563,100.06 l 7.313,40.13 84.69,0 c 0.848,-17.813 5.462,-34.25 12.906,-48.03 11.435,-21.17 29.907,-36.934 52.22,-39.06 5.848,-0.558 11.8,0.222 17.688,1.75 -18.683,-10.491 -32.738,-28.332 -38.16,-49.53 -3.184,1.816 -6.318,4.08 -9.406,6.875 -20.979,18.986 -22.929,18.986 -43.906,0 -9.316,-8.43 -19.23,-12.27 -28.844,-12.375 m 316.59,0 c -9.582,0.142 -19.414,3.982 -28.688,12.375 -20.979,18.986 -22.96,18.986 -43.938,0 -2.871,-2.6 -5.794,-4.749 -8.75,-6.5 -5.491,21.08 -19.534,38.797 -38.16,49.22 5.91,-1.541 11.851,-2.366 17.719,-1.813 14.888,1.404 28.27,9.09 38.75,20.09 15.479,16.243 25.557,40.04 26.844,67 l 83.53,0 7.656,-40.12 c 10.16,-54.16 -20.744,-100.75 -54.969,-100.25 m -210.56,67.22 c -0.681,0.028 -1.385,0.092 -2.063,0.156 -32.502,3.096 -60.28,48.07 -50.53,100.06 l 7.313,40.09 97.97,0 97.97,0 7.688,-40.09 c 13,-69.32 -41.29,-126.24 -83.69,-87.87 -20.979,18.986 -22.962,18.986 -43.938,0 -9.936,-8.993 -20.505,-12.759 -30.719,-12.344"
     style="fill:#ffffff;fill-rule:evenodd"
     id="path311989" />
</svg>
