<?xml version="1.0" encoding="UTF-8" standalone="no"?>
<svg
   xmlns:dc="http://purl.org/dc/elements/1.1/"
   xmlns:cc="http://creativecommons.org/ns#"
   xmlns:rdf="http://www.w3.org/1999/02/22-rdf-syntax-ns#"
   xmlns:svg="http://www.w3.org/2000/svg"
   xmlns="http://www.w3.org/2000/svg"
   xmlns:sodipodi="http://sodipodi.sourceforge.net/DTD/sodipodi-0.dtd"
   xmlns:inkscape="http://www.inkscape.org/namespaces/inkscape"
   viewBox="0 0 512 512"
   id="svg2"
   version="1.1"
   inkscape:version="0.91+devel r13804 custom"
   sodipodi:docname="variety.svg">
  <metadata
     id="metadata472">
    <rdf:RDF>
      <cc:Work
         rdf:about="">
        <dc:format>image/svg+xml</dc:format>
        <dc:type
           rdf:resource="http://purl.org/dc/dcmitype/StillImage" />
        <dc:title></dc:title>
      </cc:Work>
    </rdf:RDF>
  </metadata>
  <sodipodi:namedview
     pagecolor="#ffffff"
     bordercolor="#666666"
     borderopacity="1"
     objecttolerance="10"
     gridtolerance="10"
     guidetolerance="10"
     inkscape:pageopacity="0"
     inkscape:pageshadow="2"
     inkscape:window-width="1366"
     inkscape:window-height="709"
     id="namedview470"
     showgrid="false"
     inkscape:zoom="0.4609375"
     inkscape:cx="683.38983"
     inkscape:cy="174.88241"
     inkscape:window-x="-2"
     inkscape:window-y="-3"
     inkscape:window-maximized="1"
     inkscape:current-layer="svg2" />
  <defs
     id="defs4" />
  <path
     inkscape:connector-curvature="0"
     d="M 26,0 C 11.603,0 0,11.603 0,26 l 0,460 c 0,14.397 11.603,26 26,26 l 460,0 c 14.397,0 26,-11.603 26,-26 L 512,26 C 512,11.603 500.397,0 486,0 L 26,0"
     style="fill:#666666"
     id="path326425" />
  <g
     line-height="125%"
     style="line-height:125%;font-family:'Gentium Book Basic';letter-spacing:0;word-spacing:0"
     id="g326469">
  </g>
  <path
     style="color:#000000;opacity:0.25"
     d="M 112.43945 59.339844 C 73.209456 59.339844 41 91.549294 41 130.7793 L 41 287.36914 L 112.43945 358.81055 L 112.42969 358.81055 L 41 287.38086 C 41 306.99486 49.049766 324.85455 62.009766 337.81055 L 153.69922 429.5 L 148.7207 429.5 C 142.3117 429.5 137.15625 434.68475 137.15625 441.09375 L 137.16016 441.09766 C 137.16439 447.50036 142.31214 452.64811 148.71484 452.65234 L 148.7207 452.66016 L 208.06055 512 L 486 512 C 500.397 512 512 500.397 512 486 L 512 142.35938 L 449.99023 80.349609 C 437.03423 67.393609 419.17555 59.339844 399.56055 59.339844 L 112.43945 59.339844 z "
     id="path326523" />
  <path
     inkscape:connector-curvature="0"
     d="M 112.44,59.34 C 73.21,59.34 41,91.55 41,130.78 l 0,156.59 c 0,39.23 32.21,71.44 71.44,71.44 l 287.13,0 c 39.23,0 71.44,-32.21 71.44,-71.44 l 0,-156.59 c 0,-39.23 -32.21,-71.44 -71.44,-71.44 l -287.12,0 m 5.688,34.969 275.75,0 c 22.456,0 40.41,17.801 40.41,40.22 l 0,149.06 c 0,22.418 -17.987,40.41 -40.41,40.41 l -275.75,0 c -22.417,0 -40.37,-17.988 -40.37,-40.41 l 0,-149.06 c 0,-22.418 17.921,-40.22 40.38,-40.22 m 92.81,28.625 c -17.525,0.888 -31.469,15.407 -31.469,33.16 0,18.323 14.834,33.19 33.16,33.19 18.323,0 33.19,-14.864 33.19,-33.19 0,-18.323 -14.864,-33.16 -33.19,-33.16 -0.573,0 -1.122,-0.029 -1.688,0 m 94.91,68.41 c -5.412,0.001 -11.309,0.864 -17.844,2.688 -18.572,7.609 -56.33,65.37 -71.56,51.719 -47.27,-63.33 -78.899,-0.872 -87.53,49.5 l 254.19,0 c -23.367,-47.546 -33.17,-103.92 -77.25,-103.91 m 40.03,136.97 c 7.454,0 13.469,5.982 13.469,13.438 0,7.454 -6.01,13.531 -13.469,13.531 -7.454,0 -13.5,-6.077 -13.5,-13.531 0,-7.454 6.05,-13.438 13.5,-13.438 m -112.69,49.38 c -8.876,0 -16.03,7.155 -16.03,16.03 l 0,34.719 c 0,0.363 0.039,0.706 0.063,1.063 l -68.5,0 c -6.409,0 -11.563,5.185 -11.563,11.594 0,6.409 5.154,11.563 11.563,11.563 l 208.25,0 c 6.409,0 11.563,-5.154 11.563,-11.563 0,-6.409 -5.154,-11.594 -11.563,-11.594 l -67.31,0 c 0.024,-0.357 0.063,-0.7 0.063,-1.063 l 0,-34.719 c 0,-8.876 -7.155,-16.03 -16.03,-16.03 l -40.5,0"
     style="color:#000000;fill:#ffffff"
     id="path326633" />
</svg>
