<?xml version="1.0" encoding="UTF-8" standalone="no"?>
<svg
   xmlns:dc="http://purl.org/dc/elements/1.1/"
   xmlns:cc="http://creativecommons.org/ns#"
   xmlns:rdf="http://www.w3.org/1999/02/22-rdf-syntax-ns#"
   xmlns:svg="http://www.w3.org/2000/svg"
   xmlns="http://www.w3.org/2000/svg"
   xmlns:sodipodi="http://sodipodi.sourceforge.net/DTD/sodipodi-0.dtd"
   xmlns:inkscape="http://www.inkscape.org/namespaces/inkscape"
   viewBox="0 0 512 512"
   id="svg2"
   version="1.1"
   inkscape:version="0.91+devel r13804 custom"
   sodipodi:docname="Veromix.svg">
  <metadata
     id="metadata472">
    <rdf:RDF>
      <cc:Work
         rdf:about="">
        <dc:format>image/svg+xml</dc:format>
        <dc:type
           rdf:resource="http://purl.org/dc/dcmitype/StillImage" />
        <dc:title></dc:title>
      </cc:Work>
    </rdf:RDF>
  </metadata>
  <sodipodi:namedview
     pagecolor="#ffffff"
     bordercolor="#666666"
     borderopacity="1"
     objecttolerance="10"
     gridtolerance="10"
     guidetolerance="10"
     inkscape:pageopacity="0"
     inkscape:pageshadow="2"
     inkscape:window-width="1366"
     inkscape:window-height="709"
     id="namedview470"
     showgrid="false"
     inkscape:zoom="0.4609375"
     inkscape:cx="683.38983"
     inkscape:cy="174.88241"
     inkscape:window-x="-2"
     inkscape:window-y="-3"
     inkscape:window-maximized="1"
     inkscape:current-layer="svg2" />
  <defs
     id="defs4" />
  <path
     inkscape:connector-curvature="0"
     d="M 26,0 C 11.603,0 0,11.603 0,26 l 0,460 c 0,14.397 11.603,26 26,26 l 460,0 c 14.397,0 26,-11.603 26,-26 L 512,26 C 512,11.603 500.397,0 486,0 L 26,0"
     style="fill:#666666"
     id="path327158" />
  <g
     line-height="125%"
     style="line-height:125%;font-family:'Gentium Book Basic';letter-spacing:0;word-spacing:0"
     id="g327202">
  </g>
  <path
     d="M 371.36719 53.480469 C 358.33809 53.481531 347.7793 64.038969 347.7793 77.070312 L 347.7793 164.96484 L 312.02148 129.20703 C 312.0635 129.24906 312.10283 129.2936 312.14453 129.33594 L 312.01953 129.21094 C 307.75053 124.94194 301.85389 122.30273 295.33789 122.30273 L 318.92969 145.89453 L 318.92969 145.90039 L 295.33008 122.30078 C 282.30008 122.30078 271.73828 132.85862 271.73828 145.89062 L 271.74023 145.89258 L 271.74023 210.19531 L 157.3125 95.767578 C 157.34051 95.795595 157.36666 95.825359 157.39453 95.853516 L 157.31055 95.769531 C 153.04283 91.501817 147.14648 88.862918 140.63281 88.861328 L 140.63086 88.859375 C 127.60151 88.859375 117.04012 99.420077 117.03906 112.45117 L 117.03906 214.07812 L 81.320312 178.35938 C 77.038314 174.07737 71.119797 171.42969 64.591797 171.42969 L 64.589844 171.42969 C 51.559844 171.42969 40.998047 181.98948 40.998047 195.02148 L 88.230469 242.25391 L 88.230469 242.25977 L 41 195.0293 L 41 289.43945 C 41 295.95545 43.640203 301.85405 47.908203 306.12305 L 117.03906 375.25391 L 117.03906 387.74023 L 140.63867 411.33984 L 140.63086 411.33984 L 117.03906 387.75 C 117.03906 393.77 119.28819 399.25392 122.99219 403.41992 L 122.99023 403.41992 C 123.58768 404.09203 124.2267 404.72622 124.89648 405.32617 L 124.91211 405.33984 L 231.57031 512 L 486 512 C 500.397 512 512 500.397 512 486 L 512 184.33984 L 388.05078 60.390625 C 383.78121 56.121054 377.88136 53.480999 371.36914 53.480469 L 371.36719 53.480469 z "
     id="path327256"
     style="opacity:0.25" />
  <path
     inkscape:connector-curvature="0"
     d="m 371.37,53.48 c -13.03,0 -23.591,10.559 -23.591,23.591 l 0,357.86 c 0,13.03 10.559,23.591 23.591,23.591 13.03,0 23.591,-10.559 23.591,-23.591 l 0,-357.86 c 0,-13.03 -10.567,-23.591 -23.591,-23.591 M 140.63,88.867 c -13.03,0 -23.591,10.559 -23.591,23.591 l 0,275.29 c 0,13.03 10.559,23.591 23.591,23.591 13.03,0 23.591,-10.559 23.591,-23.591 l 0,-275.29 c 0,-13.03 -10.559,-23.591 -23.591,-23.591 m 154.71,33.436 c -13.03,0 -23.591,10.559 -23.591,23.591 l 0,227.43 c 0,13.03 10.559,23.591 23.591,23.591 13.03,0 23.591,-10.559 23.591,-23.591 l 0,-227.43 c 0,-13.03 -10.559,-23.591 -23.591,-23.591 M 64.6,171.433 c -13.03,0 -23.591,10.559 -23.591,23.591 l 0,94.41 c 0,13.03 10.559,23.591 23.591,23.591 13.03,0 23.637,-10.559 23.637,-23.591 l 0,-94.41 c 0,-13.03 -10.604,-23.591 -23.637,-23.591 m 152.07,0 c -13.03,0 -23.591,10.559 -23.591,23.591 l 0,152.07 c 0,13.03 10.559,23.591 23.591,23.591 13.03,0 23.591,-10.559 23.591,-23.591 l 0,-152.07 c 0,-13.03 -10.559,-23.591 -23.591,-23.591 m 230.74,47.23 c -13.03,0 -23.637,10.559 -23.637,23.591 l 0,131.07 c 0,13.03 10.604,23.591 23.637,23.591 13.03,0 23.591,-10.559 23.591,-23.591 l 0,-131.07 c 0,-13.03 -10.559,-23.591 -23.591,-23.591"
     style="fill:#ffffff"
     id="path327352" />
</svg>
