<?xml version="1.0" encoding="UTF-8" standalone="no"?>
<svg
   xmlns:dc="http://purl.org/dc/elements/1.1/"
   xmlns:cc="http://creativecommons.org/ns#"
   xmlns:rdf="http://www.w3.org/1999/02/22-rdf-syntax-ns#"
   xmlns:svg="http://www.w3.org/2000/svg"
   xmlns="http://www.w3.org/2000/svg"
   xmlns:sodipodi="http://sodipodi.sourceforge.net/DTD/sodipodi-0.dtd"
   xmlns:inkscape="http://www.inkscape.org/namespaces/inkscape"
   viewBox="0 0 512 512"
   id="svg2"
   version="1.1"
   inkscape:version="0.91+devel r13804 custom"
   sodipodi:docname="vmware.svg">
  <metadata
     id="metadata472">
    <rdf:RDF>
      <cc:Work
         rdf:about="">
        <dc:format>image/svg+xml</dc:format>
        <dc:type
           rdf:resource="http://purl.org/dc/dcmitype/StillImage" />
        <dc:title></dc:title>
      </cc:Work>
    </rdf:RDF>
  </metadata>
  <sodipodi:namedview
     pagecolor="#ffffff"
     bordercolor="#666666"
     borderopacity="1"
     objecttolerance="10"
     gridtolerance="10"
     guidetolerance="10"
     inkscape:pageopacity="0"
     inkscape:pageshadow="2"
     inkscape:window-width="1366"
     inkscape:window-height="709"
     id="namedview470"
     showgrid="false"
     inkscape:zoom="0.4609375"
     inkscape:cx="683.38983"
     inkscape:cy="174.88241"
     inkscape:window-x="-2"
     inkscape:window-y="-3"
     inkscape:window-maximized="1"
     inkscape:current-layer="svg2" />
  <defs
     id="defs4">
    <clipPath
       id="0-0">
      <path
         id="path349951"
         d="m26 0c-14.397 0-26 11.603-26 26v460c0 14.397 11.603 26 26 26h460c14.397 0 26-11.603 26-26v-460c0-14.397-11.603-26-26-26h-460" />
    </clipPath>
    <clipPath
       id="0-5">
      <path
         id="path350330"
         d="m26 0c-14.397 0-26 11.603-26 26v460c0 14.397 11.603 26 26 26h460c14.397 0 26-11.603 26-26v-460c0-14.397-11.603-26-26-26h-460" />
    </clipPath>
  </defs>
  <path
     inkscape:connector-curvature="0"
     d="M 26,0 C 11.603,0 0,11.603 0,26 l 0,460 c 0,14.397 11.603,26 26,26 l 460,0 c 14.397,0 26,-11.603 26,-26 L 512,26 C 512,11.603 500.397,0 486,0 L 26,0"
     style="fill:#666666"
     id="path350332" />
  <g
     line-height="125%"
     style="line-height:125%;font-family:'Gentium Book Basic';letter-spacing:0;word-spacing:0"
     id="g350376">
  </g>
  <g
     line-height="125%"
     style="line-height:125%;font-family:'Gentium Book Basic';letter-spacing:0;word-spacing:0"
     id="g350424">
  </g>
  <path
     style="color:#000000;fill-rule:evenodd;opacity:0.25"
     d="M 85.720703 41 C 60.953703 41 40.998047 60.953703 40.998047 85.720703 L 41 85.722656 L 41 294.48047 C 41 306.85447 45.981781 318.01584 54.050781 326.08984 L 185.51562 457.55664 C 185.64196 457.68615 185.76273 457.82126 185.89062 457.94922 L 239.94141 512 L 486 512 C 500.397 512 512 500.397 512 486 L 512 239.95898 L 326.08984 54.050781 C 318.01984 45.980781 306.85447 41 294.48047 41 L 339.1582 85.679688 C 339.15822 85.693442 339.16016 85.706946 339.16016 85.720703 L 339.16016 172.83984 L 471 304.67969 L 471 318.73242 L 266.23633 113.96875 C 261.71033 109.44375 255.45153 106.65039 248.51953 106.65039 L 232.63086 106.65039 L 151.37109 106.65039 L 85.720703 41 z "
     id="path350478" />
  <path
     inkscape:connector-curvature="0"
     d="M 85.72,41 C 60.953,41 40.999,60.954 40.999,85.721 l 0,208.76 c 0,24.767 19.954,44.682 44.721,44.682 l 87.12,0 0,87.15 c 0,24.767 19.915,44.682 44.682,44.682 l 208.76,0 c 24.767,0 44.721,-19.915 44.721,-44.682 l 0,-208.76 c 0,-24.767 -19.954,-44.721 -44.721,-44.721 l -87.12,0 0,-87.12 c 0,-24.767 -19.915,-44.721 -44.682,-44.721 z m 20.926,65.65 24.996,0 100.99,0 15.889,0 c 13.863,0 25.03,11.171 25.03,25.03 l 0,41.16 -22.06,0 c -20.652,0 -33.13,3.513 -7.525,26.602 l 59.815,59.796 c 38.644,38.644 35.37,24.922 35.37,-18.852 l 39.838,0 c 13.548,0 24.453,10.905 24.453,24.453 l 0,14.532 0,99.63 0,24.453 -24.453,0 -89.17,0 -24.995,0 c -13.548,0 -24.453,-10.905 -24.453,-24.453 l 0,-39.838 24.09,0 c 24.08,0 30.04,-2.801 0.041,-32.799 l -61.37,-61.37 c -28.1,-29.31 -30.31,-11.508 -30.3,2.395 l 0,26.17 -41.19,0 c -13.864,0 -24.996,-11.171 -24.996,-25.03 l 0,-32.979 0,-83.86 z"
     style="color:#000000;fill:#ffffff;fill-rule:evenodd"
     id="path350582" />
</svg>
