<?xml version="1.0" encoding="UTF-8" standalone="no"?>
<svg
   xmlns:dc="http://purl.org/dc/elements/1.1/"
   xmlns:cc="http://creativecommons.org/ns#"
   xmlns:rdf="http://www.w3.org/1999/02/22-rdf-syntax-ns#"
   xmlns:svg="http://www.w3.org/2000/svg"
   xmlns="http://www.w3.org/2000/svg"
   xmlns:sodipodi="http://sodipodi.sourceforge.net/DTD/sodipodi-0.dtd"
   xmlns:inkscape="http://www.inkscape.org/namespaces/inkscape"
   viewBox="0 0 512 512"
   id="svg2"
   version="1.1"
   inkscape:version="0.91+devel r13804 custom"
   sodipodi:docname="wine-winetricks.svg">
  <metadata
     id="metadata472">
    <rdf:RDF>
      <cc:Work
         rdf:about="">
        <dc:format>image/svg+xml</dc:format>
        <dc:type
           rdf:resource="http://purl.org/dc/dcmitype/StillImage" />
        <dc:title></dc:title>
      </cc:Work>
    </rdf:RDF>
  </metadata>
  <sodipodi:namedview
     pagecolor="#ffffff"
     bordercolor="#666666"
     borderopacity="1"
     objecttolerance="10"
     gridtolerance="10"
     guidetolerance="10"
     inkscape:pageopacity="0"
     inkscape:pageshadow="2"
     inkscape:window-width="1366"
     inkscape:window-height="709"
     id="namedview470"
     showgrid="false"
     inkscape:zoom="0.4609375"
     inkscape:cx="683.38983"
     inkscape:cy="174.88241"
     inkscape:window-x="-2"
     inkscape:window-y="-3"
     inkscape:window-maximized="1"
     inkscape:current-layer="svg2" />
  <defs
     id="defs4" />
  <path
     inkscape:connector-curvature="0"
     d="M 26,0 C 11.603,0 0,11.603 0,26 l 0,460 c 0,14.397 11.603,26 26,26 l 460,0 c 14.397,0 26,-11.603 26,-26 L 512,26 C 512,11.603 500.397,0 486,0 L 26,0"
     style="fill:#666666"
     id="path369324" />
  <path
     inkscape:connector-curvature="0"
     d="m 256,256 0,256 230,0 c 14.397,0 26,-11.603 26,-26 l 0,-230 -256,0"
     style="fill:#666666"
     id="path369326" />
  <path
     inkscape:connector-curvature="0"
     d="m 0,256 0,230 c 0,14.397 11.603,26 26,26 l 230,0 0,-256 -256,0"
     style="fill:#666666"
     id="path369328" />
  <path
     inkscape:connector-curvature="0"
     d="M 26,0 C 11.603,0 0,11.603 0,26 L 0,256 256,256 256,0 26,0"
     style="fill:#666666"
     id="path369330" />
  <g
     line-height="125%"
     style="line-height:125%;font-family:'Gentium Book Basic';letter-spacing:0;word-spacing:0"
     id="g369374">
  </g>
  <g
     line-height="125%"
     style="line-height:125%;font-family:'Gentium Book Basic';letter-spacing:0;word-spacing:0"
     id="g369422">
  </g>
  <g
     line-height="125%"
     style="line-height:125%;font-family:'Gentium Book Basic';letter-spacing:0;word-spacing:0"
     id="g369470">
  </g>
  <g
     transform="translate(-1653.08,-85.55)"
     line-height="125%"
     style="font-size:208.33000183px;line-height:125%;font-family:'Gentium Book Basic';letter-spacing:0;word-spacing:0"
     id="g369518">
  </g>
  <path
     d="M 255.94922 41.001953 L 396.89258 181.94531 C 396.89207 181.95703 396.89114 181.96875 396.89062 181.98047 L 255.92969 41.019531 C 178.03469 41.019531 114.9707 101.52023 114.9707 176.24023 C 114.9707 212.59023 129.90794 245.58062 154.21094 269.89062 L 163.27344 278.95312 C 167.59428 284.01059 171.80923 290.77442 175.375 298.78906 L 243.76562 367.17969 L 243.75977 367.17969 L 175.36914 298.78906 C 180.41914 310.12506 183.10014 321.64345 183.36914 330.93945 L 183.37891 330.94922 L 183.4082 331.00781 L 183.41016 331.00977 C 184.02216 340.72477 188.18595 349.44086 194.62695 355.88086 L 220.64453 381.89844 L 193.63086 385.08203 L 210.99023 402.44141 L 195.89062 404.2207 L 210.58008 418.91016 L 193.58984 420.91211 L 211.19336 438.51562 L 195.88086 440.32031 L 225.89062 470.33008 L 220.24023 470.93945 L 261.30078 512 L 486 512 C 500.397 512 512 500.397 512 486 L 512 236.83984 L 357.82031 82.660156 C 357.95613 82.796006 358.08742 82.935875 358.22266 83.072266 L 357.82031 82.669922 C 332.13631 56.985922 295.98322 41.001953 255.94922 41.001953 z "
     id="path369542"
     style="opacity:0.25" />
  <path
     inkscape:connector-curvature="0"
     d="m 255.93,41.02 c -77.895,0 -140.96,60.5 -140.96,135.22 0,38.471 16.735,73.19 43.6,97.82 l 0.038,0.114 c 5.879,5.094 11.918,13.719 16.761,24.608 5.05,11.336 7.731,22.854 8,32.15 l 0.038,0.077 c 1.275,20.254 17.994,36.17 38.581,36.17 l 68.29,0 c 21.423,0 38.696,-17.234 38.696,-38.658 l 0,-3.062 c 0.952,-8.153 3.481,-17.467 7.579,-26.678 4.847,-10.893 10.846,-19.517 16.721,-24.608 26.947,-24.649 43.75,-59.42 43.75,-97.95 0,-74.72 -63.19,-135.22 -141.08,-135.22 m -5.05238,35.78773 a 10.753209,10.753209 0 0 1 1.8755,21.396088 c -19.741,2.459002 -36.926,8.479002 -49.835,19.788002 -12.908,11.31 -22.317,28.14 -25.492,55.23 a 10.764147,10.764147 0 1 1 -21.3578,-2.5262 c 3.642,-31.09 15.527,-53.856 32.694,-68.895 17.16,-15.040002 38.838,-22.120002 61.32,-24.918002 a 10.753209,10.753209 0 0 1 0.80378,-0.0765 m 70.04443,293.306242 a 9.639706,9.639706 0 0 0 -0.68897,0.0765 l -126.62,14.922 a 9.639706,9.639706 0 1 0 2.25825,19.13783 l 126.62,-14.922 a 9.639706,9.639706 0 0 0 -1.5693,-19.21438 m 0,35.82602 a 9.775645,9.775645 0 0 0 -0.68897,0.0765 l -126.66,14.922 a 9.775645,9.775645 0 1 0 2.29652,19.40575 l 126.66,-14.922 a 9.775645,9.775645 0 0 0 -1.60758,-19.48231 m -23.92228,37.08912 a 9.785941,9.785941 0 0 0 -0.42103,0.0383 9.775645,9.775645 0 0 0 -0.68896,0.0765 l -77.77,8.382 a 9.778829,9.778829 0 0 0 2.10517,19.44402 l 77.77,-8.382 a 9.792081,9.792081 0 1 0 -0.99517,-19.55886"
     style="fill:#ffffff"
     id="path369598" />
</svg>
