<?xml version="1.0" encoding="UTF-8" standalone="no"?>
<svg
   xmlns:dc="http://purl.org/dc/elements/1.1/"
   xmlns:cc="http://creativecommons.org/ns#"
   xmlns:rdf="http://www.w3.org/1999/02/22-rdf-syntax-ns#"
   xmlns:svg="http://www.w3.org/2000/svg"
   xmlns="http://www.w3.org/2000/svg"
   xmlns:sodipodi="http://sodipodi.sourceforge.net/DTD/sodipodi-0.dtd"
   xmlns:inkscape="http://www.inkscape.org/namespaces/inkscape"
   viewBox="0 0 512 512"
   id="svg2"
   version="1.1"
   inkscape:version="0.91+devel r13804 custom"
   sodipodi:docname="wordpress.svg">
  <metadata
     id="metadata472">
    <rdf:RDF>
      <cc:Work
         rdf:about="">
        <dc:format>image/svg+xml</dc:format>
        <dc:type
           rdf:resource="http://purl.org/dc/dcmitype/StillImage" />
        <dc:title></dc:title>
      </cc:Work>
    </rdf:RDF>
  </metadata>
  <sodipodi:namedview
     pagecolor="#ffffff"
     bordercolor="#666666"
     borderopacity="1"
     objecttolerance="10"
     gridtolerance="10"
     guidetolerance="10"
     inkscape:pageopacity="0"
     inkscape:pageshadow="2"
     inkscape:window-width="1366"
     inkscape:window-height="709"
     id="namedview470"
     showgrid="false"
     inkscape:zoom="0.4609375"
     inkscape:cx="683.38983"
     inkscape:cy="174.88241"
     inkscape:window-x="-2"
     inkscape:window-y="-3"
     inkscape:window-maximized="1"
     inkscape:current-layer="svg2" />
  <defs
     id="defs4" />
  <path
     inkscape:connector-curvature="0"
     d="M 26,0 C 11.603,0 0,11.603 0,26 l 0,460 c 0,14.397 11.603,26 26,26 l 460,0 c 14.397,0 26,-11.603 26,-26 L 512,26 C 512,11.603 500.397,0 486,0 L 26,0"
     style="fill:#666666"
     id="path377474" />
  <path
     d="M 255.99023 41 C 137.45023 41 41 137.45 41 256 C 41 315.28 65.109064 369.03094 104.03906 407.96094 L 208.07812 512 L 486 512 C 500.397 512 512 500.397 512 486 L 512 208.08984 L 407.96094 104.05078 C 369.02594 65.115782 315.27023 41 255.99023 41 z "
     id="path377524"
     style="opacity:0.25" />
  <path
     inkscape:connector-curvature="0"
     d="m 71.57,256.02 c 0,72.992 42.41,136.09 103.95,165.98 L 87.543,180.96 c -10.239,22.938 -15.964,48.31 -15.964,75.06 m 308.95,-9.306 c 0,-22.803 -8.197,-38.584 -15.204,-50.867 -9.359,-15.191 -18.12,-28.04 -18.12,-43.26 0,-16.938 12.849,-32.727 30.986,-32.727 0.806,0 1.572,0.101 2.378,0.141 -32.815,-30.06 -76.51,-48.4 -124.55,-48.4 -64.44,0 -121.11,33.04 -154.11,83.12 4.34,0.135 8.411,0.222 11.892,0.222 19.279,0 49.14,-2.358 49.14,-2.358 9.937,-0.578 11.126,14.04 1.182,15.218 0,0 -9.991,1.163 -21.12,1.753 l 67.17,199.76 40.36,-121.05 -28.723,-78.72 c -9.937,-0.592 -19.344,-1.753 -19.344,-1.753 -9.95,-0.598 -8.789,-15.796 1.169,-15.218 0,0 30.449,2.358 48.569,2.358 19.292,0 49.15,-2.358 49.15,-2.358 9.944,-0.578 11.12,14.04 1.182,15.218 0,0 -10,1.163 -21.1,1.753 l 66.65,198.26 18.403,-61.46 c 9.333,-23.979 14.04,-43.834 14.04,-59.64 m -121.27,25.418 -55.35,160.81 c 16.529,4.871 34,7.512 52.1,7.512 21.479,0 42.08,-3.716 61.25,-10.447 -0.49,-0.786 -0.947,-1.619 -1.311,-2.553 l -56.696,-155.33 m 158.61,-104.6 c 0.779,5.879 1.243,12.175 1.243,18.967 0,18.718 -3.5,39.755 -14.04,66.05 l -56.33,162.87 c 54.845,-31.974 91.71,-91.38 91.71,-159.42 0,-32.07 -8.203,-62.2 -22.588,-88.48 m -376.85,88.49 c 0,118.56 96.45,215 214.99,215 118.55,0 215.01,-96.44 215.01,-215 0,-118.55 -96.46,-215 -215.01,-215 -118.54,0 -214.99,96.45 -214.99,215 m 9.863,0 c 0,-113.11 92.03,-205.12 205.13,-205.12 113.12,0 205.15,92.01 205.15,205.12 0,113.11 -92.03,205.14 -205.15,205.14 -113.11,0 -205.13,-92.03 -205.13,-205.14"
     style="fill:#ffffff"
     id="path377626" />
</svg>
