<?xml version="1.0" encoding="UTF-8" standalone="no"?>
<svg
   xmlns:dc="http://purl.org/dc/elements/1.1/"
   xmlns:cc="http://creativecommons.org/ns#"
   xmlns:rdf="http://www.w3.org/1999/02/22-rdf-syntax-ns#"
   xmlns:svg="http://www.w3.org/2000/svg"
   xmlns="http://www.w3.org/2000/svg"
   xmlns:sodipodi="http://sodipodi.sourceforge.net/DTD/sodipodi-0.dtd"
   xmlns:inkscape="http://www.inkscape.org/namespaces/inkscape"
   viewBox="0 0 512 512"
   id="svg2"
   version="1.1"
   inkscape:version="0.91+devel r13804 custom"
   sodipodi:docname="wps-office-etmain.svg">
  <metadata
     id="metadata472">
    <rdf:RDF>
      <cc:Work
         rdf:about="">
        <dc:format>image/svg+xml</dc:format>
        <dc:type
           rdf:resource="http://purl.org/dc/dcmitype/StillImage" />
        <dc:title></dc:title>
      </cc:Work>
    </rdf:RDF>
  </metadata>
  <sodipodi:namedview
     pagecolor="#ffffff"
     bordercolor="#666666"
     borderopacity="1"
     objecttolerance="10"
     gridtolerance="10"
     guidetolerance="10"
     inkscape:pageopacity="0"
     inkscape:pageshadow="2"
     inkscape:window-width="1366"
     inkscape:window-height="709"
     id="namedview470"
     showgrid="false"
     inkscape:zoom="0.4609375"
     inkscape:cx="683.38983"
     inkscape:cy="174.88241"
     inkscape:window-x="-2"
     inkscape:window-y="-3"
     inkscape:window-maximized="1"
     inkscape:current-layer="svg2" />
  <defs
     id="defs4" />
  <path
     inkscape:connector-curvature="0"
     d="M 26,0 C 11.603,0 0,11.603 0,26 l 0,460 c 0,14.397 11.603,26 26,26 l 460,0 c 14.397,0 26,-11.603 26,-26 L 512,26 C 512,11.603 500.397,0 486,0 L 26,0"
     style="fill:#666666"
     id="path379932" />
  <path
     style="fill-rule:evenodd;opacity:0.25"
     d="M 59.900391 41 L 59.90625 41.005859 L 59.90625 139.7207 L 59.9375 139.75195 L 59.9375 305.2793 L 126.9375 372.2793 L 59.910156 372.2793 L 158.63086 471 L 158.62695 471 L 59.90625 372.2793 L 59.90625 471 L 100.90625 512 L 486 512 C 500.397 512 512 500.397 512 486 L 512 100.91016 L 452.08984 41 L 59.90625 41 L 59.900391 41 z "
     id="path379988" />
  <path
     inkscape:connector-curvature="0"
     d="m 59.906,41 0,98.72 0.031,0 0,165.56 98.72,0 194.72,0 0,67 -293.47,0 0,98.72 392.19,0 0,-98.72 0,-165.75 -98.72,0 0,0.031 -194.72,0 0,-66.844 293.44,0 0,-98.72 -392.19,0"
     style="fill:#ffffff;fill-rule:evenodd"
     id="path380024" />
</svg>
