<?xml version="1.0" encoding="UTF-8" standalone="no"?>
<svg
   xmlns:dc="http://purl.org/dc/elements/1.1/"
   xmlns:cc="http://creativecommons.org/ns#"
   xmlns:rdf="http://www.w3.org/1999/02/22-rdf-syntax-ns#"
   xmlns:svg="http://www.w3.org/2000/svg"
   xmlns="http://www.w3.org/2000/svg"
   xmlns:sodipodi="http://sodipodi.sourceforge.net/DTD/sodipodi-0.dtd"
   xmlns:inkscape="http://www.inkscape.org/namespaces/inkscape"
   viewBox="0 0 512 512"
   id="svg2"
   version="1.1"
   inkscape:version="0.91+devel r13804 custom"
   sodipodi:docname="xchat.svg">
  <metadata
     id="metadata472">
    <rdf:RDF>
      <cc:Work
         rdf:about="">
        <dc:format>image/svg+xml</dc:format>
        <dc:type
           rdf:resource="http://purl.org/dc/dcmitype/StillImage" />
        <dc:title></dc:title>
      </cc:Work>
    </rdf:RDF>
  </metadata>
  <sodipodi:namedview
     pagecolor="#ffffff"
     bordercolor="#666666"
     borderopacity="1"
     objecttolerance="10"
     gridtolerance="10"
     guidetolerance="10"
     inkscape:pageopacity="0"
     inkscape:pageshadow="2"
     inkscape:window-width="1366"
     inkscape:window-height="709"
     id="namedview470"
     showgrid="false"
     inkscape:zoom="0.4609375"
     inkscape:cx="683.38983"
     inkscape:cy="174.88241"
     inkscape:window-x="-2"
     inkscape:window-y="-3"
     inkscape:window-maximized="1"
     inkscape:current-layer="svg2" />
  <defs
     id="defs4" />
  <path
     inkscape:connector-curvature="0"
     d="M 26,0 C 11.603,0 0,11.603 0,26 l 0,460 c 0,14.397 11.603,26 26,26 l 460,0 c 14.397,0 26,-11.603 26,-26 L 512,26 C 512,11.603 500.397,0 486,0 L 26,0"
     style="fill:#666666"
     id="path385916" />
  <path
     d="M 255.99023 60.349609 C 137.25924 60.35891 41 144.92574 41 249.25 C 41 296.857 61.160781 340.17078 94.300781 373.30078 L 128.42383 407.42383 C 126.70965 412.9823 124.56983 418.74653 121.62109 424.66797 L 142.33008 445.37695 C 142.32886 445.37728 142.32739 445.37663 142.32617 445.37695 L 121.61914 424.66992 C 108.40422 451.20893 95.259291 451.64112 94.824219 451.64844 C 94.822048 451.64844 94.75 451.65039 94.75 451.65039 L 94.755859 451.65625 L 94.744141 451.65625 L 155.08789 512 L 486 512 C 500.397 512 512 500.397 512 486 L 512 219.04883 L 417.57031 124.61914 C 378.17431 85.223137 320.40189 60.354653 256.00977 60.349609 L 255.99023 60.349609 z "
     id="path385966"
     style="opacity:0.25" />
  <path
     inkscape:connector-curvature="0"
     d="M 256.01,60.35 C 137.27,60.35 41,144.92 41,249.25 c 0,62.904 35.21,118.31 89.02,152.65 -1.967,7.23 -4.46,14.86 -8.398,22.768 -13.438,26.987 -26.875,26.987 -26.875,26.987 0,0 40.31,0 67.19,-13.493 5.678,-2.852 10.637,-7.499 15.12,-13.07 24.479,8.511 51.02,13.07 78.941,13.07 118.74,0 215.01,-84.57 215.01,-188.9 0,-104.33 -96.26,-188.9 -215.01,-188.9 m -73.49,67.47 73.49,74.22 73.49,-74.22 47.45,47.648 -73.49,73.79 73.49,74.22 -47.45,47.23 -73.49,-73.79 -73.49,73.79 -47.45,-47.23 73.49,-74.22 -73.49,-73.79 47.45,-47.648"
     style="fill:#ffffff"
     id="path386012" />
</svg>
