<?xml version="1.0" encoding="UTF-8" standalone="no"?>
<svg
   xmlns:dc="http://purl.org/dc/elements/1.1/"
   xmlns:cc="http://creativecommons.org/ns#"
   xmlns:rdf="http://www.w3.org/1999/02/22-rdf-syntax-ns#"
   xmlns:svg="http://www.w3.org/2000/svg"
   xmlns="http://www.w3.org/2000/svg"
   xmlns:xlink="http://www.w3.org/1999/xlink"
   xmlns:sodipodi="http://sodipodi.sourceforge.net/DTD/sodipodi-0.dtd"
   xmlns:inkscape="http://www.inkscape.org/namespaces/inkscape"
   viewBox="0 0 512 512"
   id="svg2"
   version="1.1"
   inkscape:version="0.91+devel r13804 custom"
   sodipodi:docname="yahoo.svg">
  <metadata
     id="metadata1355">
    <rdf:RDF>
      <cc:Work
         rdf:about="">
        <dc:format>image/svg+xml</dc:format>
        <dc:type
           rdf:resource="http://purl.org/dc/dcmitype/StillImage" />
        <dc:title></dc:title>
      </cc:Work>
    </rdf:RDF>
  </metadata>
  <sodipodi:namedview
     pagecolor="#ffffff"
     bordercolor="#666666"
     borderopacity="1"
     objecttolerance="10"
     gridtolerance="10"
     guidetolerance="10"
     inkscape:pageopacity="0"
     inkscape:pageshadow="2"
     inkscape:window-width="1366"
     inkscape:window-height="709"
     id="namedview1353"
     showgrid="false"
     inkscape:zoom="0.4609375"
     inkscape:cx="349.28814"
     inkscape:cy="148.61017"
     inkscape:window-x="-2"
     inkscape:window-y="-3"
     inkscape:window-maximized="1"
     inkscape:current-layer="svg2" />
  <defs
     id="defs4">
    <radialGradient
       cx="432.68"
       cy="476.11"
       r="135.89"
       id="1"
       xlink:href="#2"
       gradientUnits="userSpaceOnUse"
       gradientTransform="matrix(2.02571,0,0,1.91372,-620.4855,-655.175)" />
    <radialGradient
       cx="432.68"
       cy="476.11"
       r="135.89"
       id="2"
       gradientUnits="userSpaceOnUse"
       gradientTransform="matrix(1.54384 0 0 1.45849-411.99-438.41)">
      <stop
         id="stop15147"
         style="stop-color:#fff;stop-opacity:.335" />
      <stop
         id="stop15149"
         style="stop-color:#fff;stop-opacity:0"
         offset="1" />
    </radialGradient>
  </defs>
  <path
     inkscape:connector-curvature="0"
     d="M 26,0 C 11.603,0 0,11.603 0,26 l 0,460 c 0,14.397 11.603,26 26,26 l 460,0 c 14.397,0 26,-11.603 26,-26 L 512,26 C 512,11.603 500.397,0 486,0 L 26,0"
     style="fill:#666666"
     id="path21278" />
  <path
     style="color:#000000;opacity:0.25"
     d="M 399.08594 131.05859 L 399.08984 131.0625 L 399.53906 250.10938 L 334.75977 185.33008 C 305.00777 155.57808 257.56914 136.33398 204.11914 136.33398 L 204.125 136.33984 C 114.0277 136.34222 41 191.03301 41 258.56055 C 41 286.06655 53.120406 311.46992 73.566406 331.91992 L 253.64648 512 L 335.18164 512 L 330.33594 507.1543 C 330.3369 507.15182 330.33693 507.14896 330.33789 507.14648 L 335.19141 512 L 486 512 C 500.397 512 512 500.397 512 486 L 512 181.78906 L 471 140.78906 L 399.08594 131.05859 z "
     id="path21328" />
  <path
     inkscape:connector-curvature="0"
     d="m 399.09,131.06 0.66,175.17 29.854,3.959 41.4,-169.39 -71.914,-9.732 m -194.96,5.278 c -90.1,0 -163.13,54.691 -163.13,122.22 0,67.53 73.03,122.39 163.13,122.39 90.1,0 163.13,-54.856 163.13,-122.39 0,-67.53 -73.03,-122.22 -163.13,-122.22 m -102.43,64.33 96.33,1.32 -1.32,7.092 -29.689,2.309 42.39,57.07 c 0,0 38.763,-31.03 39.09,-35.957 -2.462,-1.969 -25.07,-3.794 -25.07,-3.794 l -2.144,-10.06 82.64,0.495 -5.608,9.731 -24.25,4.124 c 0,0 -35.728,25.02 -55.75,47.17 -1.477,14.442 0.495,39.26 0.495,39.26 l 30.514,0.825 c 0,0 -0.401,8.152 -0.165,9.402 -0.49,-1.111 -94.51,0.825 -94.51,0.825 l 2.144,-10.06 c 0,0 25.09,1.127 29.19,-4.288 l -0.66,-34.802 c -6.4,-12.473 -48.37,-61.06 -55.915,-67.63 l -27.545,-3.629 -0.165,-9.402 m 291.61,124.86 -4.783,34.638 36.452,5.938 5.443,-36.452 -37.11,-4.124"
     style="color:#000000;fill:#ffffff"
     id="path21402" />
</svg>
