<?xml version="1.0" encoding="UTF-8" standalone="no"?>
<svg
   xmlns:dc="http://purl.org/dc/elements/1.1/"
   xmlns:cc="http://creativecommons.org/ns#"
   xmlns:rdf="http://www.w3.org/1999/02/22-rdf-syntax-ns#"
   xmlns:svg="http://www.w3.org/2000/svg"
   xmlns="http://www.w3.org/2000/svg"
   xmlns:sodipodi="http://sodipodi.sourceforge.net/DTD/sodipodi-0.dtd"
   xmlns:inkscape="http://www.inkscape.org/namespaces/inkscape"
   viewBox="0 0 512 512"
   id="svg2"
   version="1.1"
   inkscape:version="0.91 r13725"
   sodipodi:docname="yakuake.svg">
  <metadata
     id="metadata1355">
    <rdf:RDF>
      <cc:Work
         rdf:about="">
        <dc:format>image/svg+xml</dc:format>
        <dc:type
           rdf:resource="http://purl.org/dc/dcmitype/StillImage" />
        <dc:title />
      </cc:Work>
    </rdf:RDF>
  </metadata>
  <sodipodi:namedview
     pagecolor="#ffffff"
     bordercolor="#666666"
     borderopacity="1"
     objecttolerance="10"
     gridtolerance="10"
     guidetolerance="10"
     inkscape:pageopacity="0"
     inkscape:pageshadow="2"
     inkscape:window-width="1366"
     inkscape:window-height="709"
     id="namedview1353"
     showgrid="false"
     inkscape:zoom="0.4609375"
     inkscape:cx="249.66313"
     inkscape:cy="263.32689"
     inkscape:window-x="-2"
     inkscape:window-y="-3"
     inkscape:window-maximized="1"
     inkscape:current-layer="svg2" />
  <defs
     id="defs4" />
  <path
     inkscape:connector-curvature="0"
     d="m 25.9995,-1e-5 c -14.397,0 -26,11.603 -26,26 l 0,460 c 0,14.397 11.603,26 26,26 l 460,0 c 14.397,0 26,-11.603 26,-26 l 0,-460 c 0,-14.397 -11.603,-26 -26,-26 l -460,0"
     style="fill:#666666"
     id="path21741" />
  <path
     inkscape:connector-curvature="0"
     style="opacity:0.25"
     d="m 129.9281,40.50768 c -24.08764,-0.0324 -46.85453,0.0732 -68.01953,0.48828 l 0.006,0.006 0,363.96875 -20.91406,0 0,20.05859 86.9707,86.97071 358.0293,0 c 14.397,0 26,-11.603 26,-26 l 0,-388.0332 L 455.0298,40.9961 c -58.44,-0.483 -117.25922,0 -194.94922,0 -46.18875,0 -90.00627,-0.43422 -130.15234,-0.48828 z m 320.38477,353.63281 -0.14454,10.83008 -34.70312,0 0,-10.42578 c 11.14572,-0.21858 22.85457,-0.33282 34.84766,-0.4043 z"
     id="path21796" />
  <path
     inkscape:connector-curvature="0"
     style="opacity:0;fill:#000000"
     d="m 109.4281,-29.856582 c -24.087645,-0.0324 -46.854535,0.0732 -68.019535,0.48828 l 0.006,0.006 0,363.968752 -20.91406,0 0,20.05859 86.970695,86.97071 358.0293,0 c 14.397,0 26,-11.603 26,-26 l 0,-388.033202 -56.9707,-56.97071 c -58.44,-0.483 -117.25923,0 -194.94922,0 -46.18875,0 -90.00627,-0.43422 -130.15234,-0.48828 z m 320.38476,353.632812 -0.14454,10.83008 -34.70312,0 0,-10.42578 c 11.14572,-0.21858 22.85457,-0.33282 34.84766,-0.4043 z"
     id="path21796-5" />
  <g
     id="g3354"
     transform="translate(20.500502,70.343888)"
     style="fill:#ffffff">
    <path
       id="0-4"
       d="m 109.42772,-29.85645 c -24.087635,-0.03243 -46.852569,0.0712 -68.017569,0.486329 l 0,356.382811 388.357419,0 4.76172,-356.382811 c -58.44,-0.483 -117.25921,0 -194.94922,0 -46.18875,0 -90.00627,-0.432276 -130.15235,-0.486329 z m 13.59375,81.695308 15.14063,0 0,14.98438 c 14.03479,0.73862 24.97907,3.95296 32.75,9.74219 l 0.002,0.002 c 7.86306,5.78261 13.39261,14.83085 16.60547,27.070312 l 0.13672,0.51953 -20.84766,3.95313 -0.10351,-0.47852 c -1.50274,-7.06292 -4.52583,-12.497102 -9.07031,-16.371092 l -0.002,-0.002 -0.002,0 c -4.43096,-3.84985 -10.9285,-6.21796 -19.46875,-7.09766 l 0,49.779302 c 13.38408,3.15476 22.96548,6.0482 28.67187,8.71093 l 0.002,0 c 5.81565,2.67845 10.42676,5.70997 13.82617,9.10938 3.39438,3.39438 5.98195,7.41071 7.75391,12.0332 1.77535,4.63135 2.65429,10.05101 2.65429,16.25586 0,12.66534 -4.67614,22.9156 -13.97851,30.60352 -9.21466,7.61542 -22.2261,11.82249 -38.92969,12.7207 l 0,18.52344 -15.14063,0 0,-18.51758 C 107.0011,222.63669 94.231885,218.89548 84.800775,212.06933 75.270728,205.17157 69.155184,195.14709 66.474604,182.08886 l -0.09961,-0.48242 20.359381,-4.43164 0.10351,0.49219 c 1.88193,8.95797 5.77223,15.63309 11.66992,20.11328 l 0.002,0.002 c 5.872545,4.40358 14.052925,6.97261 24.511715,7.70704 l 0,-55.61914 c -13.22975,-3.30374 -22.474,-6.27101 -27.666015,-8.94336 l -0.002,0 c -5.13321,-2.68153 -9.32334,-5.75408 -12.5625,-9.22461 l -0.004,-0.004 -0.004,-0.006 c -3.15351,-3.53809 -5.469658,-7.3187 -6.937498,-11.33594 l -0.002,-0.004 -0.002,-0.004 c -1.39199,-4.02133 -2.080078,-8.82554 -2.080078,-14.41601 0,-11.903382 4.337129,-21.288352 12.964846,-27.990242 8.60736,-6.70307 20.735995,-10.3756 36.294905,-11.11914 l 0,-14.98438 z m 1,30.98829 -0.52538,0.0273 c -9.94053,0.53526 -17.44973,2.67184 -22.50976,6.48633 -5.060045,3.81448 -7.611335,9.32651 -7.611335,16.363282 0,4.55573 0.96786,8.45627 2.92383,11.66406 1.94972,3.19755 4.832795,5.8785 8.617195,8.04102 l 0.002,0 0.002,0.002 c 3.87658,2.17088 10.02131,4.29975 18.48047,6.43359 l 0.6211,0.15821 0,-49.175782 z m 13.14063,69.324212 0,54.54493 0.53125,-0.0352 c 10.7799,-0.68808 19.09098,-3.24702 24.90234,-7.74023 l 0.002,-0.002 c 5.8883,-4.49473 8.85937,-10.76353 8.85937,-18.64062 0,-5.0079 -1.0018,-9.1739 -3.03906,-12.46485 -2.02382,-3.26925 -4.94421,-5.95038 -8.72852,-8.03711 l -0.006,-0.002 c -3.82425,-2.18413 -11.08929,-4.64498 -21.89648,-7.46094 l -0.625,-0.16211 z m 118.01954,104.14063 137.03516,0 0,15.82422 -136.53516,0 -0.5,0 0,-15.82422 z"
       style="fill:#ffffff"
       inkscape:connector-curvature="0" />
    <path
       id="path21816-5"
       style="fill:#ffffff;fill-rule:evenodd"
       d="m 20.499495,334.60573 0,20.06 430.000005,0 0,-20.06 -430.000005,0"
       inkscape:connector-curvature="0" />
  </g>
</svg>
